<svg width="10" height="10" viewBox="0 0 10 10" fill="none" xmlns="http://www.w3.org/2000/svg">
<path d="M7.25778 0.5C8.98222 0.5 10 1.4923 10 3.1909H7.88444V3.20823C6.9026 3.20823 6.10666 3.98424 6.10666 4.9415C6.10666 5.89876 6.9026 6.67477 7.88444 6.67477H10V6.83077C10 8.5077 8.98222 9.5 7.25778 9.5H2.74222C1.01778 9.5 0 8.5077 0 6.83077V3.16923C0 1.4923 1.01778 0.5 2.74222 0.5H7.25778ZM9.62666 3.93621C9.83285 3.93621 10 4.09917 10 4.30019V5.56548C9.9976 5.76553 9.83185 5.92713 9.62666 5.92947H7.92444C7.42739 5.93599 6.99274 5.60419 6.88 5.13216C6.82354 4.83915 6.9028 4.53678 7.09653 4.30611C7.29027 4.07543 7.57867 3.94004 7.88444 3.93621H9.62666ZM8.12444 4.52118H7.96C7.85904 4.52003 7.7618 4.55832 7.68999 4.62752C7.61818 4.69672 7.57778 4.79106 7.57778 4.8895C7.57776 5.09603 7.74818 5.26412 7.96 5.26649H8.12444C8.33554 5.26649 8.50666 5.09965 8.50666 4.89384C8.50666 4.68803 8.33554 4.52118 8.12444 4.52118ZM5.19111 2.44559H2.36889C2.15952 2.44558 1.9891 2.6098 1.98667 2.81391C1.98667 3.02044 2.15708 3.18853 2.36889 3.1909H5.19111C5.4022 3.1909 5.57333 3.02406 5.57333 2.81825C5.57333 2.61244 5.4022 2.44559 5.19111 2.44559Z" fill="#228276"/>
</svg>
