<svg width="25" height="26" viewBox="0 0 25 26" fill="none" xmlns="http://www.w3.org/2000/svg">
<circle cx="12.5" cy="13" r="12" stroke="#228276"/>
<path d="M8.86992 6.24345C9.50927 5.75924 10.2898 5.49808 11.0918 5.50001C11.3168 5.50001 11.4959 5.6172 11.5999 5.69782C11.7162 5.7897 11.8249 5.90689 11.9224 6.02407C11.9915 6.10804 12.0293 6.21343 12.0293 6.3222V9.71876H11.0121C10.9015 9.406 10.6839 9.1424 10.3978 8.97456C10.1117 8.80671 9.77543 8.74541 9.44848 8.80151C9.12153 8.85761 8.82494 9.02748 8.61112 9.28111C8.3973 9.53473 8.28003 9.85578 8.28003 10.1875C8.28003 10.5192 8.3973 10.8403 8.61112 11.0939C8.82494 11.3475 9.12153 11.5174 9.44848 11.5735C9.77543 11.6296 10.1117 11.5683 10.3978 11.4005C10.6839 11.2326 10.9015 10.969 11.0121 10.6563H12.0293V19.4828C12.0293 19.5522 12.014 19.6208 11.9843 19.6835C11.9546 19.7463 11.9114 19.8016 11.8577 19.8456C11.4246 20.2 10.8452 20.5 10.1543 20.5C9.04242 20.5 8.21461 19.9394 7.6793 19.2691C7.29469 18.7915 7.03127 18.228 6.91148 17.6266C6.54725 17.5295 6.20953 17.3516 5.92336 17.1063C5.40586 16.6628 4.99805 15.9438 4.99805 14.875C4.99805 14.3528 5.03273 13.8813 5.11055 13.4688H8.04492C8.64117 13.4688 9.13242 13.9141 9.20742 14.4897C8.89565 14.6025 8.63377 14.8219 8.46803 15.109C8.30229 15.3962 8.24334 15.7327 8.30159 16.0591C8.35984 16.3855 8.53154 16.6808 8.78639 16.8929C9.04123 17.105 9.36282 17.2202 9.69437 17.2182C10.0259 17.2163 10.3461 17.0972 10.5984 16.8821C10.8507 16.6669 11.0188 16.3696 11.0732 16.0425C11.1275 15.7154 11.0646 15.3797 10.8954 15.0945C10.7262 14.8094 10.4618 14.5932 10.1487 14.4841C10.1092 13.9532 9.87035 13.4568 9.48017 13.0946C9.08999 12.7325 8.57729 12.5312 8.04492 12.5313H5.41148C5.55492 12.2519 5.74711 12.0156 5.99742 11.8478C6.06074 11.8059 6.12718 11.7689 6.19617 11.7372C5.92992 10.9572 5.9993 10.0441 6.25617 9.32688C6.42023 8.86563 6.68086 8.4297 7.03898 8.13907C7.27523 7.94688 7.55648 7.82032 7.86398 7.79595C7.99898 7.15563 8.37773 6.62595 8.86992 6.24345ZM12.9668 17.2188H13.6699C14.2294 17.2188 14.7659 16.9965 15.1615 16.6009C15.5571 16.2053 15.7793 15.6688 15.7793 15.1094V13.3891C16.092 13.2785 16.3556 13.0609 16.5235 12.7748C16.6913 12.4887 16.7526 12.1524 16.6965 11.8254C16.6404 11.4985 16.4706 11.2019 16.2169 10.9881C15.9633 10.7743 15.6423 10.657 15.3105 10.657C14.9788 10.657 14.6578 10.7743 14.4041 10.9881C14.1505 11.2019 13.9806 11.4985 13.9245 11.8254C13.8684 12.1524 13.9297 12.4887 14.0976 12.7748C14.2654 13.0609 14.529 13.2785 14.8418 13.3891V15.1094C14.8418 15.7563 14.3168 16.2813 13.6699 16.2813H12.9668V6.3222C12.9667 6.21343 13.0045 6.10804 13.0737 6.02407C13.1702 5.90689 13.2799 5.7897 13.3962 5.69782C13.4993 5.6172 13.6784 5.50001 13.9043 5.50001C14.7063 5.49808 15.4868 5.75924 16.1262 6.24345C16.6184 6.62595 16.998 7.15563 17.1321 7.79595C17.4396 7.81938 17.7208 7.94688 17.9571 8.13907C18.3152 8.4297 18.5758 8.86563 18.7399 9.32688C18.9968 10.0441 19.0662 10.9581 18.7999 11.7363C18.8674 11.7681 18.934 11.8056 18.9987 11.8488C19.2565 12.0203 19.4524 12.2659 19.5968 12.5556C19.8808 13.1228 19.998 13.9141 19.998 14.875C19.998 15.9447 19.5902 16.6628 19.0727 17.1063C18.7866 17.3516 18.4488 17.5295 18.0846 17.6266C17.9908 18.1497 17.7283 18.7553 17.3168 19.2691C16.7824 19.9394 15.9537 20.5 14.8418 20.5C14.1518 20.5 13.5715 20.2 13.1393 19.8456C13.0854 19.8017 13.042 19.7464 13.0122 19.6836C12.9824 19.6209 12.9669 19.5523 12.9668 19.4828V17.2188ZM9.68554 9.71876C9.56122 9.71876 9.442 9.76814 9.35409 9.85605C9.26618 9.94396 9.21679 10.0632 9.21679 10.1875C9.21679 10.3118 9.26618 10.4311 9.35409 10.519C9.442 10.6069 9.56122 10.6563 9.68554 10.6563C9.80986 10.6563 9.92909 10.6069 10.017 10.519C10.1049 10.4311 10.1543 10.3118 10.1543 10.1875C10.1543 10.0632 10.1049 9.94396 10.017 9.85605C9.92909 9.76814 9.80986 9.71876 9.68554 9.71876ZM9.68554 15.3438C9.56122 15.3438 9.442 15.3931 9.35409 15.481C9.26618 15.569 9.21679 15.6882 9.21679 15.8125C9.21679 15.9368 9.26618 16.0561 9.35409 16.144C9.442 16.2319 9.56122 16.2813 9.68554 16.2813C9.80986 16.2813 9.92909 16.2319 10.017 16.144C10.1049 16.0561 10.1543 15.9368 10.1543 15.8125C10.1543 15.6882 10.1049 15.569 10.017 15.481C9.92909 15.3931 9.80986 15.3438 9.68554 15.3438ZM15.3105 12.5313C15.4349 12.5313 15.5541 12.4819 15.642 12.394C15.7299 12.3061 15.7793 12.1868 15.7793 12.0625C15.7793 11.9382 15.7299 11.819 15.642 11.731C15.5541 11.6431 15.4349 11.5938 15.3105 11.5938C15.1862 11.5938 15.067 11.6431 14.9791 11.731C14.8912 11.819 14.8418 11.9382 14.8418 12.0625C14.8418 12.1868 14.8912 12.3061 14.9791 12.394C15.067 12.4819 15.1862 12.5313 15.3105 12.5313Z" fill="#228276"/>
</svg>
