<svg width="147" height="142" viewBox="0 0 147 142" fill="none" xmlns="http://www.w3.org/2000/svg">
<path d="M1.94043 117.689L19.3877 117.603L36.8351 117.575L71.7297 117.517L106.624 117.572L124.072 117.603L141.519 117.689L124.072 117.772L106.624 117.803L71.7297 117.861L36.8351 117.803L19.3877 117.772L1.94043 117.689Z" fill="#263238"/>
<path d="M140.433 72.8476H89.1177V10.1799H135.089L140.433 15.3583V72.8476Z" fill="#EBEBEB"/>
<path d="M137.825 12.7708H91.729V70.2222H137.825V12.7708Z" fill="white"/>
<g opacity="0.2">
<path d="M116.298 12.7708L114.775 41.4947L113.259 12.7708H116.298Z" fill="#EBEBEB"/>
<path d="M114.776 41.4947L105.429 12.7708H108.691L114.776 41.4947Z" fill="#EBEBEB"/>
<path d="M114.775 41.4947L96.105 12.7708H100.164L114.775 41.4947Z" fill="#EBEBEB"/>
<path d="M114.775 41.4948L91.729 20.7675V15.8682L114.775 41.4948Z" fill="#EBEBEB"/>
<path d="M114.775 41.4946L91.729 29.7666V26.5107L114.775 41.4946Z" fill="#EBEBEB"/>
<path d="M114.775 41.4947L91.729 36.6092V33.9907L114.775 41.4947Z" fill="#EBEBEB"/>
<path d="M114.775 41.4948L91.729 42.7179V40.2751L114.775 41.4948Z" fill="#EBEBEB"/>
<path d="M114.775 41.4946L91.729 48.9952V46.3802L114.775 41.4946Z" fill="#EBEBEB"/>
<path d="M114.775 41.4946L91.729 56.4751V53.2226L114.775 41.4946Z" fill="#EBEBEB"/>
<path d="M114.775 41.4946L91.729 67.1143V62.2254L114.775 41.4946Z" fill="#EBEBEB"/>
<path d="M114.776 41.4946L100.157 70.2221H96.0952L114.776 41.4946Z" fill="#EBEBEB"/>
<path d="M114.776 41.4946L108.688 70.2221H105.422L114.776 41.4946Z" fill="#EBEBEB"/>
<path d="M116.298 70.2221H113.252L114.775 41.4946L116.298 70.2221Z" fill="#EBEBEB"/>
<path d="M124.125 70.2221H120.866L114.774 41.4946L124.125 70.2221Z" fill="#EBEBEB"/>
<path d="M133.452 70.2221H129.393L114.774 41.4946L133.452 70.2221Z" fill="#EBEBEB"/>
<path d="M137.824 62.2288V67.1247L114.774 41.4946L137.824 62.2288Z" fill="#EBEBEB"/>
<path d="M137.824 53.2261V56.482L114.774 41.4946L137.824 53.2261Z" fill="#EBEBEB"/>
<path d="M137.824 46.3836V48.9986L114.774 41.4946L137.824 46.3836Z" fill="#EBEBEB"/>
<path d="M137.824 40.2751V42.7179L114.774 41.4948L137.824 40.2751Z" fill="#EBEBEB"/>
<path d="M137.824 33.9941V36.6126L114.774 41.4947L137.824 33.9941Z" fill="#EBEBEB"/>
<path d="M137.824 26.5107V29.7666L114.774 41.4946L137.824 26.5107Z" fill="#EBEBEB"/>
<path d="M137.824 15.8716V20.764L114.774 41.4947L137.824 15.8716Z" fill="#EBEBEB"/>
<path d="M133.455 12.7708L114.774 41.4947L129.393 12.7708H133.455Z" fill="#EBEBEB"/>
<path d="M124.125 12.7708L114.774 41.4947L120.866 12.7708H124.125Z" fill="#EBEBEB"/>
</g>
<path d="M101.932 24.5832L124.259 22.2366C124.366 22.2253 124.473 22.2571 124.557 22.325C124.641 22.3928 124.694 22.4912 124.705 22.5984L128.316 56.9455C128.355 57.3208 128.244 57.6965 128.006 57.9897C127.769 58.283 127.424 58.47 127.049 58.5094L105.733 60.7498C105.626 60.7611 105.518 60.7293 105.435 60.6614C105.351 60.5936 105.297 60.4952 105.286 60.388L101.569 25.0232C101.56 24.917 101.593 24.8113 101.66 24.729C101.728 24.6467 101.826 24.5944 101.932 24.5832Z" fill="#DBDBDB"/>
<path d="M104.18 26.6177L122.683 24.673C122.762 24.6647 122.84 24.6879 122.901 24.7374C122.962 24.7868 123.001 24.8585 123.009 24.9367L124.226 36.5182C124.246 36.7054 124.191 36.8928 124.072 37.039C123.954 37.1853 123.782 37.2786 123.595 37.2982L105.503 39.1998C105.464 39.2038 105.425 39.2002 105.388 39.1892C105.35 39.1781 105.316 39.1599 105.285 39.1354C105.255 39.1109 105.23 39.0807 105.211 39.0465C105.193 39.0123 105.181 38.9748 105.177 38.9361L103.917 26.9434C103.908 26.8652 103.932 26.787 103.981 26.7259C104.031 26.6648 104.102 26.6259 104.18 26.6177Z" fill="#A6A6A6"/>
<path d="M118.769 26.0576L108.102 27.1787L109.223 37.8454L119.89 36.7243L118.769 26.0576Z" fill="#C7C7C7"/>
<path d="M113.873 44.978C113.956 45.7669 113.803 46.5627 113.434 47.2646C113.065 47.9666 112.495 48.5433 111.798 48.9217C111.101 49.3002 110.307 49.4634 109.518 49.3907C108.728 49.3181 107.977 49.0128 107.361 48.5135C106.744 48.0142 106.29 47.3434 106.055 46.5858C105.82 45.8282 105.814 45.0179 106.04 44.2574C106.265 43.4969 106.711 42.8203 107.321 42.3132C107.931 41.8062 108.678 41.4914 109.467 41.4087C110.524 41.2996 111.581 41.6141 112.407 42.2831C113.233 42.9521 113.76 43.9212 113.873 44.978Z" fill="#C7C7C7"/>
<path d="M110.532 42.4412L108.644 42.6396L109.243 48.3413L111.131 48.1429L110.532 42.4412Z" fill="#A6A6A6"/>
<path d="M106.93 44.7502L107.128 46.6382L112.83 46.0389L112.632 44.1509L106.93 44.7502Z" fill="#A6A6A6"/>
<path d="M122.772 40.2457L117.514 43.9923C117.206 44.212 117.134 44.6401 117.353 44.9485L118.697 46.8341C118.917 47.1425 119.345 47.2144 119.653 46.9947L124.912 43.248C125.22 43.0283 125.292 42.6002 125.072 42.2918L123.729 40.4062C123.509 40.0978 123.081 40.0259 122.772 40.2457Z" fill="#C7C7C7"/>
<path d="M120.674 43.9686C120.812 44.1629 120.889 44.3937 120.896 44.632C120.903 44.8702 120.839 45.1051 120.713 45.3071C120.586 45.509 120.403 45.6689 120.185 45.7667C119.968 45.8644 119.726 45.8955 119.491 45.8561C119.256 45.8167 119.038 45.7085 118.865 45.5452C118.691 45.3819 118.57 45.1709 118.516 44.9387C118.462 44.7065 118.478 44.4636 118.563 44.2407C118.647 44.0177 118.795 43.8247 118.989 43.6861C119.118 43.5937 119.264 43.5278 119.419 43.492C119.573 43.4562 119.734 43.4513 119.89 43.4775C120.047 43.5038 120.196 43.5607 120.331 43.6449C120.465 43.7292 120.582 43.8392 120.674 43.9686Z" fill="white"/>
<path d="M123.686 41.8222C123.824 42.0164 123.902 42.2474 123.909 42.4858C123.916 42.7242 123.853 42.9594 123.726 43.1616C123.6 43.3638 123.416 43.524 123.199 43.6218C122.981 43.7197 122.739 43.7508 122.504 43.7112C122.269 43.6717 122.051 43.5633 121.877 43.3998C121.703 43.2362 121.582 43.0248 121.529 42.7924C121.475 42.5599 121.492 42.3168 121.577 42.0938C121.661 41.8708 121.81 41.678 122.005 41.5397C122.265 41.3543 122.588 41.2799 122.904 41.3328C123.219 41.3858 123.5 41.5618 123.686 41.8222Z" fill="white"/>
<path d="M116.563 52.6428L119.145 50.8039C119.251 50.7288 119.275 50.5825 119.2 50.4771L118.744 49.8373C118.669 49.7319 118.523 49.7073 118.418 49.7824L115.836 51.6213C115.73 51.6963 115.706 51.8426 115.781 51.948L116.237 52.5878C116.312 52.6932 116.458 52.7178 116.563 52.6428Z" fill="#A6A6A6"/>
<path d="M122.416 55.9435L123.535 57.515C123.563 57.5538 123.617 57.5628 123.656 57.5352L123.894 57.3653C123.933 57.3377 123.942 57.284 123.914 57.2452L122.795 55.6737C122.767 55.6349 122.714 55.6259 122.675 55.6535L122.436 55.8234C122.398 55.851 122.389 55.9048 122.416 55.9435Z" fill="#A6A6A6"/>
<path d="M123.022 55.5023L124.142 57.0736C124.17 57.1124 124.223 57.1214 124.262 57.0938L124.501 56.9239C124.539 56.8963 124.548 56.8425 124.521 56.8037L123.401 55.2324C123.374 55.1937 123.32 55.1846 123.281 55.2122L123.042 55.3822C123.004 55.4098 122.995 55.4636 123.022 55.5023Z" fill="#A6A6A6"/>
<path d="M123.648 55.0558L124.767 56.6271C124.795 56.6659 124.849 56.6749 124.888 56.6473L125.126 56.4773C125.165 56.4497 125.174 56.396 125.146 56.3572L124.027 54.7859C123.999 54.7471 123.945 54.7381 123.906 54.7657L123.668 54.9356C123.629 54.9632 123.62 55.017 123.648 55.0558Z" fill="#A6A6A6"/>
<path d="M124.271 54.6122L125.39 56.1835C125.418 56.2223 125.472 56.2313 125.511 56.2037L125.749 56.0337C125.788 56.0061 125.797 55.9524 125.769 55.9136L124.65 54.3423C124.622 54.3035 124.568 54.2945 124.53 54.3221L124.291 54.492C124.252 54.5196 124.243 54.5734 124.271 54.6122Z" fill="#A6A6A6"/>
<path d="M124.898 54.1659L126.017 55.7372C126.045 55.776 126.099 55.785 126.138 55.7574L126.376 55.5875C126.415 55.5598 126.424 55.5061 126.396 55.4673L125.277 53.896C125.249 53.8572 125.195 53.8482 125.156 53.8758L124.918 54.0457C124.879 54.0734 124.87 54.1271 124.898 54.1659Z" fill="#A6A6A6"/>
<path d="M125.545 53.715L126.664 55.2865C126.691 55.3253 126.745 55.3343 126.784 55.3067L127.023 55.1368C127.061 55.1092 127.07 55.0554 127.043 55.0167L125.923 53.4452C125.896 53.4064 125.842 53.3974 125.803 53.425L125.565 53.5949C125.526 53.6225 125.517 53.6762 125.545 53.715Z" fill="#A6A6A6"/>
<path d="M112.882 53.0519L115.464 51.2126C115.569 51.1375 115.594 50.9912 115.519 50.8859L115.063 50.2461C114.988 50.1407 114.842 50.1162 114.736 50.1912L112.155 52.0306C112.049 52.1056 112.025 52.2519 112.1 52.3573L112.556 52.9971C112.631 53.1025 112.777 53.127 112.882 53.0519Z" fill="#A6A6A6"/>
<path d="M110.635 39.2085L105.262 39.7732L105.31 40.2323L110.683 39.6676L110.635 39.2085Z" fill="#A6A6A6"/>
<path d="M124.216 37.7815L116.609 38.5811L116.657 39.0402L124.264 38.2407L124.216 37.7815Z" fill="#A6A6A6"/>
<path d="M111.88 39.075L111.42 39.1233L111.469 39.5824L111.928 39.5342L111.88 39.075Z" fill="#A6A6A6"/>
<path d="M112.706 38.9891L112.247 39.0374L112.295 39.4965L112.754 39.4482L112.706 38.9891Z" fill="#A6A6A6"/>
<path d="M113.53 38.9002L113.071 38.9485L113.119 39.4076L113.578 39.3594L113.53 38.9002Z" fill="#A6A6A6"/>
<path d="M114.351 38.818L113.892 38.8662L113.94 39.3254L114.399 39.2771L114.351 38.818Z" fill="#A6A6A6"/>
<path d="M115.174 38.7416L114.715 38.7898L114.764 39.249L115.223 39.2008L115.174 38.7416Z" fill="#A6A6A6"/>
<path d="M116.001 38.6429L115.542 38.6912L115.59 39.1503L116.049 39.1021L116.001 38.6429Z" fill="#A6A6A6"/>
<path d="M117.965 57.4433L114.313 57.8272C114.182 57.8409 114.087 57.9579 114.101 58.0885L114.185 58.8868C114.199 59.0174 114.316 59.1121 114.446 59.0984L118.099 58.7145C118.229 58.7008 118.324 58.5838 118.31 58.4532L118.227 57.6549C118.213 57.5243 118.096 57.4296 117.965 57.4433Z" fill="#C7C7C7"/>
<path d="M107.758 55.6999V54.8179H102.032V55.6999H107.758Z" fill="white"/>
<path d="M130.131 32.3954V31.5134H124.405V32.3954H130.131Z" fill="white"/>
<path d="M129.508 48.072V47.1899H123.782V48.072H129.508Z" fill="white"/>
<path d="M131.655 45.0055V44.1235H125.929V45.0055H131.655Z" fill="#DBDBDB"/>
<path d="M131.658 57.9738V57.0918H125.932V57.9738H131.658Z" fill="#DBDBDB"/>
<path d="M105.239 53.4294V52.5474H99.5126V53.4294H105.239Z" fill="#DBDBDB"/>
<path d="M103.623 27.162V26.28H97.8969V27.162H103.623Z" fill="#DBDBDB"/>
<path d="M135.09 10.1799V15.3583H140.434L135.09 10.1799Z" fill="#EBEBEB"/>
<path d="M69.1453 24.6711H3.02539V27.5101H69.1453V24.6711Z" fill="#EBEBEB"/>
<path d="M12.6381 38.6868H10.0644L9.03076 27.51H12.6381V38.6868Z" fill="#EBEBEB"/>
<path d="M59.5317 38.6868H62.1054L63.139 27.51H59.5317V38.6868Z" fill="#EBEBEB"/>
<path d="M9.03076 27.51H12.6381V31.3585H9.38564L9.03076 27.51Z" fill="#DBDBDB"/>
<path d="M63.139 27.51L62.7842 31.3585H59.5317V27.51H63.139Z" fill="#DBDBDB"/>
<path d="M26.9677 7.64046C24.0357 11.613 20.9762 16.2229 20.232 21.2083C20.2312 21.2241 20.2361 21.2397 20.2459 21.2522C20.2557 21.2646 20.2697 21.2731 20.2852 21.276C20.3008 21.279 20.3169 21.2762 20.3306 21.2682C20.3442 21.2601 20.3545 21.2474 20.3595 21.2324C20.6972 19.8733 21.1312 18.5401 21.6584 17.2427C23.5878 16.7121 25.4793 16.2745 26.4819 14.3624C27.5155 12.3916 27.3846 9.82827 27.171 7.68181C27.1848 7.56811 27.0297 7.56122 26.9677 7.64046Z" fill="#EBEBEB"/>
<path d="M21.6865 17.2048C23.0061 14.2487 24.6978 11.2788 26.8546 8.84633C26.8546 8.8291 26.8925 8.84633 26.8787 8.87045C25.5321 10.6028 24.3509 12.4576 23.3506 14.4106C24.3222 13.4252 25.3834 12.5398 26.3068 11.4958C26.3068 11.4751 26.3516 11.4958 26.3343 11.5234C25.4213 12.6224 24.4221 13.8145 23.2335 14.6242C22.9131 15.2134 22.5927 15.8025 22.2654 16.3951C22.3446 16.3503 22.4273 16.309 22.51 16.2711C22.51 16.2711 22.5375 16.2711 22.51 16.2918C22.4169 16.3365 22.3274 16.3848 22.2343 16.4261C22.0793 16.7052 21.9277 16.9843 21.7692 17.2633C21.7451 17.3219 21.659 17.2668 21.6865 17.2048Z" fill="#A6A6A6"/>
<path d="M22.6674 16.1748C23.4561 15.7317 24.2095 15.2283 24.9207 14.6692C24.9207 14.6692 24.9655 14.6692 24.9483 14.6968C24.2594 15.2922 23.5046 15.8066 22.6984 16.2299C22.664 16.2472 22.6295 16.1955 22.6674 16.1748Z" fill="#A6A6A6"/>
<path d="M19.9107 21.1602C19.9137 21.172 19.9206 21.1825 19.9303 21.1901C19.9399 21.1976 19.9518 21.2016 19.9641 21.2016C19.9763 21.2016 19.9882 21.1976 19.9979 21.1901C20.0075 21.1825 20.0144 21.172 20.0175 21.1602C20.0175 19.5202 20.0175 17.8699 20.0416 16.223C20.4619 15.3754 21.3646 14.9034 21.9917 14.2247C22.4445 13.7291 22.8377 13.1822 23.1631 12.595C23.9213 11.1933 24.3856 9.65166 24.5274 8.06435C24.6997 6.31066 24.0348 0.515563 23.294 0.71884C22.9116 0.8222 21.6678 3.69219 21.3405 4.63966C20.8046 6.20843 20.4136 7.82302 20.1725 9.46317C19.5661 13.3116 19.6144 17.2738 19.9107 21.1602Z" fill="#EBEBEB"/>
<path d="M19.8971 14.0835C19.9867 12.0163 20.4552 9.9112 20.8928 7.88189C21.3648 5.71131 21.9264 3.67165 23.0324 1.73536C23.0365 1.72805 23.0433 1.72267 23.0514 1.72041C23.0595 1.71815 23.0681 1.71919 23.0754 1.7233C23.0828 1.72741 23.0881 1.73426 23.0904 1.74234C23.0927 1.75041 23.0916 1.75906 23.0875 1.76637C22.3428 3.27218 21.7651 4.85499 21.3648 6.48651C21.4406 6.36937 21.5336 6.25912 21.6094 6.14198C21.6405 6.09719 21.7128 6.14198 21.6818 6.18332C21.5832 6.35832 21.4678 6.52333 21.3373 6.67601C20.9514 8.22642 20.6757 9.81129 20.438 11.3927C20.4587 11.3927 20.4759 11.3514 20.4931 11.3341C20.5104 11.3169 20.5242 11.3341 20.5173 11.3514L20.4208 11.5099C20.3037 12.3126 20.1934 13.1119 20.0763 13.9216C21.5408 12.743 22.6883 11.2178 23.4148 9.48398C22.7257 11.3238 21.6921 12.9604 20.0384 14.0801C20.0073 14.2937 19.9798 14.5073 19.9488 14.7209C19.9488 14.7657 19.873 14.7519 19.873 14.7209C19.873 14.5314 19.873 14.3419 19.873 14.1524C19.8688 14.1466 19.8662 14.1399 19.8652 14.1328C19.8642 14.1257 19.8649 14.1185 19.8673 14.1118C19.8696 14.105 19.8736 14.0989 19.8788 14.094C19.8839 14.0891 19.8902 14.0855 19.8971 14.0835Z" fill="#A6A6A6"/>
<path d="M20.5721 11.0757C21.6905 9.49078 22.6681 7.81108 23.4938 6.05582C23.4938 6.03515 23.5386 6.05582 23.5282 6.05582C22.8744 7.89667 21.8953 9.60512 20.6376 11.0998C20.5997 11.1446 20.548 11.1067 20.5721 11.0757Z" fill="#A6A6A6"/>
<path d="M22.0234 5.65256C22.4782 4.85324 22.9537 4.07458 23.3809 3.25803C23.3809 3.23392 23.4223 3.25803 23.4154 3.25803C23.066 4.10893 22.6222 4.91791 22.0923 5.66979C22.0873 5.67486 22.081 5.67854 22.0741 5.68046C22.0672 5.68239 22.0599 5.68248 22.053 5.68075C22.0461 5.67901 22.0397 5.6755 22.0345 5.67056C22.0293 5.66562 22.0255 5.65942 22.0234 5.65256Z" fill="#A6A6A6"/>
<path d="M19.1061 16.9568C19.0844 18.0439 18.9563 19.1263 18.7237 20.1885L18.7754 20.5331C19.1101 19.3622 19.3067 18.1561 19.3611 16.9395C19.3717 16.9219 19.3773 16.9016 19.3773 16.881C19.3773 16.8603 19.3717 16.8401 19.3611 16.8224C19.4134 15.1875 19.298 13.5516 19.0165 11.9403C18.5101 8.92219 17.3972 6.02809 15.2955 3.76793C15.278 3.75296 15.2572 3.7422 15.2349 3.73646C15.2126 3.73072 15.1892 3.73015 15.1666 3.7348C15.144 3.73946 15.1228 3.7492 15.1045 3.7633C15.0863 3.7774 15.0715 3.79548 15.0613 3.81616C14.2137 5.97296 14.51 8.55009 15.2335 10.7069C15.6272 11.8722 16.189 12.9737 16.9011 13.9765C17.6005 14.9895 18.5204 15.8474 19.1061 16.9568Z" fill="#EBEBEB"/>
<path d="M15.5223 4.78105C17.5172 8.01625 18.9022 11.8509 19.0711 15.6753C19.0711 15.7407 18.9608 15.758 18.9505 15.6753C18.9057 15.3308 18.8506 14.9862 18.7989 14.6417C17.9313 13.8772 17.17 13 16.5353 12.0335C16.5353 12.0335 16.5353 11.9956 16.5628 12.0094C17.2469 12.852 17.9797 13.6539 18.7575 14.4108C18.6174 13.5679 18.4463 12.7364 18.2442 11.9164L18.0891 11.7303C18.0547 11.689 18.1098 11.6304 18.1477 11.6718L18.1959 11.7235C17.9187 10.601 17.5735 9.49648 17.1623 8.41591C16.6559 7.80952 16.0874 7.28583 15.7187 6.55886C15.7187 6.55886 15.7187 6.52785 15.7463 6.55886C16.0321 6.98183 16.3391 7.39005 16.6662 7.78196C16.8006 7.937 16.9487 8.08171 17.0865 8.2333C16.6285 7.05979 16.0837 5.92198 15.4569 4.82928C15.4155 4.76382 15.4913 4.73281 15.5223 4.78105Z" fill="#A6A6A6"/>
<path d="M15.9151 8.77065C16.5593 9.63888 17.2932 10.4658 17.8927 11.3616C17.8927 11.3891 17.872 11.4132 17.8513 11.396C17.0861 10.6153 16.4207 9.74272 15.8703 8.79821C15.8634 8.77065 15.9151 8.74653 15.9151 8.77065Z" fill="#A6A6A6"/>
<path d="M17.9823 11.565L18.01 11.5927C18.0308 11.6101 18.01 11.6413 17.9823 11.6205V11.5927C17.9441 11.5754 17.9823 11.5442 17.9823 11.565Z" fill="#A6A6A6"/>
<path d="M12.0899 10.1832C12.325 11.9893 13.052 13.6961 14.1915 15.1169C14.6658 15.6774 15.2528 16.1317 15.9142 16.4503C16.6515 16.8155 17.4267 17.2358 18.1916 17.5356C18.5536 18.4612 18.8236 19.4202 18.9978 20.3987L19.0702 20.1437C18.5672 15.93 15.8384 12.3434 12.3517 10.0178C12.3245 9.99928 12.2925 9.98912 12.2596 9.98855C12.2267 9.98798 12.1944 9.99704 12.1666 10.0146C12.1387 10.0322 12.1167 10.0575 12.103 10.0874C12.0894 10.1174 12.0848 10.1507 12.0899 10.1832Z" fill="#EBEBEB"/>
<path d="M13.3719 12.8845C13.4188 12.9123 13.4637 12.9434 13.5063 12.9775L13.489 13.0016C13.4374 12.9775 13.396 12.95 13.3478 12.9224C13.2996 12.8948 13.3478 12.8673 13.3719 12.8845Z" fill="#A6A6A6"/>
<path d="M23.3427 24.671H16.1626L16.514 19.9646L16.6518 18.428H22.7915L22.9258 19.9646L23.3427 24.671Z" fill="#DBDBDB"/>
<path d="M22.9265 19.9646H16.5146L16.6525 18.428H22.7921L22.9265 19.9646Z" fill="#C7C7C7"/>
<path d="M23.2807 17.167H16.1626V18.7415H23.2807V17.167Z" fill="#DBDBDB"/>
<path d="M40.8003 24.6608V7.56836H36.497V24.6608H40.8003Z" fill="#C7C7C7"/>
<path d="M40.7964 8.52958V6.65186H36.4931V8.52958H40.7964Z" fill="#DBDBDB"/>
<path d="M40.8003 11.6337V10.9377H36.497V11.6337H40.8003Z" fill="#DBDBDB"/>
<path d="M40.7964 22.4178V20.54H36.4931V22.4178H40.7964Z" fill="#DBDBDB"/>
<path d="M43.8081 24.6605V4.71875H40.8003V24.6605H43.8081Z" fill="#DBDBDB"/>
<path d="M43.1904 14.2626V6.59326H41.3851V14.2626H43.1904Z" fill="#EBEBEB"/>
<path d="M65.2317 22.5022L51.0498 8.48267L48.9353 10.6217L63.1172 24.6412L65.2317 22.5022Z" fill="#C7C7C7"/>
<path d="M61.4864 19.6337L56.0322 14.2419L54.763 15.5259L60.2172 20.9176L61.4864 19.6337Z" fill="#DBDBDB"/>
<path d="M48.9141 24.6641V9.51831H43.8046V24.6641H48.9141Z" fill="#A6A6A6"/>
<path d="M48.9111 23.0586V21.646H43.8017V23.0586H48.9111Z" fill="#C7C7C7"/>
<path d="M48.9141 20.7226V20.1748H43.8046V20.7226H48.9141Z" fill="#C7C7C7"/>
<path d="M30.9073 24.6707L36.521 11.5918L33.279 10.2003L27.6652 23.2792L30.9073 24.6707Z" fill="#A6A6A6"/>
<path d="M31.5022 23.2885L32.0254 22.0696L28.7834 20.678L28.2602 21.897L31.5022 23.2885Z" fill="#C7C7C7"/>
<path d="M34.8396 15.5077L35.3628 14.2888L32.1208 12.8973L31.5976 14.1162L34.8396 15.5077Z" fill="#C7C7C7"/>
<path d="M34.276 16.8138L34.4785 16.342L31.2365 14.9505L31.034 15.4222L34.276 16.8138Z" fill="#C7C7C7"/>
<path d="M71.729 141.086C111.344 141.086 143.458 137.122 143.458 132.232C143.458 127.342 111.344 123.377 71.729 123.377C32.1142 123.377 0 127.342 0 132.232C0 137.122 32.1142 141.086 71.729 141.086Z" fill="#EBEBEB"/>
<path d="M2.03852 117.682C2.28788 111.861 2.22232 106.031 1.84213 100.217C0.991125 86.3223 -0.821135 67.9689 0.860202 64.1135C2.02473 61.433 6.5416 57.7637 6.93093 57.0781C7.69925 55.7344 10.3005 47.9927 11.5581 46.3975C13.6804 43.7135 23.2723 43.7721 24.8124 45.7084C27.6548 49.357 28.2302 55.7482 29.3706 56.9851C30.511 58.222 39.0555 61.564 40.2097 64.7268C41.3639 67.8897 36.5369 75.0491 36.4749 76.9992C36.4129 78.9493 45.6327 100.848 45.9462 105.706C46.2597 110.564 41.4259 117.558 41.4259 117.558L2.03852 117.682Z" fill="#A6A6A6"/>
<path d="M41.4259 117.562H39.1485H39.1244C39.1244 117.562 42.0977 110.302 42.0977 106.747C42.0977 103.191 33.5636 80.7444 33.6084 77.0509C33.6531 73.3575 38.9969 68.596 38.5835 65.4814C38.17 62.3668 30.0941 59.5106 28.4679 57.9016C26.8417 56.2926 25.6702 47.0108 24.2232 45.8773C22.7761 44.7438 14.621 44.8024 13.198 47.2555C11.7751 49.7085 10.5796 56.2857 9.40813 58.8043C8.2367 61.3229 3.0032 62.9904 2.82059 67.149C2.63799 71.3075 12.4676 98.3226 11.1239 105.007C9.78023 111.691 7.18587 115.773 5.8284 117.672H5.00151C5.00151 117.672 8.87065 108.221 8.96023 104.166C9.03603 100.931 2.84471 83.8383 0.346824 77.0509C0.0643039 70.8493 0.0884211 65.9121 0.873964 64.1136C2.0385 61.4366 6.55192 57.7707 6.94814 57.0851C7.71301 55.7379 10.3143 47.9928 11.5753 46.4044C13.6976 43.7171 23.2895 43.7756 24.8261 45.7154C27.6686 49.364 28.2439 55.7552 29.3878 56.992C30.5316 58.2289 39.0693 61.5709 40.2235 64.7338C41.3776 67.8966 36.5335 75.0492 36.4783 76.9993C36.4232 78.9493 45.6327 100.848 45.9462 105.706C46.2597 110.564 41.4259 117.562 41.4259 117.562Z" fill="#EBEBEB"/>
<path d="M16.2774 48.7988C14.9372 49.5189 13.2628 56.5474 14.2102 56.9367C15.1577 57.3261 17.3111 57.0367 17.8003 56.1546C18.2895 55.2726 17.6659 48.0477 16.2774 48.7988Z" fill="#EBEBEB"/>
<path d="M22.3453 48.1753C23.6855 48.8988 25.36 55.9239 24.4125 56.3167C23.465 56.7094 21.3117 56.4131 20.8224 55.5346C20.3332 54.656 20.9568 47.4311 22.3453 48.1753Z" fill="#EBEBEB"/>
<path d="M64.2306 124.797H36.5851C34.225 124.797 37.6393 118.082 46.2321 115.494C54.8248 112.907 66.9456 122.278 64.2306 124.797Z" fill="#37474F"/>
<path d="M53.3892 124.797C53.4226 124.034 53.557 123.278 53.7888 122.55C54.0142 121.817 54.3278 121.114 54.7225 120.456C55.1145 119.791 55.606 119.19 56.1799 118.674C56.747 118.158 57.3985 117.744 58.1059 117.448C57.9508 117.562 57.7958 117.668 57.6373 117.775L57.4064 117.934L57.1894 118.116L56.7587 118.461L56.3625 118.857C55.8476 119.392 55.3956 119.984 55.0154 120.621C54.6337 121.261 54.3064 121.932 54.0369 122.626C53.9014 122.978 53.7808 123.333 53.6751 123.691C53.558 124.06 53.4684 124.428 53.3892 124.797Z" fill="#263238"/>
<path d="M56.6621 118.409C58.2942 118.959 59.8395 119.738 61.2513 120.724C61.9642 121.214 62.6115 121.793 63.1773 122.447C63.455 122.783 63.6953 123.148 63.8939 123.536C64.0896 123.925 64.2067 124.349 64.2385 124.783C64.1473 124.369 63.9828 123.975 63.7527 123.618C63.5333 123.26 63.2757 122.926 62.9843 122.623C62.3974 122.018 61.7523 121.472 61.0584 120.993C60.3693 120.497 59.6458 120.056 58.9154 119.615C58.5502 119.398 58.1781 119.191 57.8025 118.988C57.427 118.785 57.0411 118.605 56.6621 118.409Z" fill="#263238"/>
<path d="M37.3261 44.3855C31.9514 47.6483 28.9953 54.4356 28.9953 54.4356C28.9953 54.4356 23.1106 60.5787 23.338 64.7338C23.3801 65.9071 23.7058 67.0528 24.2872 68.0728C24.8686 69.0928 25.6884 69.9568 26.6765 70.5909L26.7833 68.3445C26.7833 68.3445 27.5103 71.4454 31.8928 73.678C36.2753 75.9106 42.7733 75.9657 46.3633 75.1216C48.4916 74.6314 50.4563 73.5974 52.0654 72.1207L50.1119 74.9493C50.1119 74.9493 54.6667 75.883 58.5082 71.7279C62.3498 67.5728 56.3204 58.8078 56.0241 57.1643C55.7278 55.5209 57.5229 44.482 45.6708 43.5931C45.6743 43.6034 41.023 42.146 37.3261 44.3855Z" fill="#263238"/>
<path d="M25.0963 69.9224C23.9559 69.0025 23.2048 67.4349 22.85 66.0361C22.4513 64.5695 22.5568 63.0116 23.1497 61.6122C23.8905 59.9309 25.1894 58.6113 26.4538 57.3193C27.7183 56.0273 29.1653 54.7422 30.447 53.3847C30.5193 53.3089 30.4056 53.2055 30.3264 53.2607C29.0253 54.1974 27.7794 55.2085 26.5951 56.2891C25.4154 57.2568 24.3538 58.36 23.4322 59.576C22.5766 60.6947 22.0589 62.0349 21.9404 63.4383C21.898 64.5915 22.1344 65.7379 22.6295 66.7803C23.2152 68.0275 24.1213 68.9577 24.9895 70.0017C25.0688 70.0672 25.1618 69.9741 25.0963 69.9224Z" fill="#263238"/>
<path d="M60.6686 67.0283C60.2689 62.7078 57.2921 59.3107 55.9519 55.3141C55.2249 53.1435 54.8149 50.8351 53.671 48.8299C53.64 48.7782 53.547 48.8299 53.578 48.885C54.4841 50.6628 54.7839 52.6095 55.3007 54.5182C55.8664 56.4262 56.6213 58.2728 57.554 60.0308C59.1561 63.2901 61.0889 67.1455 59.6522 70.8148C58.9907 72.5065 57.4885 74.1947 55.5591 74.3084C55.4867 74.3084 55.5005 74.4359 55.5763 74.4221C56.3529 74.3093 57.0984 74.0394 57.7671 73.6289C58.4359 73.2184 59.014 72.6758 59.4661 72.0344C60.4589 70.566 60.8861 68.7875 60.6686 67.0283Z" fill="#263238"/>
<path d="M60.5761 68.1585C61.0637 66.676 61.0806 65.0789 60.6243 63.5865C60.1489 62.1119 59.1359 60.8853 58.0989 59.7621C56.9033 58.4667 55.6182 57.2022 55.0773 55.483C55.0532 55.4106 54.9464 55.4554 54.967 55.5243C55.8043 58.353 58.2574 60.1687 59.601 62.701C61.1377 65.5986 60.2901 69.0749 58.1884 71.4488C56.8564 72.887 55.2038 73.9907 53.3649 74.6702C53.3585 74.6702 53.3524 74.6727 53.3479 74.6773C53.3434 74.6818 53.3408 74.6879 53.3408 74.6943C53.3408 74.7007 53.3434 74.7069 53.3479 74.7114C53.3524 74.7159 53.3585 74.7184 53.3649 74.7184C56.5174 73.5849 59.5494 71.4453 60.5761 68.1585Z" fill="#263238"/>
<path d="M36.9503 77.4609C39.6067 89.0305 44.9849 103.677 49.14 106.629C52.4889 109.014 73.7089 115.673 74.6874 115.78C77.1164 116.025 82.4567 97.0375 79.9416 96.3415C76.7719 95.4629 57.5192 94.3777 56.6613 93.4957C55.8034 92.6136 50.2908 85.151 44.0822 76.5514C39.7997 70.5909 35.3035 70.267 36.9503 77.4609Z" fill="#F7A9A0"/>
<path d="M69.2476 114.151C69.568 114.316 74.1331 116.611 76.9549 117.427C79.06 118.037 85.1652 119.632 86.0678 117.382C86.6846 115.846 83.2048 114.485 80.7654 113.468C79.4803 112.934 77.8954 111.587 78.2744 110.76C78.9359 109.317 82.2469 110.76 84.421 112.032C88.6312 114.478 94.2368 118.878 96.8243 116.745C97.7924 115.935 96.6658 114.468 95.0154 113.027C97.6925 114.705 100.552 116.083 101.665 115.229C102.302 114.743 102.333 114.075 101.979 113.313C102.805 113.582 103.536 113.53 104.046 112.993C104.914 112.08 104.49 110.736 103.539 109.358C103.703 109.34 103.859 109.284 103.997 109.193C104.134 109.103 104.248 108.981 104.328 108.838C106.172 106.026 96.9448 97.9574 93.7544 97.1994C84.3658 94.9702 74.3777 95.7833 74.3777 95.7833C70.674 98.7291 69.2407 114.144 69.2476 114.151Z" fill="#F7A9A0"/>
<path d="M83.0542 105.51C85.2898 105.859 87.4252 106.681 89.3179 107.921C91.6986 109.493 93.2766 111.332 95.2749 113.183C95.3266 113.234 95.2508 113.317 95.1991 113.269C94.2482 112.387 90.3067 109.079 89.2868 108.325C87.445 106.938 85.311 105.989 83.0473 105.551C83.0418 105.55 83.0369 105.547 83.0337 105.543C83.0305 105.538 83.0292 105.532 83.0301 105.527C83.031 105.521 83.034 105.517 83.0386 105.513C83.0431 105.51 83.0487 105.509 83.0542 105.51Z" fill="#263238"/>
<path d="M84.8201 101.523C87.287 102.213 89.8159 102.881 92.107 104.049C94.6118 105.327 96.586 107.408 98.5016 109.413C99.6616 110.617 100.793 111.846 101.895 113.1C101.944 113.152 101.871 113.234 101.823 113.183C99.866 111.115 97.847 109.104 95.766 107.15C93.8441 105.327 91.5807 103.902 89.1061 102.957C87.6935 102.419 86.243 101.989 84.7925 101.579C84.765 101.579 84.7753 101.517 84.8201 101.523Z" fill="#263238"/>
<path d="M87.4395 98.04C89.8512 98.5327 91.9185 98.9531 94.0511 100.238C96.8626 101.94 99.5637 104.807 100.528 105.82C101.579 106.943 102.596 108.1 103.588 109.265C103.629 109.313 103.547 109.386 103.505 109.337C101.225 106.771 98.7821 104.354 96.1907 102.102C94.9739 101.009 93.5941 100.111 92.1011 99.4423C90.5882 98.8506 89.0275 98.3896 87.436 98.0641L87.4395 98.04Z" fill="#263238"/>
<path d="M56.5314 91.7937L40.3381 91.1046C40.3381 91.1046 37.3958 83.0769 36.314 75.945C35.2321 68.8131 41.3063 71.3765 47.3184 79.0459C53.3306 86.7152 56.5314 91.7937 56.5314 91.7937Z" fill="#37474F"/>
<path d="M46.3807 117.806L45.3987 101.365C45.3987 101.365 49.8226 96.4725 48.8441 92.0624C48.348 89.8229 40.7165 72.8132 39.9688 72.1138C36.961 69.3127 31.8895 70.429 29.805 72.0035C18.2734 80.7203 10.1458 99.4252 6.24219 117.827L46.3807 117.806Z" fill="#228276"/>
<path d="M46.3807 117.806L45.3987 101.365C45.3987 101.365 49.8226 96.4725 48.8441 92.0624C48.348 89.8229 40.7165 72.8132 39.9688 72.1138C36.961 69.3127 31.8895 70.429 29.805 72.0035C18.2734 80.7203 10.1458 99.4252 6.24219 117.827L46.3807 117.806Z" fill="#228276"/>
<path d="M45.3987 101.365L46.3807 117.806H6.24219C10.1423 99.4182 18.27 80.7133 29.805 71.9828C30.2562 71.651 30.7469 71.3767 31.2659 71.1662C33.7258 70.1326 37.5295 69.8191 39.9688 72.093C40.7165 72.7821 48.348 89.8022 48.8407 92.0417C49.8226 96.4724 45.3987 101.365 45.3987 101.365Z" fill="#228276"/>
<g opacity="0.1">
<path d="M39.1804 71.4901H30.6118C30.8247 71.3758 31.0432 71.2723 31.2664 71.18C31.6897 71.0026 32.1249 70.8553 32.5688 70.739H37.5749C38.143 70.9118 38.6837 71.1647 39.1804 71.4901Z" fill="black"/>
<path d="M40.6206 73.2265H28.2793C28.5825 72.9681 28.8857 72.7131 29.1958 72.4719H40.2209C40.3243 72.6614 40.4621 72.9164 40.6206 73.2265Z" fill="black"/>
<path d="M41.4818 74.9596H26.3911C26.6495 74.7012 26.9148 74.4497 27.1801 74.2051H41.1166L41.4818 74.9596Z" fill="black"/>
<path d="M42.3052 76.6927H24.7339C24.9647 76.4378 25.1956 76.1863 25.423 75.9417H41.9607L42.3052 76.6927Z" fill="black"/>
<path d="M43.1087 78.4256H23.2324C23.4391 78.1707 23.6493 77.9226 23.8629 77.6746H42.7642C42.8744 77.9192 42.9916 78.1707 43.1087 78.4256Z" fill="black"/>
<path d="M43.9013 80.162H21.8682L22.447 79.4075H43.5567L43.9013 80.162Z" fill="black"/>
<path d="M44.6766 81.8952H20.6211C20.7968 81.6402 20.9656 81.3887 21.1517 81.1406H44.339C44.4527 81.3921 44.5664 81.6436 44.6766 81.8952Z" fill="black"/>
<path d="M45.4405 83.628H19.459C19.6209 83.3765 19.7863 83.125 19.9517 82.877H45.1028C45.22 83.1285 45.3337 83.38 45.4405 83.628Z" fill="black"/>
<path d="M46.1958 85.3612H18.3779C18.5295 85.1097 18.6846 84.8582 18.8396 84.6101H45.8685C45.9822 84.8616 46.089 85.1131 46.1958 85.3612Z" fill="black"/>
<path d="M46.9235 87.108H17.3657C17.5104 86.8565 17.6517 86.605 17.7998 86.3569H46.6169C46.7271 86.5981 46.8339 86.8496 46.9235 87.108Z" fill="black"/>
<path d="M47.6596 88.8307H16.4102C16.548 88.5758 16.6823 88.3242 16.8202 88.0762H47.3461L47.6596 88.8307Z" fill="black"/>
<path d="M48.343 90.5533H15.519C15.6431 90.3018 15.7706 90.0503 15.898 89.8022H48.0536C48.1604 90.0813 48.2569 90.3328 48.343 90.5533Z" fill="black"/>
<path d="M48.8863 92.2965H14.6704C14.7876 92.045 14.9081 91.7935 15.0149 91.5454H48.6761C48.7343 91.7127 48.7838 91.8829 48.8243 92.0553C48.8587 92.1346 48.876 92.2173 48.8863 92.2965Z" fill="black"/>
<path d="M48.9892 93.2786C48.9955 93.5293 48.9863 93.7801 48.9617 94.0297H13.8672L14.2117 93.2786H48.9892Z" fill="black"/>
<path d="M48.8003 95.0117C48.7487 95.2666 48.6831 95.5185 48.6039 95.7663H13.1167L13.4406 95.0117H48.8003Z" fill="black"/>
<path d="M48.2628 96.7549C48.1594 97.0133 48.0492 97.2613 47.9183 97.506H12.3862C12.4861 97.2545 12.5895 97.0029 12.6929 96.7549H48.2628Z" fill="black"/>
<path d="M47.4232 98.4778C47.275 98.7431 47.1269 98.9946 46.9753 99.2289H11.7017C11.7981 98.9774 11.8946 98.7293 11.9945 98.4778H47.4232Z" fill="black"/>
<path d="M46.3086 100.2C46.0881 100.507 45.8883 100.762 45.7367 100.951H11.0522C11.1418 100.7 11.2314 100.448 11.3244 100.2H46.3086Z" fill="black"/>
<path d="M45.4789 102.702H10.4292C10.5188 102.447 10.6049 102.195 10.6979 101.947H45.4341L45.4789 102.702Z" fill="black"/>
<path d="M45.5825 104.435H9.84375C9.92644 104.183 10.0091 103.932 10.0953 103.684H45.5446L45.5825 104.435Z" fill="black"/>
<path d="M45.6864 106.168H9.28955C9.36535 105.916 9.44459 105.665 9.52728 105.417H45.6416L45.6864 106.168Z" fill="black"/>
<path d="M45.7896 107.901H8.75879C8.83114 107.649 8.90694 107.401 8.98618 107.15H45.7448L45.7896 107.901Z" fill="black"/>
<path d="M45.8895 109.637H8.25928C8.32818 109.386 8.39709 109.134 8.47289 108.883H45.8482L45.8895 109.637Z" fill="black"/>
<path d="M45.9962 111.37H7.78369C7.84915 111.119 7.91461 110.871 7.98697 110.619H45.9514L45.9962 111.37Z" fill="black"/>
<path d="M46.0992 113.103H7.33545C7.39402 112.852 7.45948 112.604 7.52495 112.352H46.0544L46.0992 113.103Z" fill="black"/>
<path d="M46.2068 114.836H6.92969C6.98826 114.585 7.04683 114.337 7.10885 114.085H46.1586L46.2068 114.836Z" fill="black"/>
<path d="M46.3091 116.573H6.51172C6.56684 116.321 6.62197 116.07 6.68054 115.818H46.2643L46.3091 116.573Z" fill="black"/>
<path d="M46.3816 117.806H6.24316C6.24316 117.724 6.27762 117.637 6.29829 117.555H46.3679L46.3816 117.806Z" fill="black"/>
</g>
<path d="M35.0212 70.0258C32.4407 70.3703 32.5337 71.8691 34.0875 74.584C35.6414 77.299 37.9636 78.4256 39.1936 78.4256C40.0721 78.4256 41.7879 76.417 41.3607 74.205C40.7922 71.2593 37.8947 69.6606 35.0212 70.0258Z" fill="#37474F"/>
<path d="M41.6609 72.5237C41.6609 72.5237 40.6583 77.4127 39.0941 77.4127C36.1793 77.4127 33.5815 71.9001 33.5987 71.1352C33.5987 70.9423 35.2456 66.5632 36.5273 63.1627C37.3507 60.9749 38.0295 59.1936 38.0295 59.1936L44.7893 66.4358L41.8745 72.1068L41.6609 72.5237Z" fill="#F7A9A0"/>
<path d="M44.7898 66.4359L41.875 72.1069C40.404 71.0737 39.1673 69.7419 38.2459 68.1983C37.3246 66.6547 36.7391 64.9342 36.5278 63.149C37.3513 60.9612 38.03 59.1799 38.03 59.1799L38.8982 60.0482L44.7898 66.4359Z" fill="#263238"/>
<path d="M57.2517 61.5243C57.7477 58.9631 56.328 56.5341 54.0806 56.0988C51.8333 55.6636 49.6094 57.3871 49.1134 59.9483C48.6174 62.5094 50.0372 64.9385 52.2845 65.3737C54.5318 65.8089 56.7558 64.0855 57.2517 61.5243Z" fill="#228276"/>
<path d="M47.7584 59.8483C47.2072 62.6976 48.792 65.3987 51.2865 65.8845C53.7809 66.3703 56.2581 64.4513 56.799 61.602C57.34 58.7526 55.7654 56.0515 53.2744 55.5657C50.7834 55.0799 48.2993 56.9989 47.7584 59.8483Z" fill="#C7C7C7"/>
<path d="M55.8079 59.6622C53.937 70.6873 47.1152 70.8217 44.7379 70.4186C42.5777 70.0465 35.2701 68.5167 35.9901 57.3469C36.7102 46.177 42.4364 43.5654 47.4184 44.1442C52.4004 44.7231 57.6787 48.6267 55.8079 59.6622Z" fill="#F7A9A0"/>
<path d="M54.5712 57.6261C54.3148 57.6519 54.057 57.6622 53.7994 57.6571C53.5296 57.7075 53.2506 57.6663 53.007 57.5399C52.9377 57.4856 52.8882 57.4098 52.8664 57.3244C52.8446 57.2391 52.8516 57.1489 52.8864 57.0679C52.9795 56.9183 53.1111 56.7964 53.2675 56.7152C53.4239 56.634 53.5993 56.5963 53.7753 56.6062C54.1327 56.5695 54.4911 56.6665 54.7813 56.8784C54.8451 56.9306 54.8923 57.0003 54.917 57.0789C54.9418 57.1575 54.9431 57.2417 54.9208 57.321C54.8985 57.4003 54.8536 57.4715 54.7915 57.5257C54.7294 57.5798 54.6528 57.6147 54.5712 57.6261Z" fill="#263238"/>
<path d="M46.5491 55.8621C46.7661 56.0103 46.9935 56.1136 47.2382 56.2411C47.4566 56.4079 47.7248 56.4965 47.9996 56.4926C48.0856 56.4758 48.1635 56.4308 48.2209 56.3646C48.2784 56.2984 48.312 56.2149 48.3166 56.1274C48.3019 55.9524 48.2405 55.7846 48.1386 55.6415C48.0368 55.4985 47.8983 55.3854 47.7377 55.3143C47.4321 55.1162 47.0633 55.0399 46.7041 55.1007C46.6234 55.1179 46.5495 55.1583 46.4914 55.2169C46.4333 55.2755 46.3936 55.3498 46.3772 55.4306C46.3607 55.5115 46.3682 55.5954 46.3987 55.672C46.4293 55.7487 46.4815 55.8148 46.5491 55.8621Z" fill="#263238"/>
<path opacity="0.8" d="M46.9939 58.3565C45.5675 57.9293 44.8199 60.8165 46.1429 61.2092C47.4659 61.602 48.1895 58.7148 46.9939 58.3565Z" fill="#E07F69"/>
<path d="M47.5734 59.1592C47.5734 59.1316 47.508 59.1833 47.5045 59.2143C47.3633 59.962 47.0807 60.7992 46.3538 60.8991C46.3296 60.8991 46.3228 60.9404 46.3538 60.9404C47.1979 61.0059 47.5631 59.8896 47.5734 59.1592Z" fill="#263238"/>
<path d="M47.0801 58.2357C45.9018 57.8912 45.2851 60.2651 46.3738 60.5924C47.4625 60.9197 48.0655 58.532 47.0801 58.2357Z" fill="#263238"/>
<path d="M46.5779 58.2429C46.3332 58.3221 46.0679 58.5081 45.8095 58.4668C45.5511 58.4255 45.3582 58.1223 45.2307 57.826C45.2307 57.795 45.1928 57.826 45.1825 57.8432C45.0584 58.298 45.1136 58.8113 45.5821 59.0043C46.0507 59.1972 46.44 58.863 46.6709 58.4323C46.7191 58.3531 46.6778 58.2084 46.5779 58.2429Z" fill="#263238"/>
<path opacity="0.8" d="M52.9167 59.4556C51.6694 59.242 51.2595 62.1947 52.4171 62.3911C53.5747 62.5875 53.9641 59.6348 52.9167 59.4556Z" fill="#E07F69"/>
<path d="M51.9667 60.0032C51.9667 59.9757 52.015 60.0515 52.0046 60.0825C51.7841 60.8129 51.6601 61.6846 52.2561 62.1084C52.2734 62.1084 52.2561 62.1566 52.2561 62.1463C51.4568 61.8155 51.6394 60.6579 51.9667 60.0032Z" fill="#263238"/>
<path d="M52.8277 59.4072C54.037 59.6346 53.4961 62.036 52.3763 61.819C51.2566 61.6019 51.8147 59.2177 52.8277 59.4072Z" fill="#263238"/>
<path d="M53.292 59.6796C53.454 59.8484 53.5883 60.124 53.8123 60.1895C54.0362 60.2549 54.3222 60.0517 54.5461 59.8449C54.5703 59.8243 54.584 59.8449 54.5806 59.8794C54.4876 60.3411 54.2361 60.7855 53.7675 60.7752C53.2989 60.7648 53.1404 60.3032 53.137 59.8208C53.1232 59.7243 53.2266 59.6106 53.292 59.6796Z" fill="#263238"/>
<path d="M46.1541 64.8923C46.2747 65.1163 46.3781 65.4057 46.6331 65.5091C46.9058 65.5889 47.1925 65.6088 47.4737 65.5676C47.4795 65.5671 47.4854 65.5684 47.4904 65.5714C47.4954 65.5744 47.4993 65.5789 47.5016 65.5842C47.5039 65.5896 47.5045 65.5955 47.5032 65.6012C47.5019 65.6069 47.4988 65.612 47.4944 65.6159C47.3472 65.7239 47.174 65.791 46.9925 65.8104C46.8109 65.8297 46.6275 65.8007 46.4608 65.7261C46.3249 65.6411 46.2169 65.5181 46.1502 65.3724C46.0834 65.2266 46.0608 65.0645 46.0852 64.9061C46.0749 64.8579 46.1369 64.8613 46.1541 64.8923Z" fill="#263238"/>
<path d="M49.9063 62.9904C49.9063 62.9904 49.7857 64.1308 49.6582 64.6545C49.6582 64.7027 49.5135 64.6924 49.3344 64.6545C49.3344 64.6545 49.3344 64.6545 49.3137 64.6545C48.8465 64.6264 48.396 64.47 48.0119 64.2026C47.6277 63.9351 47.3248 63.567 47.1362 63.1385C47.1289 63.1257 47.127 63.1106 47.1309 63.0964C47.1347 63.0821 47.1441 63.0701 47.1569 63.0627C47.1697 63.0554 47.1849 63.0535 47.1991 63.0574C47.2133 63.0613 47.2254 63.0706 47.2327 63.0834C47.7839 63.7027 48.5215 64.126 49.3344 64.2893C49.4067 64.1549 49.4756 62.3254 49.5583 62.3392C49.9537 62.476 50.3291 62.6649 50.6746 62.9008C50.995 60.527 50.9296 58.1221 51.2844 55.7655C51.2844 55.7463 51.2921 55.7279 51.3056 55.7143C51.3192 55.7007 51.3376 55.6931 51.3568 55.6931C51.376 55.6931 51.3944 55.7007 51.408 55.7143C51.4215 55.7279 51.4292 55.7463 51.4292 55.7655C51.6738 58.2806 51.3671 61.0196 51.0846 63.4796C51.0571 63.7794 50.0924 63.1213 49.9063 62.9904Z" fill="#263238"/>
<path d="M49.0584 64.2895C48.6989 64.6121 48.2621 64.8364 47.7905 64.9406C47.5317 64.9873 47.2647 64.9536 47.0256 64.8442C46.5054 64.5995 46.5846 64.0931 46.7672 63.6831C46.8641 63.4652 46.988 63.2603 47.1359 63.0732C47.6309 63.673 48.3044 64.0991 49.0584 64.2895Z" fill="#263238"/>
<path d="M47.7905 64.9407C47.5317 64.9873 47.2647 64.9537 47.0256 64.8442C46.5054 64.5996 46.5846 64.0931 46.7672 63.6831C47.3391 63.8554 47.8456 64.3687 47.7905 64.9407Z" fill="#DD6A57"/>
<path d="M36.3935 56.4168C37.5787 56.7027 41.5856 54.4254 43.391 48.837C43.391 48.837 41.4203 53.7466 40.8173 54.3702C40.2144 54.9938 43.0603 53.0851 44.5797 48.5958C44.5797 48.5958 46.5366 51.1729 48.4936 52.4271C50.4506 53.6812 51.7667 54.0602 51.9665 53.9499C52.1663 53.8397 49.3205 51.8827 48.7692 50.6492C48.7692 50.6492 53.6547 55.0317 56.2181 56.0309C56.5144 56.148 56.9898 51.2591 53.7409 47.3727C50.4919 43.4863 44.9862 43.1418 42.7467 44.2719C42.7467 44.2719 40.6313 43.9273 37.5098 46.2667C34.3883 48.6062 35.1187 56.0998 36.3935 56.4168Z" fill="#263238"/>
<path d="M37.6202 58.5115C37.6202 58.5115 36.1353 54.5149 34.3816 54.9593C32.6279 55.4038 33.1309 60.7647 34.7571 61.9052C34.9555 62.066 35.1845 62.1849 35.4301 62.2549C35.6758 62.3248 35.9331 62.3442 36.1864 62.312C36.4398 62.2798 36.6841 62.1967 36.9044 62.0675C37.1248 61.9384 37.3167 61.7659 37.4686 61.5606L37.6202 58.5115Z" fill="#F7A9A0"/>
<path d="M34.5463 56.4752C34.5433 56.4736 34.5401 56.4726 34.5368 56.4723C34.5335 56.472 34.5301 56.4723 34.5269 56.4732C34.5237 56.4742 34.5207 56.4758 34.5181 56.4779C34.5156 56.48 34.5134 56.4826 34.5118 56.4855C34.5102 56.4885 34.5093 56.4917 34.5089 56.495C34.5086 56.4984 34.5089 56.5017 34.5099 56.5049C34.5108 56.5081 34.5124 56.5111 34.5145 56.5137C34.5166 56.5163 34.5192 56.5184 34.5222 56.52C35.6522 57.3607 36.014 58.7044 36.1622 60.0412C35.9072 59.4761 35.4731 59.0868 34.722 59.3693C34.6841 59.3693 34.7013 59.4451 34.722 59.4451C34.9622 59.4329 35.2004 59.4952 35.4039 59.6235C35.6074 59.7518 35.7663 59.9397 35.859 60.1617C36.0154 60.534 36.1309 60.9222 36.2035 61.3194C36.2311 61.4469 36.4516 61.44 36.4412 61.2987C36.4429 61.2884 36.4429 61.278 36.4412 61.2677C36.896 59.6656 36.2414 57.0885 34.5463 56.4752Z" fill="#263238"/>
<path d="M35.8973 61.6744C35.8755 61.7479 35.8324 61.8134 35.7735 61.8626C35.7146 61.9117 35.6425 61.9424 35.5662 61.9507C35.4899 61.959 35.4129 61.9446 35.3448 61.9092C35.2767 61.8739 35.2206 61.8192 35.1834 61.7521C35.1463 61.685 35.1298 61.6084 35.1361 61.5319C35.1423 61.4554 35.171 61.3825 35.2186 61.3223C35.2662 61.2621 35.3305 61.2173 35.4034 61.1935C35.4763 61.1697 35.5547 61.168 35.6286 61.1886C35.7286 61.2174 35.8131 61.2848 35.8635 61.3759C35.9139 61.467 35.9261 61.5743 35.8973 61.6744Z" fill="white"/>
<path d="M35.0121 60.7166C35.0037 60.748 34.9892 60.7774 34.9694 60.8031C34.9495 60.8288 34.9248 60.8502 34.8966 60.8663C34.8684 60.8823 34.8372 60.8926 34.805 60.8964C34.7728 60.9003 34.7401 60.8978 34.7089 60.8889C34.675 60.8826 34.6428 60.8692 34.6144 60.8498C34.5859 60.8303 34.5618 60.8051 34.5436 60.7758C34.5255 60.7466 34.5136 60.7138 34.5088 60.6797C34.504 60.6455 34.5063 60.6108 34.5157 60.5776C34.5251 60.5444 34.5413 60.5135 34.5632 60.487C34.5852 60.4604 34.6125 60.4387 34.6433 60.4233C34.6741 60.4078 34.7078 60.399 34.7422 60.3973C34.7767 60.3956 34.8111 60.4011 34.8433 60.4134C34.8743 60.4222 34.9033 60.437 34.9286 60.4569C34.954 60.4769 34.9751 60.5017 34.9908 60.5299C35.0064 60.5581 35.0164 60.5891 35.0201 60.6211C35.0237 60.6532 35.021 60.6856 35.0121 60.7166Z" fill="white"/>
<path d="M33.9298 57.1334L33.1477 57.1024C33.1063 57.1006 33.0672 57.0826 33.0389 57.0524C33.0105 57.0221 32.9952 56.9819 32.9961 56.9405C32.9979 56.899 33.0159 56.8599 33.0462 56.8316C33.0764 56.8033 33.1166 56.7879 33.1581 56.7889L33.9402 56.8199C33.9819 56.8225 34.021 56.8412 34.0492 56.872C34.0775 56.9029 34.0927 56.9434 34.0918 56.9852C34.0909 57.0056 34.086 57.0256 34.0774 57.0441C34.0687 57.0625 34.0566 57.0791 34.0415 57.0929C34.0265 57.1067 34.0089 57.1173 33.9897 57.1243C33.9705 57.1312 33.9502 57.1343 33.9298 57.1334Z" fill="#228276"/>
<path d="M33.9666 56.6166L33.1949 56.4753C33.1747 56.4716 33.1554 56.4639 33.1382 56.4527C33.121 56.4414 33.1062 56.4269 33.0947 56.4099C33.0831 56.3929 33.0751 56.3738 33.071 56.3537C33.0669 56.3336 33.0668 56.3128 33.0708 56.2927C33.0741 56.2723 33.0815 56.2527 33.0926 56.2353C33.1037 56.2178 33.1182 56.2029 33.1353 56.1912C33.1524 56.1796 33.1717 56.1716 33.1921 56.1677C33.2124 56.1639 33.2332 56.1642 33.2534 56.1687L34.0217 56.3099C34.0623 56.3183 34.0981 56.3419 34.1219 56.3758C34.1456 56.4098 34.1554 56.4516 34.1492 56.4925C34.1455 56.5127 34.1378 56.532 34.1266 56.5492C34.1154 56.5664 34.1008 56.5812 34.0839 56.5927C34.0669 56.6043 34.0478 56.6123 34.0276 56.6164C34.0075 56.6205 33.9868 56.6205 33.9666 56.6166Z" fill="#228276"/>
<path d="M36.0063 55.3278C36.0063 55.3278 36.4611 49.6361 38.5662 46.773C40.9125 43.5825 48.6129 42.3594 53.2711 46.8453C53.2711 46.8453 45.4122 43.1312 40.7575 47.3483C38.7971 49.1227 37.8668 55.755 37.8668 55.755L36.0063 55.3278Z" fill="#C7C7C7"/>
<path d="M40.8656 58.9491C40.4729 61.826 38.1093 63.8759 35.5873 63.5314C33.0653 63.1869 31.3392 60.5753 31.732 57.7018C32.1247 54.8284 34.4883 52.775 37.0137 53.1195C39.5392 53.4641 41.2618 56.0756 40.8656 58.9491Z" fill="#C7C7C7"/>
<path d="M39.5583 58.6045C39.2138 61.1885 37.0776 63.0318 34.8106 62.7217C32.5435 62.4116 30.9931 60.0653 31.3652 57.4813C31.7373 54.8973 33.8424 53.054 36.1095 53.3641C38.3765 53.6742 39.9097 56.0205 39.5583 58.6045Z" fill="#228276"/>
<path d="M43.5835 67.4695L40.1243 65.9191L37.3818 62.3945L37.9228 61.9707L40.5619 65.3609L43.8626 66.8424L43.5835 67.4695Z" fill="#C7C7C7"/>
<path d="M43.2183 66.9078C43.5628 65.9018 46.4087 66.3187 45.8712 67.845C45.3338 69.3713 42.8634 67.9208 43.2183 66.9078Z" fill="#37474F"/>
<path d="M26.4836 74.4221C19.8065 81.5747 1.55298 107.498 7.01732 112.094C15.9994 119.674 25.9393 121.007 32.0169 121.82C34.6388 122.165 40.1169 105.076 38.3942 102.833C36.6716 100.59 25.0745 100.969 24.8988 99.246C24.8023 98.2675 29.0332 90.1743 31.9032 79.7969C35.2073 67.8139 29.4328 71.2593 26.4836 74.4221Z" fill="#F7A9A0"/>
<path d="M31.1557 101.096C31.1557 101.096 39.1799 100.51 44.4445 100.373C47.3834 100.297 52.4308 100.614 54.6152 101.547C57.8814 102.926 70.6568 110.85 68.8032 113.989C67.1287 116.831 57.0166 108.638 57.0166 108.638C57.0166 108.638 67.9522 116.001 65.2855 119.05C62.6188 122.099 52.448 111.329 52.448 111.329C52.448 111.329 63.5283 119.15 60.3 121.858C57.8642 123.908 48.0793 114.671 48.0793 114.671C48.0793 114.671 57.5437 121.455 55.1251 123.67C52.4549 126.12 42.8906 118.158 42.8906 118.158C35.8 122.757 30.539 122.047 26.8593 121.096C25.9704 120.872 31.1557 101.096 31.1557 101.096Z" fill="#F7A9A0"/>
<path d="M53.3988 105.851C54.7149 106.671 56.0517 107.487 57.292 108.421C58.5324 109.355 59.7348 110.33 60.8821 111.374C63.6935 113.934 65.051 115.977 64.9545 115.853C62.6427 113.096 58.2636 109.679 57.0302 108.745C55.7967 107.811 54.6184 106.822 53.3712 105.889C53.3299 105.871 53.3678 105.83 53.3988 105.851Z" fill="#263238"/>
<path d="M49.9504 110.261C51.587 111.377 53.2511 112.428 54.836 113.62C56.4208 114.812 57.8059 116.066 59.3149 117.355C59.4286 117.455 59.3391 117.482 59.2185 117.389C57.675 116.159 56.1555 115.14 54.5982 113.944C53.0409 112.748 51.5284 111.46 49.9367 110.313C49.8988 110.282 49.9263 110.244 49.9504 110.261Z" fill="#263238"/>
<path d="M46.3112 113.513C48.8952 115.095 51.1864 117.148 53.388 119.219C53.4948 119.322 53.388 119.346 53.2571 119.246C50.9383 117.307 49.1226 115.766 46.2561 113.603C46.2113 113.568 46.2561 113.482 46.3112 113.513Z" fill="#263238"/>
<path d="M58.3336 103.019C56.6384 101.985 54.8331 101.079 52.8554 100.734C51.6799 100.562 50.4946 100.466 49.3067 100.445C48.0629 100.393 46.8157 100.38 45.5719 100.331C45.5375 100.331 45.5409 100.383 45.5719 100.386C46.6055 100.473 47.6667 100.597 48.7175 100.676C49.7684 100.755 50.74 100.814 51.7426 100.945C52.7211 101.065 53.6828 101.296 54.6091 101.634C55.4869 101.969 56.3342 102.379 57.1415 102.86C58.8366 103.842 66.8643 109.406 68.5594 112.163C68.839 112.591 68.9438 113.11 68.8522 113.613C68.8112 113.836 68.7069 114.042 68.5516 114.207C68.3964 114.372 68.197 114.489 67.9771 114.543C67.9082 114.543 67.9771 114.602 68.0495 114.592C68.7764 114.495 69.0831 113.847 69.183 113.162C69.5275 110.44 60.1355 104.128 58.3336 103.019Z" fill="#263238"/>
<path d="M12.8125 91.2906L29.0057 90.7531C29.0057 90.7531 32.0238 82.753 33.1711 75.6349C34.3185 68.5168 28.4889 70.6908 22.4044 78.3119C16.3199 85.9331 12.8125 91.2906 12.8125 91.2906Z" fill="#37474F"/>
<path d="M68.8516 118.974H65.8369V120.945H68.8516V118.974Z" fill="#455A64"/>
<path d="M72.7627 118.843H69.748V120.814H72.7627V118.843Z" fill="#455A64"/>
<path d="M76.6739 118.712H73.6592V120.683H76.6739V118.712Z" fill="#455A64"/>
<path d="M80.5835 118.581H77.5688V120.552H80.5835V118.581Z" fill="#455A64"/>
<path d="M84.4971 118.454H81.4824V120.424H84.4971V118.454Z" fill="#455A64"/>
<path d="M88.4082 118.323H85.3936V120.294H88.4082V118.323Z" fill="#455A64"/>
<path d="M92.3179 118.192H89.3032V120.163H92.3179V118.192Z" fill="#455A64"/>
<path d="M96.233 118.061H93.2183V120.032H96.233V118.061Z" fill="#455A64"/>
<path d="M100.143 117.933H97.1279V119.904H100.143V117.933Z" fill="#455A64"/>
<path d="M100.884 122.075H65.0972V119.68L100.884 118.681V122.075Z" fill="#37474F"/>
<path d="M134.889 114.299H75.9048L85.2831 70.384H144.268L134.889 114.299Z" fill="#455A64"/>
<path d="M137.071 114.299H78.0859L87.4677 70.384H146.452L137.071 114.299Z" fill="#37474F"/>
<path d="M116.005 92.2628C117.606 90.7828 117.881 88.4751 116.618 87.1083C115.355 85.7416 113.033 85.8333 111.431 87.3133C109.83 88.7932 109.555 91.1009 110.818 92.4677C112.081 93.8344 114.403 93.7427 116.005 92.2628Z" fill="#263238"/>
<path d="M120.388 125.768H91.3784V123.515L120.388 122.574V125.768Z" fill="#455A64"/>
<path d="M128.274 125.765H112.701L103.319 101.158H118.896L128.274 125.765Z" fill="#455A64"/>
<path d="M130.838 125.765H115.265L105.883 101.158H121.459L130.838 125.765Z" fill="#263238"/>
<path d="M81.9275 73.4608C80.2737 72.8096 78.6372 72.124 77.0041 71.4314C75.371 70.7389 73.7482 70.0257 72.1186 69.3229C70.4889 68.62 68.8765 67.8793 67.2503 67.1247L64.8385 66.0084C64.0357 65.6226 63.233 65.2505 62.4268 64.8542C63.2536 65.1781 64.0702 65.5192 64.8936 65.8534L67.3502 66.887C68.9833 67.5761 70.6061 68.2927 72.2323 68.9956C73.8585 69.6984 75.4743 70.4392 77.0868 71.1799C78.6992 71.9207 80.3426 72.6787 81.9275 73.4608Z" fill="#263238"/>
<path d="M79.0777 86.7634C77.5686 86.8357 76.0561 86.8667 74.547 86.8943C73.038 86.9219 71.5255 86.9219 70.0164 86.9356C68.5073 86.9494 66.9948 86.9356 65.4857 86.8977L63.2187 86.8495C62.4641 86.8185 61.7096 86.8013 60.9551 86.7634C61.7096 86.7255 62.4641 86.7083 63.2187 86.6807L65.4857 86.6324C66.9948 86.6049 68.5073 86.6049 70.0164 86.5911C71.5255 86.5773 73.038 86.5911 74.547 86.6324C76.0561 86.6738 77.5858 86.6807 79.0777 86.7634Z" fill="#263238"/>
<path d="M67.3428 71.2385C68.5211 71.4797 69.6856 71.7622 70.8502 72.0482C72.0147 72.3341 73.1758 72.6373 74.3334 72.9474C75.4911 73.2575 76.6452 73.5779 77.796 73.9225L79.5187 74.4358C80.0906 74.6219 80.666 74.7804 81.2414 74.9871C80.6522 74.8699 80.0665 74.7287 79.4808 74.6012L77.734 74.1774C76.566 73.8949 75.4084 73.5883 74.2507 73.2782C73.0931 72.9681 71.932 72.6373 70.7812 72.2928C69.6305 71.9483 68.4832 71.6037 67.3428 71.2385Z" fill="#263238"/>
<path d="M66.7505 55.0659C68.2768 56.289 69.779 57.5397 71.2742 58.7938C72.7695 60.0479 74.2476 61.3261 75.736 62.5837C77.2244 63.8413 78.6887 65.1436 80.1495 66.4425L82.3339 68.3926C83.0574 69.0506 83.7844 69.7018 84.4975 70.3702C83.7327 69.7604 82.9816 69.1368 82.2236 68.5201L79.9738 66.6423C78.4785 65.3882 77.0004 64.11 75.512 62.8524C74.0237 61.5949 72.5628 60.2925 71.102 58.9936C69.6411 57.6947 68.1838 56.4096 66.7505 55.0659Z" fill="#263238"/>
<path d="M65.8369 90.3397C67.029 90.1226 68.228 89.9434 69.427 89.7712C70.626 89.5989 71.8387 89.4266 73.0274 89.2923C74.216 89.1579 75.4391 89.0063 76.6381 88.8926L78.4469 88.7203C79.0499 88.6755 79.6528 88.617 80.2592 88.5825C79.6632 88.6962 79.0637 88.7858 78.4676 88.8857L76.6691 89.1545C75.4701 89.3302 74.2574 89.4818 73.0687 89.6334C71.8801 89.7849 70.657 89.9159 69.458 90.033C68.259 90.1502 67.0462 90.2639 65.8369 90.3397Z" fill="#263238"/>
<path d="M63.835 77.7363C65.3199 77.9327 66.7945 78.1704 68.2726 78.4082C69.7507 78.6459 71.2149 78.9181 72.6895 79.173C74.1642 79.428 75.6284 79.7174 77.0927 80.0137L79.2909 80.4616C80.0213 80.6235 80.7517 80.7717 81.4821 80.944C80.7379 80.8509 80.0006 80.7338 79.2598 80.627L77.0479 80.2825C75.5699 80.0447 74.1021 79.776 72.6275 79.521C71.1529 79.2661 69.6886 78.9732 68.2244 78.6804C66.7601 78.3875 65.2958 78.074 63.835 77.7363Z" fill="#263238"/>
<path d="M77.2417 60.6165C77.8653 61.2056 78.4648 61.8154 79.0574 62.4322C79.65 63.0489 80.2288 63.6794 80.8042 64.3099C81.3796 64.9404 81.9446 65.5847 82.4959 66.2393L83.3193 67.2247C83.5846 67.5692 83.8568 67.8896 84.1152 68.2307C83.7982 67.9413 83.4985 67.6347 83.1918 67.3384L82.2961 66.4184C81.7 65.8052 81.1246 65.1712 80.5492 64.5407C79.9739 63.9102 79.4088 63.2659 78.861 62.6113C78.3132 61.9567 77.7447 61.2986 77.2417 60.6165Z" fill="#263238"/>
<path d="M99.7249 36.2786H52.3408V40.5508H99.7249V36.2786Z" fill="#EBEBEB"/>
<path d="M93.4583 36.9917H53.1992V39.903H93.4583V36.9917Z" fill="#228276"/>
<path d="M48.9697 38.6558C48.3255 39.8375 46.7819 40.878 46.7819 40.878C46.7819 40.878 45.235 39.8444 44.5976 38.6558C43.8672 37.319 44.2703 35.9546 45.3142 35.9546C46.4787 35.9546 46.7819 37.4085 46.7819 37.4085C46.7819 37.4085 47.0886 35.9546 48.2462 35.9546C49.2936 35.9546 49.6967 37.319 48.9697 38.6558Z" fill="#EBEBEB"/>
<path d="M41.8749 38.6558C41.2307 39.8375 39.6871 40.878 39.6871 40.878C39.6871 40.878 38.1436 39.8444 37.5028 38.6558C36.7758 37.319 37.1755 35.9546 38.2194 35.9546C39.3839 35.9546 39.6871 37.4085 39.6871 37.4085C39.6871 37.4085 39.9938 35.9546 41.1549 35.9546C42.1988 35.9546 42.6019 37.319 41.8749 38.6558Z" fill="#228276"/>
<path d="M34.7837 38.6558C34.1394 39.8375 32.5924 40.878 32.5924 40.878C32.5924 40.878 31.0489 39.8444 30.4081 38.6558C29.6811 37.319 30.0807 35.9546 31.1247 35.9546C32.2927 35.9546 32.5924 37.4085 32.5924 37.4085C32.5924 37.4085 32.899 35.9546 34.0601 35.9546C35.1041 35.9546 35.5106 37.319 34.7837 38.6558Z" fill="#228276"/>
<path d="M31.2562 111.808L29.7989 130.151H19.7074L18.25 111.808H31.2562Z" fill="#228276"/>
<path d="M32.1282 110.151H17.2959V112.824H32.1282V110.151Z" fill="#455A64"/>
<path d="M31.1081 110.15H18.312L19.0597 107.15H30.3604L31.1081 110.15Z" fill="#37474F"/>
<path d="M28.2554 121.141C28.2554 123.522 26.6878 125.451 24.7549 125.451C22.8221 125.451 21.251 123.522 21.251 121.141C21.251 118.76 22.8186 116.828 24.7549 116.828C26.6912 116.828 28.2554 118.757 28.2554 121.141Z" fill="white"/>
<path d="M90.7745 134.058C90.7745 134.888 86.8123 135.56 81.9268 135.56C77.0413 135.56 73.0791 134.888 73.0791 134.058C73.0791 133.228 77.0378 132.556 81.9268 132.556C86.8158 132.556 90.7745 133.228 90.7745 134.058Z" fill="#C7C7C7"/>
<path d="M83.0196 135.56C83.0196 136.39 79.0574 137.062 74.1719 137.062C69.2864 137.062 65.3242 136.39 65.3242 135.56C65.3242 134.73 69.2864 134.058 74.1719 134.058C79.0574 134.058 83.0196 134.73 83.0196 135.56Z" fill="#C7C7C7"/>
<path d="M87.436 122.226L105.776 123.684V133.775L87.436 135.233V122.226Z" fill="#228276"/>
<path d="M67.2117 135.398H52.3794V138.072H67.2117V135.398Z" fill="#455A64"/>
<path d="M66.1965 135.398H53.397L54.1446 132.394H65.4454L66.1965 135.398Z" fill="#37474F"/>
<path d="M96.7701 125.227C99.1509 125.227 101.08 126.795 101.08 128.728C101.08 130.661 99.1509 132.242 96.7701 132.242C94.3894 132.242 92.4565 130.674 92.4565 128.738C92.4565 126.802 94.3859 125.227 96.7701 125.227Z" fill="white"/>
<path d="M127.302 123.563C128.439 123.398 129.9 123.398 129.983 124.049C130.066 124.7 129.549 125.052 129.711 125.375C129.873 125.699 130.796 126.295 131.23 126.729C131.59 127.112 131.85 127.577 131.988 128.084C131.988 128.245 132.257 128.518 131.988 128.842C131.719 129.165 131.564 129.655 131.34 129.899C131.116 130.144 131.023 130.413 131.34 130.847C131.657 131.281 131.389 132.525 130.899 132.959C130.41 133.393 129.004 132.363 128.57 132.469C128.136 132.576 128.084 132.793 127.706 133.066C127.327 133.338 126.407 133.989 125.432 133.989C124.457 133.989 123.967 133.121 123.364 132.742C122.761 132.363 122.227 132.308 121.686 132.09C121.2 131.894 120.77 131.578 120.439 131.171C120.332 130.954 119.953 130.902 120.115 130.306C120.277 129.71 120.549 129.548 120.549 129.059C120.549 128.569 120.549 128.487 120.549 127.932C120.549 127.377 120.112 126.406 120.491 125.972C120.87 125.537 121.142 124.89 121.738 124.89C122.334 124.89 124.229 125.214 124.229 125.214C124.429 125 124.61 124.769 124.77 124.524C124.906 124.297 125.099 124.108 125.328 123.975C125.558 123.843 125.818 123.771 126.083 123.766C126.497 123.762 126.909 123.693 127.302 123.563Z" fill="white"/>
<path d="M120.56 129.059C121.335 129.403 122.121 129.748 122.913 130.047C123.706 130.347 124.488 130.692 125.284 130.985C126.061 131.287 126.854 131.545 127.661 131.756C127.823 131.798 127.99 131.817 128.157 131.815L128.636 131.574C128.997 131.39 129.343 131.177 129.67 130.936C129.983 130.722 130.252 130.448 130.459 130.13C130.503 130.056 130.541 129.979 130.572 129.899L130.607 129.782L130.624 129.727C130.579 129.599 130.507 129.481 130.414 129.382C129.861 128.779 129.245 128.236 128.577 127.763C127.888 127.26 127.199 126.788 126.479 126.34C126.135 126.109 125.763 125.885 125.394 125.675C125.208 125.572 125.022 125.472 124.832 125.379C124.738 125.33 124.642 125.286 124.543 125.248C124.453 125.224 124.329 125.145 124.257 125.227C124.319 125.127 124.464 125.186 124.56 125.196C124.666 125.219 124.771 125.246 124.874 125.279C125.077 125.345 125.277 125.424 125.477 125.506C125.873 125.668 126.262 125.851 126.648 126.037C127.413 126.426 128.157 126.85 128.887 127.312C129.647 127.764 130.342 128.315 130.955 128.952C131.155 129.157 131.286 129.42 131.33 129.703C131.337 129.757 131.337 129.811 131.33 129.865L131.306 129.965L131.251 130.154C131.205 130.273 131.151 130.388 131.089 130.499C130.839 130.905 130.51 131.256 130.121 131.532C129.759 131.792 129.376 132.023 128.977 132.221L128.688 132.366L128.54 132.435L128.46 132.473L128.302 132.521C128.043 132.542 127.783 132.515 127.533 132.442C126.698 132.2 125.884 131.891 125.098 131.519C123.523 130.819 122.005 129.997 120.56 129.059Z" fill="#C7C7C7"/>
<path d="M123.792 130.519C124.208 129.858 124.678 129.232 125.197 128.649C125.449 128.349 125.728 128.073 126.007 127.794C126.148 127.653 126.3 127.525 126.455 127.395C126.627 127.242 126.819 127.114 127.027 127.016C127.061 127 127.097 126.988 127.134 126.978C127.209 126.965 127.286 126.965 127.361 126.978C127.473 126.999 127.577 127.055 127.657 127.136C127.739 127.22 127.814 127.311 127.881 127.408C127.999 127.575 128.108 127.747 128.208 127.925C128.395 128.27 128.581 128.614 128.732 128.983C129.071 129.691 129.319 130.439 129.473 131.209L128.233 129.241C128.022 128.921 127.833 128.59 127.619 128.277C127.516 128.121 127.416 127.96 127.313 127.825C127.267 127.763 127.218 127.705 127.165 127.649C127.165 127.649 127.165 127.649 127.216 127.674C127.244 127.684 127.275 127.684 127.302 127.674H127.275C127.134 127.745 127.001 127.832 126.879 127.932L126.448 128.277L125.58 129.024C125.008 129.555 124.422 130.058 123.792 130.519Z" fill="#C7C7C7"/>
<path d="M116.401 136.742C115.784 136.89 114.985 136.962 114.906 136.611C114.826 136.259 115.092 136.039 114.985 135.87C114.702 135.627 114.401 135.405 114.086 135.205C113.871 135.018 113.704 134.782 113.6 134.516C113.6 134.43 113.431 134.296 113.562 134.103C113.693 133.91 113.751 133.634 113.862 133.489C113.896 133.454 113.921 133.411 113.938 133.365C113.954 133.318 113.96 133.269 113.955 133.22C113.95 133.171 113.935 133.124 113.911 133.081C113.887 133.038 113.853 133.001 113.813 132.973C113.614 132.749 113.7 132.053 113.944 131.791C114.189 131.529 115.012 132.022 115.247 131.939C115.481 131.856 115.495 131.736 115.688 131.567C116.018 131.247 116.435 131.032 116.887 130.947C117.424 130.895 117.734 131.346 118.079 131.522C118.386 131.647 118.706 131.738 119.033 131.794C119.31 131.876 119.562 132.028 119.764 132.235C119.833 132.346 120.043 132.356 119.984 132.694C119.926 133.031 119.788 133.131 119.812 133.383C119.836 133.634 119.836 133.696 119.867 133.999C119.898 134.303 120.184 134.816 120.001 135.071C119.819 135.326 119.698 135.698 119.374 135.729C119.05 135.76 117.996 135.677 117.996 135.677C117.896 135.807 117.809 135.945 117.734 136.091C117.67 136.224 117.574 136.338 117.453 136.423C117.332 136.508 117.192 136.561 117.045 136.576C116.823 136.597 116.606 136.653 116.401 136.742Z" fill="white"/>
<path d="M114.044 133.276C114.389 132.931 114.733 132.611 115.061 132.28L115.323 132.046L115.454 131.925C115.531 131.865 115.62 131.821 115.715 131.798C115.966 131.741 116.221 131.709 116.477 131.701C116.97 131.681 117.464 131.708 117.951 131.784C118.228 131.819 118.496 131.902 118.744 132.029C118.916 132.141 119.039 132.315 119.088 132.514C119.131 132.661 119.149 132.813 119.144 132.966C119.112 133.481 118.996 133.987 118.799 134.464C118.708 134.7 118.602 134.931 118.482 135.154C118.421 135.274 118.351 135.389 118.272 135.498C118.174 135.639 118.036 135.747 117.876 135.808C117.381 135.946 116.864 135.979 116.356 135.905C115.878 135.855 115.404 135.772 114.937 135.657C115.416 135.622 115.891 135.615 116.356 135.557C116.796 135.538 117.231 135.452 117.645 135.302C117.734 135.253 117.71 135.253 117.779 135.16C117.848 135.067 117.879 134.981 117.927 134.881C118.017 134.677 118.097 134.467 118.165 134.254C118.315 133.845 118.401 133.415 118.42 132.979C118.428 132.848 118.486 132.725 118.582 132.635C118.329 132.554 118.07 132.494 117.807 132.456C117.36 132.361 116.908 132.298 116.453 132.266C116.234 132.249 116.014 132.249 115.795 132.266C115.753 132.266 115.712 132.287 115.726 132.266L115.578 132.363L115.271 132.556C114.871 132.776 114.468 133.038 114.044 133.276Z" fill="#C7C7C7"/>
<path d="M115.52 132.352C115.545 132.807 115.52 133.245 115.562 133.648C115.562 133.83 115.62 134.058 115.669 134.072C115.669 134.072 115.669 134.072 115.71 134.072C115.793 134.068 115.876 134.059 115.958 134.044C116.34 133.979 116.754 133.865 117.174 133.775C117.605 133.673 118.042 133.601 118.483 133.562C117.79 134.15 116.961 134.557 116.072 134.747C115.938 134.76 115.803 134.76 115.669 134.747C115.574 134.741 115.481 134.72 115.393 134.685C115.286 134.636 115.196 134.555 115.135 134.454C115 134.197 114.961 133.9 115.024 133.617C115.098 133.165 115.267 132.734 115.52 132.352Z" fill="#C7C7C7"/>
<path d="M35.5076 128.797C35.2285 127.96 35.2767 126.988 34.3327 127.074C33.3887 127.16 32.8236 125.999 32.3999 125.713C31.9761 125.427 30.4636 125.713 30.1328 125.999C29.802 126.285 29.6608 126.833 29.33 127.074C28.9993 127.315 28.5273 127.698 28.1035 128.077C27.6797 128.456 27.0699 128.972 27.2525 129.917C27.4351 130.861 27.8658 131.184 28.1517 131.66C28.4377 132.135 27.9622 132.983 28.3378 134.072C28.7133 135.16 30.5566 135.581 31.0286 135.391C31.5006 135.202 32.7513 134.399 33.4403 134.399C34.1294 134.399 34.3189 134.967 34.9356 134.637C35.5524 134.306 36.4447 133.603 36.4929 133.314C36.5412 133.024 35.9727 132.783 36.1484 132.342C36.3241 131.901 37.0924 131.071 36.996 130.516C36.8995 129.961 35.7177 129.424 35.5076 128.797Z" fill="white"/>
<path d="M33.7585 126.974C32.5926 127.347 31.4541 127.801 30.351 128.332C30.2285 128.395 30.1131 128.471 30.0065 128.559C29.9617 128.559 29.9341 128.773 29.9066 128.904C29.8549 129.2 29.8204 129.503 29.786 129.806C29.7274 130.409 29.6792 131.019 29.6757 131.622C29.6686 131.916 29.6847 132.209 29.7239 132.5C29.7306 132.582 29.7516 132.661 29.786 132.735C29.8941 132.788 30.0107 132.822 30.1305 132.835C30.7175 132.924 31.3119 132.954 31.9049 132.924C32.2023 132.916 32.499 132.892 32.7938 132.852C33.0487 132.811 33.3933 132.728 33.6827 132.676C34.2822 132.556 34.8885 132.438 35.4639 132.287C35.6052 132.249 35.7533 132.215 35.8705 132.17C35.8948 132.163 35.918 132.152 35.9394 132.139C35.9394 132.139 35.9738 132.139 35.9394 132.139C35.9285 132.145 35.9192 132.153 35.912 132.163C35.9049 132.173 35.9001 132.185 35.898 132.197C35.8615 132.266 35.8529 132.346 35.8739 132.421C35.8873 132.459 35.9071 132.494 35.9325 132.525C35.9325 132.542 35.9773 132.559 35.9704 132.559L35.8877 132.528C35.6259 132.442 35.3192 132.373 35.0264 132.301L33.2348 131.898C32.6318 131.767 32.0323 131.632 31.4294 131.481C31.1297 131.405 30.8265 131.326 30.5233 131.219C30.3388 131.166 30.1666 131.077 30.0168 130.957C29.9959 130.937 29.9774 130.915 29.9617 130.891C29.9409 130.856 29.9257 130.818 29.9169 130.778C29.9134 130.74 29.9134 130.702 29.9169 130.664C29.9199 130.606 29.9303 130.548 29.9479 130.492C29.9779 130.405 30.0148 130.321 30.0581 130.24C30.3857 129.696 30.7779 129.192 31.2261 128.742C31.3364 128.629 31.4512 128.514 31.5707 128.397C31.6327 128.345 31.6913 128.29 31.7602 128.239L31.8601 128.166C31.9063 128.13 31.9589 128.103 32.0151 128.087C32.0752 128.077 32.1366 128.079 32.1958 128.093C32.255 128.107 32.3108 128.133 32.3596 128.17C32.4315 128.218 32.4995 128.272 32.5629 128.332C32.6781 128.441 32.7874 128.556 32.8902 128.676C33.6379 129.656 34.3083 130.693 34.8954 131.777C34.2132 130.76 33.4663 129.787 32.6594 128.866C32.5598 128.757 32.4539 128.655 32.3424 128.559C32.2729 128.492 32.191 128.439 32.1012 128.404L32.0565 128.435L31.9772 128.5C31.9219 128.547 31.869 128.597 31.8187 128.649C31.7119 128.752 31.612 128.862 31.5121 128.972C31.1108 129.412 30.7637 129.897 30.4785 130.419C30.4514 130.475 30.4295 130.532 30.413 130.592C30.413 130.612 30.413 130.654 30.413 130.647C30.408 130.625 30.3999 130.604 30.3889 130.585C30.385 130.577 30.379 130.57 30.3717 130.564C30.4759 130.615 30.5842 130.656 30.6955 130.688C30.9746 130.774 31.2709 130.85 31.5638 130.923C32.1564 131.06 32.7559 131.184 33.3588 131.308L35.6638 131.749C35.9669 131.818 35.7671 131.811 36.091 131.911L36.2253 131.96C36.2576 131.974 36.2887 131.992 36.3184 132.011C36.3491 132.029 36.377 132.051 36.4011 132.077C36.434 132.114 36.4597 132.157 36.4769 132.204C36.501 132.288 36.4923 132.378 36.4527 132.456C36.4177 132.508 36.3747 132.554 36.3253 132.594C36.2975 132.613 36.2688 132.632 36.2391 132.649L36.0979 132.711C35.9423 132.769 35.7836 132.819 35.6224 132.859C35.0091 133.007 34.4027 133.114 33.7964 133.227C33.4794 133.279 33.2279 133.341 32.8765 133.396C32.5608 133.434 32.2434 133.454 31.9255 133.458C31.2901 133.479 30.6542 133.436 30.0271 133.331C29.8385 133.301 29.6573 133.235 29.4931 133.138C29.3884 133.056 29.3133 132.942 29.2795 132.814C29.2496 132.726 29.2311 132.635 29.2244 132.542C29.1986 132.221 29.1986 131.898 29.2244 131.577C29.2588 130.954 29.3312 130.337 29.4242 129.724C29.4724 129.417 29.5207 129.114 29.5896 128.804C29.6482 128.649 29.6102 128.507 29.7963 128.297C29.9294 128.189 30.0766 128.1 30.2339 128.032C30.806 127.792 31.3915 127.584 31.9875 127.412C32.5629 127.267 33.1417 127.102 33.7585 126.974Z" fill="#C7C7C7"/>
</svg>
