<svg width="26" height="26" viewBox="0 0 26 26" fill="none" xmlns="http://www.w3.org/2000/svg">
<g clip-path="url(#clip0_9029_58761)">
<path d="M17.9225 11.1253H13.4694V12.766C13.4694 13.9291 12.5231 14.8753 11.36 14.8753C10.197 14.8753 9.25067 13.9291 9.25067 12.766V9.20347L7.3493 10.346C6.78387 10.683 6.43817 11.2953 6.43817 11.9515V13.3373L4.09442 14.6908C3.64618 14.9486 3.4909 15.5228 3.75164 15.971L6.09539 20.0316C6.35321 20.4798 6.92743 20.6322 7.37567 20.3744L10.405 18.6253H14.4069C15.4411 18.6253 16.2819 17.7845 16.2819 16.7503H16.7507C17.2692 16.7503 17.6882 16.3314 17.6882 15.8128V13.9378H17.9225C18.3122 13.9378 18.6257 13.6244 18.6257 13.2347V11.8285C18.6257 11.4388 18.3122 11.1253 17.9225 11.1253ZM22.2497 10.0296L19.9059 5.96909C19.6481 5.52085 19.0739 5.36851 18.6257 5.62632L15.5964 7.37534H12.6022C12.2507 7.37534 11.9079 7.47495 11.6091 7.65952L10.6276 8.27183C10.3522 8.44175 10.1882 8.74351 10.1882 9.06577V12.766C10.1882 13.4134 10.7126 13.9378 11.36 13.9378C12.0075 13.9378 12.5319 13.4134 12.5319 12.766V10.1878H17.9225C18.8278 10.1878 19.5632 10.9232 19.5632 11.8285V12.6634L21.9069 11.3099C22.3552 11.0492 22.5075 10.4779 22.2497 10.0296Z" fill="#FFFFFF"/>
</g>
<circle cx="13" cy="13" r="12" stroke="#FFFFFF" stroke-opacity="0.9"/>
<defs>
<clipPath id="clip0_9029_58761">
<rect width="18.75" height="15" fill="white" transform="translate(3.625 5.5)"/>
</clipPath>
</defs>
</svg>
