<svg width="10" height="10" viewBox="0 0 10 10" fill="none" xmlns="http://www.w3.org/2000/svg">
<path d="M1.11111 10C0.805556 10 0.54389 9.89111 0.326112 9.67333C0.108334 9.45556 -0.000369427 9.19407 9.43219e-07 8.88889V1.94445C9.43219e-07 1.80556 0.0231491 1.68056 0.0694454 1.56945C0.115742 1.45834 0.175927 1.35186 0.250001 1.25L1.02778 0.305559C1.10185 0.203708 1.19445 0.127226 1.30556 0.0761151C1.41667 0.025004 1.53704 -0.000366373 1.66667 3.99679e-06H8.33333C8.46296 3.99679e-06 8.58333 0.0253744 8.69444 0.0761151C8.80556 0.126856 8.89815 0.203337 8.97222 0.305559L9.75 1.25C9.82407 1.35186 9.88426 1.45834 9.93056 1.56945C9.97685 1.68056 10 1.80556 10 1.94445V8.88889C10 9.19444 9.89111 9.45611 9.67333 9.67389C9.45556 9.89167 9.19407 10.0004 8.88889 10H1.11111ZM1.33333 1.66667H8.66667L8.19444 1.11111H1.80556L1.33333 1.66667ZM1.11111 8.88889H8.88889V2.77778H1.11111V8.88889ZM5 8.09722C5.07407 8.09722 5.14352 8.08556 5.20833 8.06222C5.27315 8.03889 5.33333 7.99963 5.38889 7.94444L6.83333 6.5C6.93519 6.39815 6.98611 6.26852 6.98611 6.11111C6.98611 5.9537 6.93519 5.82408 6.83333 5.72222C6.73148 5.62037 6.60185 5.56945 6.44445 5.56945C6.28704 5.56945 6.15741 5.62037 6.05556 5.72222L5.55556 6.22222V4.44445C5.55556 4.28704 5.50222 4.155 5.39556 4.04834C5.28889 3.94167 5.15704 3.88852 5 3.88889C4.84259 3.88889 4.71056 3.94222 4.60389 4.04889C4.49722 4.15556 4.44407 4.28741 4.44445 4.44445V6.22222L3.94445 5.72222C3.84259 5.62037 3.71296 5.56945 3.55556 5.56945C3.39815 5.56945 3.26852 5.62037 3.16667 5.72222C3.06482 5.82408 3.01389 5.9537 3.01389 6.11111C3.01389 6.26852 3.06482 6.39815 3.16667 6.5L4.61111 7.94444C4.66667 8 4.72685 8.03926 4.79167 8.06222C4.85648 8.08519 4.92593 8.09685 5 8.09722Z" fill="#333333"/>
</svg>
