<svg width="10" height="10" viewBox="0 0 10 10" fill="none" xmlns="http://www.w3.org/2000/svg">
<path d="M8.65 3.4625L6.525 1.3625L7.225 0.6625C7.41667 0.470833 7.65217 0.375 7.9315 0.375C8.2105 0.375 8.44583 0.470833 8.6375 0.6625L9.3375 1.3625C9.52917 1.55417 9.62917 1.7855 9.6375 2.0565C9.64583 2.32717 9.55417 2.55833 9.3625 2.75L8.65 3.4625ZM1 9.5C0.858333 9.5 0.739667 9.452 0.644 9.356C0.548 9.26033 0.5 9.14167 0.5 9V7.5875C0.5 7.52083 0.5125 7.45633 0.5375 7.394C0.5625 7.33133 0.6 7.275 0.65 7.225L5.8 2.075L7.925 4.2L2.775 9.35C2.725 9.4 2.66883 9.4375 2.6065 9.4625C2.54383 9.4875 2.47917 9.5 2.4125 9.5H1Z" fill="#333333"/>
</svg>
