<svg width="13" height="16" viewBox="0 0 13 16" fill="none" xmlns="http://www.w3.org/2000/svg">
<path fill-rule="evenodd" clip-rule="evenodd" d="M6.18701 0.5C9.59876 0.5 12.3745 3.29675 12.3745 6.73475C12.3745 10.961 7.53251 15.125 6.18701 15.125C4.84151 15.125 -0.000488281 10.961 -0.000488281 6.73475C-0.000488281 3.29675 2.77526 0.5 6.18701 0.5ZM6.18701 1.625C3.39551 1.625 1.12451 3.91775 1.12451 6.73475C1.12451 10.319 5.34251 13.811 6.18701 13.997C7.03151 13.8103 11.2495 10.3182 11.2495 6.73475C11.2495 3.91775 8.97851 1.625 6.18701 1.625ZM6.18776 4.25C7.53176 4.25 8.62526 5.3435 8.62526 6.68825C8.62526 8.03225 7.53176 9.125 6.18776 9.125C4.84376 9.125 3.75026 8.03225 3.75026 6.68825C3.75026 5.3435 4.84376 4.25 6.18776 4.25ZM6.18776 5.375C5.46401 5.375 4.87526 5.96375 4.87526 6.68825C4.87526 7.412 5.46401 8 6.18776 8C6.91151 8 7.50026 7.412 7.50026 6.68825C7.50026 5.96375 6.91151 5.375 6.18776 5.375Z" fill="#333333" fill-opacity="0.75"/>
</svg>
