<svg width="16" height="16" viewBox="0 0 16 16" fill="none" xmlns="http://www.w3.org/2000/svg">
<path d="M10.925 2L11.5937 2.65067C11.8923 2.94133 12.0417 3.08667 11.989 3.21C11.937 3.33333 11.7263 3.33333 11.303 3.33333H6.12967C3.47967 3.33333 1.33301 5.42267 1.33301 8C1.33301 8.99133 1.65101 9.91067 2.19301 10.6667M5.07434 14L4.40567 13.3493C4.10701 13.0587 3.95767 12.9133 4.01034 12.79C4.06234 12.6667 4.27301 12.6667 4.69634 12.6667H9.86967C12.5197 12.6667 14.6663 10.5773 14.6663 8C14.6666 7.04288 14.3658 6.10994 13.8063 5.33333" stroke="#228276" stroke-width="1.5" stroke-linecap="round" stroke-linejoin="round"/>
</svg>
