<svg width="18" height="18" viewBox="0 0 18 18" fill="none" xmlns="http://www.w3.org/2000/svg">
<path fill-rule="evenodd" clip-rule="evenodd" d="M12.4941 1.5C14.9916 1.5 16.8749 3.53775 16.8749 6.24V11.391C16.8749 12.774 16.3859 14.0235 15.4971 14.91C14.6999 15.7042 13.6656 16.125 12.5061 16.125H5.11638C3.95913 16.125 2.92563 15.705 2.12763 14.91C1.23888 14.0235 0.749878 12.774 0.749878 11.391V6.24C0.749878 3.53775 2.63313 1.5 5.13063 1.5H12.4941ZM12.4941 2.625H5.13063C3.24438 2.625 1.87488 4.14525 1.87488 6.24V11.391C1.87488 12.4732 2.24688 13.44 2.92188 14.1127C3.50388 14.694 4.26363 15 5.11863 15H12.4941C12.4956 14.9985 12.5016 15 12.5061 15C13.3619 15 14.1209 14.694 14.7029 14.1127C15.3786 13.44 15.7499 12.4732 15.7499 11.391V6.24C15.7499 4.14525 14.3804 2.625 12.4941 2.625ZM13.6761 6.0966C13.8719 6.33735 13.8351 6.69135 13.5944 6.88785L10.2614 9.59685C9.83988 9.93135 9.33588 10.0986 8.83263 10.0986C8.33088 10.0986 7.83063 9.93285 7.41213 9.60135L4.04838 6.88935C3.80613 6.69435 3.76863 6.3396 3.96288 6.0981C4.15863 5.85735 4.51263 5.8191 4.75413 6.01335L8.11488 8.72235C8.53713 9.05685 9.13188 9.05685 9.55713 8.71935L12.8841 6.01485C13.1256 5.8176 13.4796 5.8551 13.6761 6.0966Z" fill="#333333" fill-opacity="0.75"/>
</svg>
