<svg width="19" height="19" viewBox="0 0 19 19" fill="none" xmlns="http://www.w3.org/2000/svg">
<path d="M15.4923 14.7149C15.9102 14.7149 16.25 15.0592 16.25 15.4825C16.25 15.9065 15.9102 16.25 15.4923 16.25H11.2098C10.7919 16.25 10.4521 15.9065 10.4521 15.4825C10.4521 15.0592 10.7919 14.7149 11.2098 14.7149H15.4923ZM12.5224 3.2743L13.6286 4.15309C14.0823 4.50783 14.3847 4.97544 14.4882 5.46724C14.6076 6.00822 14.4802 6.53953 14.1221 6.99908L7.5323 15.5209C7.22987 15.9079 6.78418 16.1256 6.30666 16.1337L3.6803 16.1659C3.53704 16.1659 3.41766 16.0692 3.38582 15.9321L2.78892 13.3441C2.68546 12.8684 2.78892 12.3766 3.09135 11.9977L7.7631 5.95098C7.84269 5.85423 7.98594 5.83891 8.08145 5.91067L10.0472 7.47475C10.1746 7.57956 10.3497 7.636 10.5327 7.61181C10.9227 7.56344 11.1853 7.2087 11.1455 6.82977C11.1217 6.63628 11.0262 6.47503 10.8988 6.35409C10.859 6.32185 8.98874 4.82226 8.98874 4.82226C8.86936 4.72551 8.84548 4.54814 8.94099 4.42801L9.68114 3.46779C10.3656 2.589 11.5594 2.50838 12.5224 3.2743Z" fill="#228276"/>
</svg>
