<svg width="198" height="215" viewBox="0 0 198 215" fill="none" xmlns="http://www.w3.org/2000/svg">
<path d="M181.997 110.67C179.531 112.154 176.659 112.819 173.792 112.571C170.925 112.322 168.21 111.172 166.037 109.285C163.864 107.398 162.344 104.872 161.695 102.069C161.046 99.265 161.302 96.3279 162.425 93.6783C163.548 91.0287 165.481 88.8027 167.947 87.3193C170.413 85.836 173.285 85.1714 176.152 85.421C179.019 85.6705 181.733 86.8213 183.906 88.7085C186.078 90.5956 187.598 93.1221 188.246 95.9259C188.898 98.7286 188.645 101.666 187.522 104.316C186.399 106.965 184.465 109.19 181.997 110.67Z" fill="#EBEBEB"/>
<path d="M179.135 97.4906C179.124 98.3099 178.872 99.1078 178.408 99.7835C177.944 100.459 177.291 100.982 176.53 101.286C175.769 101.591 174.935 101.663 174.133 101.493C173.332 101.324 172.598 100.92 172.026 100.334C171.453 99.7477 171.068 99.0048 170.917 98.1993C170.767 97.3938 170.858 96.5618 171.181 95.8085C171.503 95.0551 172.041 94.4142 172.728 93.9668C173.414 93.5194 174.218 93.2855 175.038 93.2947C175.582 93.3008 176.12 93.4143 176.621 93.6285C177.122 93.8428 177.575 94.1536 177.956 94.5433C178.336 94.933 178.636 95.3939 178.839 95.8996C179.041 96.4053 179.142 96.9459 179.135 97.4906Z" fill="white"/>
<path d="M182.016 108.96V110.67C179.847 111.974 177.357 112.647 174.827 112.616C172.297 112.584 169.825 111.849 167.689 110.492L167.713 108.786C167.724 107.846 167.921 106.917 168.291 106.052C168.662 105.188 169.199 104.405 169.872 103.748C170.545 103.091 171.341 102.573 172.214 102.224C173.087 101.875 174.02 101.701 174.961 101.712C175.901 101.724 176.83 101.92 177.694 102.291C178.559 102.661 179.342 103.198 179.998 103.871C180.655 104.544 181.173 105.34 181.523 106.213C181.872 107.086 182.046 108.02 182.034 108.96H182.016Z" fill="white"/>
<path d="M28.7977 70.1164C27.3753 70.9725 25.7424 71.4151 24.0824 71.3943C22.4224 71.3736 20.801 70.8904 19.4005 69.999C17.7624 68.9563 16.5089 67.4081 15.83 65.5889C15.1511 63.7696 15.0839 61.7787 15.6385 59.9178C16.1931 58.0569 17.3393 56.4276 18.9033 55.2769C20.4674 54.1261 22.364 53.5167 24.3056 53.541C26.2472 53.5653 28.1279 54.2219 29.6627 55.4114C31.1975 56.6009 32.3026 58.2583 32.8105 60.1325C33.3184 62.0066 33.2015 63.9953 32.4773 65.797C31.7532 67.5986 30.4614 69.1151 28.7977 70.1164Z" fill="#EBEBEB"/>
<path d="M26.9232 61.4805C26.9175 62.0178 26.7527 62.5414 26.4494 62.9849C26.1461 63.4285 25.7181 63.7721 25.2195 63.9723C24.7209 64.1726 24.1741 64.2204 23.6483 64.1097C23.1225 63.9991 22.6413 63.735 22.2656 63.3508C21.89 62.9666 21.6368 62.4796 21.538 61.9514C21.4392 61.4232 21.4993 60.8777 21.7107 60.3837C21.9221 59.8897 22.2753 59.4695 22.7256 59.1763C23.1758 58.8831 23.703 58.73 24.2402 58.7365C24.5967 58.7402 24.9489 58.8141 25.2767 58.9541C25.6045 59.094 25.9015 59.2973 26.1507 59.5521C26.3999 59.807 26.5964 60.1085 26.729 60.4394C26.8615 60.7703 26.9275 61.1241 26.9232 61.4805Z" fill="white"/>
<path d="M28.8118 68.9934V70.1164C27.3894 70.9725 25.7565 71.4151 24.0965 71.3943C22.4364 71.3736 20.8151 70.8904 19.4146 69.9989V68.8854C19.4289 67.6392 19.9377 66.4498 20.829 65.5788C21.7202 64.7077 22.9211 64.2265 24.1672 64.2408C25.4134 64.2551 26.6028 64.7639 27.4738 65.6552C28.3448 66.5465 28.8261 67.7473 28.8118 68.9934Z" fill="white"/>
<path d="M68.6703 71.399H9.16699V30.6902H68.6703V71.399ZM9.63685 70.9292H68.2004V31.16H9.63685V70.9292Z" fill="#EBEBEB"/>
<path d="M13.8193 33.3122C13.8193 33.5464 13.7498 33.7753 13.6197 33.97C13.4896 34.1648 13.3047 34.3165 13.0883 34.4061C12.872 34.4958 12.6339 34.5192 12.4042 34.4735C12.1745 34.4278 11.9636 34.3151 11.798 34.1495C11.6324 33.9839 11.5196 33.7729 11.4739 33.5432C11.4282 33.3135 11.4517 33.0755 11.5413 32.8591C11.6309 32.6428 11.7827 32.4578 11.9774 32.3277C12.1721 32.1976 12.401 32.1282 12.6352 32.1282C12.9493 32.1282 13.2504 32.2529 13.4725 32.475C13.6945 32.697 13.8193 32.9982 13.8193 33.3122Z" fill="#A6A6A6"/>
<path d="M18.6533 33.3122C18.6533 33.5464 18.5838 33.7753 18.4537 33.97C18.3236 34.1648 18.1387 34.3165 17.9223 34.4061C17.706 34.4958 17.4679 34.5192 17.2382 34.4735C17.0085 34.4278 16.7975 34.3151 16.632 34.1495C16.4664 33.9839 16.3536 33.7729 16.3079 33.5432C16.2622 33.3135 16.2857 33.0755 16.3753 32.8591C16.4649 32.6428 16.6167 32.4578 16.8114 32.3277C17.0061 32.1976 17.235 32.1282 17.4692 32.1282C17.7832 32.1282 18.0844 32.2529 18.3065 32.475C18.5285 32.697 18.6533 32.9982 18.6533 33.3122Z" fill="#EBEBEB"/>
<path d="M23.4892 33.3122C23.4892 33.5464 23.4198 33.7753 23.2896 33.97C23.1595 34.1648 22.9746 34.3165 22.7583 34.4061C22.5419 34.4958 22.3038 34.5192 22.0741 34.4735C21.8445 34.4278 21.6335 34.3151 21.4679 34.1495C21.3023 33.9839 21.1895 33.7729 21.1438 33.5432C21.0982 33.3135 21.1216 33.0755 21.2112 32.8591C21.3008 32.6428 21.4526 32.4578 21.6473 32.3277C21.842 32.1976 22.071 32.1282 22.3051 32.1282C22.6192 32.1282 22.9203 32.2529 23.1424 32.475C23.3644 32.697 23.4892 32.9982 23.4892 33.3122Z" fill="#228276"/>
<path d="M68.4358 35.3982H9.40234V35.8681H68.4358V35.3982Z" fill="#EBEBEB"/>
<path d="M45.7352 82.0809L14.7344 86.3109L17.417 105.971L48.4178 101.741L45.7352 82.0809Z" fill="#EBEBEB"/>
<path d="M45.7317 82.0886C44.6416 83.4559 43.5234 84.7762 42.4427 86.1247C41.362 87.4732 40.2061 88.7795 39.0832 90.0951C37.9602 91.4107 36.7339 92.8297 35.5498 94.1829L35.4417 94.3144C34.3987 95.5079 33.3493 96.7029 32.2937 97.8995L32.1386 98.0686L31.946 97.9465C30.6116 97.0772 29.2866 96.208 27.9568 95.3293L27.8159 95.2401C26.3123 94.2486 24.8088 93.2525 23.3099 92.2376C21.811 91.2227 20.4437 90.3018 19.0154 89.3198C17.587 88.3378 16.1633 87.3417 14.749 86.3127C16.2197 87.1584 17.6763 88.0559 19.1328 88.9298C20.5894 89.8038 22.0507 90.7153 23.5073 91.6268C25.1236 92.6323 26.7399 93.6551 28.3562 94.695C29.5685 95.4656 30.7791 96.2487 31.9883 97.0443C32.928 95.9683 33.9006 94.8924 34.8638 93.8305C36.1465 92.4209 37.4246 90.9831 38.7167 89.5735C39.8725 88.3206 41.0347 87.0676 42.2031 85.8146C43.3777 84.5507 44.5383 83.2962 45.7317 82.0886Z" fill="white"/>
<path d="M28.4453 95.1366L28.4124 95.1742C28.2715 95.3339 28.1258 95.4984 27.9802 95.644C27.2942 96.4052 26.5706 97.1429 25.8564 97.8665C24.973 98.7545 24.0615 99.6144 23.1406 100.47C22.2196 101.325 21.2893 102.147 20.3214 102.96C19.3535 103.773 18.395 104.576 17.3848 105.309C18.2117 104.369 19.0857 103.458 19.969 102.575C20.8523 101.691 21.7686 100.822 22.6848 99.9715C23.601 99.121 24.5643 98.2847 25.504 97.4718C26.2652 96.8234 27.0404 96.1797 27.8533 95.5689C28.0365 95.4232 28.2245 95.287 28.4124 95.146L28.4453 95.1366Z" fill="white"/>
<path d="M48.255 101.127C47.0804 100.657 45.9057 100.164 44.7968 99.6379C43.688 99.1116 42.5368 98.5478 41.4185 97.9839C40.3003 97.4201 39.1961 96.8234 38.1295 96.2032C37.2415 95.7051 36.3581 95.1883 35.4983 94.6385L34.9438 94.2861L34.9062 94.2579H34.9532L35.6063 94.5164C36.5461 94.8922 37.4529 95.3057 38.3644 95.7286C39.5062 96.2549 40.6245 96.814 41.738 97.3825C42.8516 97.951 43.9605 98.5431 45.0506 99.1633C46.1406 99.7835 47.1978 100.432 48.255 101.127Z" fill="white"/>
<path d="M181.226 30.0137H142.857V54.3478H181.226V30.0137Z" fill="#EBEBEB"/>
<path d="M181.226 30.0137C179.675 31.4937 178.096 32.9127 176.527 34.374C174.958 35.8353 173.374 37.2261 171.791 38.6403C170.207 40.0546 168.478 41.5723 166.815 43.0194L166.669 43.1604C165.2 44.4416 163.726 45.7212 162.248 46.9992L162.027 47.1777L161.816 46.9992C160.34 45.7212 158.87 44.44 157.404 43.1557L157.249 43.0194C155.579 41.5723 153.919 40.1094 152.268 38.6309C150.689 37.2214 149.111 35.8118 147.537 34.374C145.962 32.9362 144.398 31.4937 142.838 30.0137C144.487 31.2823 146.127 32.6167 147.734 33.9182C149.341 35.2197 150.985 36.5682 152.597 37.9167C154.398 39.4046 156.195 40.916 157.986 42.4509C159.33 43.588 160.674 44.7313 162.018 45.8809C163.352 44.7344 164.696 43.5833 166.04 42.4509C167.831 40.9286 169.628 39.4172 171.429 37.9167C173.039 36.5761 174.659 35.2464 176.287 33.9276C177.96 32.6167 179.576 31.2823 181.226 30.0137Z" fill="white"/>
<path d="M158.061 43.0054C158.047 43.019 158.031 43.0316 158.014 43.043C157.812 43.2168 157.615 43.3907 157.413 43.5551C156.45 44.368 155.463 45.1479 154.462 45.9044C153.241 46.8441 151.991 47.7322 150.732 48.6202C149.472 49.5083 148.204 50.354 146.907 51.1857C145.61 52.0173 144.304 52.8255 142.951 53.5679C144.111 52.5483 145.3 51.5991 146.545 50.6735C147.79 49.7479 149.021 48.8458 150.271 47.9577C151.521 47.0697 152.808 46.2192 154.105 45.3876C155.134 44.7251 156.182 44.072 157.258 43.4611C157.502 43.3202 157.751 43.1792 158.005 43.043L158.061 43.0054Z" fill="white"/>
<path d="M181.137 53.5631C179.779 52.8207 178.468 52.0079 177.176 51.1809C175.884 50.3539 174.611 49.4847 173.342 48.6155C172.073 47.7462 170.838 46.8347 169.616 45.8997C168.62 45.1479 167.633 44.3726 166.679 43.5503C166.468 43.3765 166.27 43.2026 166.068 43.0288C166.052 43.0174 166.036 43.0049 166.021 42.9912L166.078 43.0194L166.825 43.4423C167.901 44.0531 168.944 44.7062 169.978 45.3687C171.275 46.2004 172.543 47.0649 173.807 47.9389C175.071 48.8128 176.311 49.7196 177.533 50.6547C178.755 51.5897 179.972 52.5435 181.137 53.5631Z" fill="white"/>
<path d="M92.4641 214.031C129.622 214.031 159.744 211.698 159.744 208.82C159.744 205.942 129.622 203.609 92.4641 203.609C55.3067 203.609 25.1846 205.942 25.1846 208.82C25.1846 211.698 55.3067 214.031 92.4641 214.031Z" fill="#EBEBEB"/>
<path d="M115.239 0.769531H114.769V65.4037H115.239V0.769531Z" fill="#C7C7C7"/>
<path d="M95.8247 83.8929L97.3705 87.2853H132.648L134.184 83.8929L119.167 73.4949H110.846L95.8247 83.8929Z" fill="#228276"/>
<path d="M109.802 63.4819L110.845 73.4947H119.167L120.21 63.4819H109.802Z" fill="#228276"/>
<path opacity="0.1" d="M95.8291 83.8928L97.3702 87.2852H132.652L134.189 83.8928H95.8291Z" fill="black"/>
<path opacity="0.1" d="M110.846 73.4948L110.733 72.4188L119.341 71.7986L119.167 73.4948H110.846Z" fill="black"/>
<path d="M83.2272 0.769531H82.7573V45.0634H83.2272V0.769531Z" fill="#C7C7C7"/>
<path d="M63.8125 63.5525L65.3583 66.9449H100.636L102.172 63.5525L87.1552 53.1592H78.834L63.8125 63.5525Z" fill="#228276"/>
<path d="M77.79 43.1416L78.8331 53.1591H87.1544L88.1975 43.1416H77.79Z" fill="#228276"/>
<path opacity="0.1" d="M63.8169 63.5571L65.358 66.9448H100.635L102.176 63.5571H63.8169Z" fill="black"/>
<path opacity="0.1" d="M78.8341 53.1591L78.7119 51.9986L87.3339 51.4395L87.1553 53.1591H78.8341Z" fill="black"/>
<path d="M163.511 148.165C163.652 145.792 163.988 143.435 164.517 141.117C165.015 139.026 165.72 136.889 167.04 135.155C167.621 134.34 168.357 133.648 169.206 133.119C170.055 132.59 171.001 132.234 171.988 132.072C173.928 131.837 175.747 132.702 177.199 133.919C178.993 135.432 180.37 137.438 181.662 139.379C183.077 141.551 184.364 143.804 185.515 146.126C185.557 146.201 185.44 146.267 185.402 146.192C184.402 144.225 183.249 142.34 181.954 140.553C180.773 138.839 179.444 137.23 177.983 135.747C176.654 134.45 174.962 133.233 173.031 133.172C171.1 133.111 169.342 134.187 168.191 135.667C166.899 137.321 166.241 139.383 165.748 141.394C165.249 143.599 164.925 145.839 164.78 148.095C164.4 152.751 164.31 157.436 164.193 162.101C164.132 164.742 164.099 167.387 164.071 170.028L164.042 174.045C164.09 175.338 164.038 176.632 163.887 177.917C163.84 178.175 163.418 178.152 163.371 177.917C163.214 176.7 163.156 175.473 163.197 174.247C163.178 172.979 163.162 171.71 163.15 170.441C163.125 167.976 163.115 165.509 163.122 163.041C163.112 158.075 163.173 153.108 163.511 148.165Z" fill="#263238"/>
<path d="M170.165 144.655C170.409 143.34 170.856 141.625 171.603 140.605C172.951 138.773 174.422 139.567 173.064 141.597C172.073 143.104 171.431 144.813 171.185 146.601C171.185 146.601 173.449 149.838 176.184 151.431C176.066 150.186 175.714 148.273 175.958 146.427C176.485 142.428 178.904 142.668 178.308 145.83C177.838 148.377 177.631 151.083 177.763 152.253C178.676 152.845 179.657 153.327 180.685 153.686C180.525 153.216 180.361 152.666 180.178 151.99C179.205 148.405 181.587 147.291 181.672 149.307C181.83 151.027 182.145 152.728 182.612 154.391C183.923 154.833 185.013 155.133 185.675 155.363C187.398 156.002 188.937 157.054 190.158 158.427C191.403 157.302 192.437 155.964 193.212 154.475C192.375 153.757 191.055 152.69 189.223 151.393C185.788 148.969 186.981 145.905 189.692 147.808C191.656 149.185 193.179 151.731 193.874 153.038C194.801 150.76 195.327 148.339 195.429 145.882C192.732 143.349 186.056 139.816 188.067 139.816C189.88 139.816 193.931 142.47 195.415 143.495C195.38 142.799 195.305 142.105 195.19 141.418C192.648 139.75 184.383 137.161 185.703 136.414C187.146 135.596 192.911 138.265 194.654 139.106C194.327 137.974 193.81 136.905 193.127 135.944C189.613 131.245 183.26 129.624 180.516 130.517C178.561 131.152 179.106 136.113 178.712 135.944C170.846 132.801 167.275 135.018 170.165 144.655ZM189.429 144.11C189.988 143.438 192.563 145.421 191.821 146.502C191.079 147.583 188.701 144.975 189.42 144.11H189.429ZM175.958 139.882C176.635 140.314 175.634 142.818 174.586 142.062C173.708 141.413 175.268 139.445 175.949 139.882H175.958Z" fill="#228276"/>
<path d="M176.997 140.647C177.349 139.947 177.72 139.238 178.124 138.575C178.496 137.909 178.93 137.28 179.421 136.696C179.313 136.56 179.205 136.419 179.088 136.282C179.041 136.226 179.121 136.151 179.168 136.202C179.299 136.353 179.426 136.508 179.553 136.672C179.566 136.679 179.578 136.688 179.588 136.7C179.597 136.711 179.605 136.724 179.609 136.738C180.095 137.321 180.554 137.917 180.986 138.528C181.759 138.706 182.521 138.927 183.269 139.191C184.04 139.449 184.806 139.717 185.553 140.032C185.633 140.065 185.591 140.196 185.515 140.159C184.773 139.835 184.021 139.515 183.251 139.257C182.48 138.998 181.785 138.82 181.047 138.613C181.287 138.951 181.517 139.289 181.747 139.637C183.134 140.076 184.484 140.626 185.783 141.282C187.146 141.93 188.457 142.691 189.763 143.438C189.838 143.481 189.763 143.598 189.692 143.551C188.408 142.801 187.086 142.117 185.732 141.503C184.468 140.911 183.161 140.427 181.888 139.863C185.097 144.867 187.019 150.646 189.594 155.993C189.631 156.073 189.509 156.134 189.476 156.059C188.692 154.179 187.785 152.356 186.93 150.51C186.164 148.851 185.412 147.188 184.646 145.529C184.421 145.059 184.176 144.561 183.951 144.082C184.092 146.756 184.035 149.476 184.477 152.117C184.477 152.125 184.475 152.134 184.472 152.142C184.469 152.15 184.464 152.157 184.458 152.163C184.452 152.169 184.444 152.174 184.436 152.177C184.428 152.181 184.42 152.182 184.411 152.182C184.403 152.182 184.394 152.181 184.386 152.177C184.378 152.174 184.371 152.169 184.365 152.163C184.359 152.157 184.354 152.15 184.35 152.142C184.347 152.134 184.345 152.125 184.345 152.117C184.158 149.26 183.655 146.445 183.674 143.575C183.674 143.575 183.674 143.551 183.674 143.537C183.129 142.442 182.546 141.366 181.921 140.318C180.859 142.818 179.741 145.36 179.247 148.048C179.247 148.128 179.097 148.095 179.116 148.01C179.839 145.318 180.525 142.621 181.808 140.131C181.127 138.997 180.372 137.909 179.548 136.874C179.191 137.537 178.735 138.167 178.331 138.801C177.927 139.435 177.547 140.046 177.18 140.68C176.39 142.029 175.718 143.444 175.174 144.909C175.141 144.989 175.014 144.947 175.047 144.871C175.658 143.467 176.278 142.033 176.997 140.647Z" fill="#263238"/>
<path d="M151.69 146.737C153.748 144.669 156.14 141.963 159.321 141.968C162.394 141.968 164.654 144.444 165.951 146.995C167.308 149.664 167.797 152.685 168.182 155.622C168.637 159.141 168.913 162.68 169.009 166.227C169.066 168.195 169.056 170.169 169.009 172.138C169.003 174.134 168.846 176.127 168.54 178.1C168.483 178.415 167.971 178.429 167.952 178.1C167.858 176.442 167.924 174.774 167.952 173.115C167.98 171.456 167.952 169.826 167.877 168.214C167.755 164.925 167.515 161.636 167.125 158.347C166.787 155.476 166.519 152.53 165.659 149.758C164.889 147.258 163.437 144.402 160.904 143.302C157.446 141.808 154.068 144.543 151.808 146.854C151.733 146.897 151.625 146.798 151.69 146.737Z" fill="#263238"/>
<path d="M141.189 151.351C141.189 151.774 141.226 152.187 141.254 152.596C142.244 151.853 143.404 151.369 144.628 151.186C147.55 150.876 147.362 153.094 145.413 153.188C144.038 153.205 142.679 153.478 141.405 153.991C141.874 157.849 142.941 160.95 143.101 160.992C145.693 160.858 148.272 160.544 150.821 160.053C150.092 158.502 148.438 156.444 149.284 156.294C150.13 156.143 151.046 157.957 151.516 159.926C153.433 159.56 155.319 159.043 157.154 158.38C155.867 157.266 153.865 155.88 154.641 155.293C155.416 154.706 156.99 156.651 157.93 158.07C158.791 157.718 159.607 157.264 160.359 156.717C158.625 154.17 154.406 153.653 154.955 151.816C155.505 149.979 159.457 152.525 161.228 155.932C163.31 153.771 163.92 150.717 163.7 148.104C161.886 147.893 158.4 148.278 158.653 146.976C158.907 145.675 161.425 145.919 163.488 146.68C163.299 145.646 162.885 144.666 162.276 143.81C160.368 141.357 154.533 144.477 154.533 144.477C154.533 144.477 155.158 138.613 152.935 137.603C151.652 137.02 149.388 137.025 147.118 138.359C148.391 138.467 149.937 138.871 150.548 139.769C151.342 140.892 150.078 141.507 149.298 140.986C148.739 140.619 147.696 139.459 145.812 139.304C145.007 139.988 144.299 140.778 143.707 141.653C143.491 141.958 143.293 142.278 143.091 142.625C144.168 142.139 145.34 141.898 146.521 141.919C147.702 141.94 148.864 142.223 149.923 142.748C152.451 144.002 151.037 146.629 148.861 145.609C146.686 144.59 144.633 143.584 142.307 144.162C141.489 146.227 141.101 148.436 141.165 150.655C142.297 149.831 143.571 149.221 144.924 148.856C147.438 148.198 148.213 149.697 145.436 149.979C143.941 150.14 142.495 150.607 141.189 151.351ZM144.247 147.315C144.073 146.497 145.854 146.267 146.15 146.925C146.399 147.489 144.416 148.128 144.247 147.315ZM159.499 151.825C159.668 151.379 160.862 151.886 160.754 152.441C160.603 153.179 159.335 152.267 159.499 151.825ZM151.079 154.682C151.948 154.334 153.306 156.496 152.357 156.989C151.408 157.483 150.365 154.969 151.079 154.682Z" fill="#228276"/>
<path d="M143.439 160.565C144.75 158.375 146.046 156.176 147.423 154.024C148.062 153.024 148.734 152.042 149.429 151.078L149.119 151.003L148.598 150.905C148.194 150.834 147.79 150.778 147.381 150.735C146.972 150.693 146.615 150.674 146.23 150.67C145.82 150.647 145.408 150.669 145.003 150.735C144.995 150.735 144.986 150.732 144.98 150.726C144.974 150.72 144.97 150.711 144.97 150.702C144.97 150.694 144.974 150.685 144.98 150.679C144.986 150.673 144.995 150.67 145.003 150.67C145.412 150.67 145.83 150.632 146.239 150.627C146.648 150.623 147.038 150.627 147.433 150.655C147.805 150.676 148.177 150.715 148.546 150.773C148.753 150.801 148.955 150.839 149.157 150.876C149.282 150.896 149.406 150.923 149.528 150.956C150.238 149.979 150.975 149.025 151.736 148.085C149.471 146.985 147.06 146.215 144.576 145.797C144.533 145.797 144.552 145.727 144.576 145.731C147.101 146.082 149.555 146.827 151.849 147.94L153.113 146.403C153.583 145.835 154.095 145.276 154.523 144.674C154.551 144.632 154.607 144.674 154.579 144.712C153.988 145.359 153.433 146.038 152.916 146.746C153.853 147.397 154.745 148.111 155.585 148.884C156.455 149.658 157.304 150.457 158.131 151.28C158.164 151.309 158.131 151.356 158.084 151.327C157.267 150.515 156.421 149.739 155.538 149.002C154.654 148.264 153.719 147.592 152.831 146.864C152.629 147.136 152.427 147.404 152.22 147.667C152.117 147.799 152.018 147.935 151.915 148.071L151.892 148.099C151.549 148.541 151.21 148.987 150.872 149.434C151.269 150.008 151.609 150.621 151.887 151.262C152.178 151.877 152.437 152.516 152.671 153.141C153.141 154.48 153.505 155.853 153.762 157.248C153.762 157.285 153.71 157.304 153.7 157.248C153.421 155.873 153.022 154.526 152.507 153.221C152.253 152.554 151.962 151.901 151.666 151.248C151.37 150.594 151.06 150.087 150.806 149.486C150.515 149.876 150.219 150.27 149.932 150.665C149.848 150.778 149.768 150.895 149.688 151.013C149.688 151.036 149.688 151.069 149.66 151.074C148.758 152.328 147.902 153.616 147.071 154.917C147.12 155.006 147.158 155.101 147.183 155.199C147.235 155.359 147.287 155.519 147.334 155.669C147.427 155.991 147.504 156.317 147.564 156.646C147.616 156.952 147.663 157.266 147.691 157.586C147.699 157.941 147.725 158.296 147.771 158.648C147.771 158.7 147.696 158.704 147.705 158.648C147.728 158.317 147.705 157.985 147.635 157.661C147.588 157.323 147.522 156.985 147.447 156.651C147.371 156.317 147.292 156.049 147.202 155.753C147.16 155.608 147.113 155.457 147.061 155.312C147.01 155.166 146.996 155.152 146.967 155.072C146.577 155.683 146.192 156.294 145.811 156.914C145.06 158.14 144.313 159.367 143.556 160.593C143.552 160.609 143.543 160.622 143.529 160.63C143.515 160.639 143.499 160.641 143.483 160.638C143.468 160.634 143.454 160.624 143.446 160.611C143.438 160.597 143.435 160.58 143.439 160.565Z" fill="#263238"/>
<path d="M163.647 177.391C163.68 176.15 163.878 174.896 164.014 173.665C164.15 172.434 164.286 171.184 164.418 169.943C164.676 167.552 164.817 165.108 165.358 162.764C165.774 160.724 166.79 158.856 168.276 157.398C169.046 156.628 170.058 156.145 171.142 156.031C172.231 156.001 173.3 156.331 174.182 156.97C175.185 157.713 176.05 158.626 176.738 159.667C177.481 160.697 178.148 161.779 178.735 162.905C178.735 162.947 178.688 162.975 178.664 162.933C177.558 161.053 176.093 159.41 174.351 158.098C173.575 157.461 172.629 157.067 171.63 156.966C171.143 156.957 170.659 157.046 170.206 157.226C169.754 157.407 169.342 157.676 168.994 158.018C167.547 159.277 166.706 161.129 166.208 162.947C165.616 165.099 165.428 167.368 165.132 169.577C164.954 170.888 164.789 172.203 164.615 173.519C164.442 174.835 164.333 176.164 164.056 177.452C164.036 177.493 164.003 177.528 163.963 177.549C163.922 177.571 163.875 177.579 163.829 177.572C163.784 177.565 163.741 177.544 163.708 177.511C163.676 177.479 163.654 177.436 163.647 177.391Z" fill="#263238"/>
<path d="M169.756 167.749C170.139 168.269 170.593 168.732 171.105 169.126C170.903 167.918 170.635 165.762 171.264 164.62C172.204 162.839 173.341 163.727 172.773 165.273C172.206 166.669 171.897 168.156 171.861 169.661C173.153 170.47 174.536 171.123 175.982 171.607C175.829 170.91 175.783 170.194 175.846 169.483C176.038 167.58 177.495 167.603 177.114 169.596C176.973 170.361 176.907 171.139 176.917 171.917C179.019 172.565 181.168 173.05 183.345 173.369C184.455 171.927 185.351 170.331 186.004 168.632C184.453 168.247 181.305 168.163 181.385 167.049C181.475 165.56 184.51 166.706 186.291 167.787C186.696 166.491 186.877 165.135 186.826 163.779C185.432 163.391 184 163.155 182.555 163.074C179.365 162.797 179.52 160.988 181.832 161.03C183.537 161.063 185.694 162.106 186.718 162.651C186.051 158.31 182.743 155.533 180.088 155.425C175.629 155.246 177.236 160.795 177.236 160.795C177.236 160.795 174.21 158.671 171.358 158.728C168.506 158.784 166.707 163.506 169.756 167.749ZM181.667 159.724C181.568 159.099 183.547 158.949 183.664 159.752C183.782 160.649 181.766 160.358 181.667 159.724ZM184.872 166.236C184.829 165.827 185.689 165.766 185.882 166.269C186.013 166.631 184.905 166.631 184.872 166.236ZM174.178 166.631C174.849 166.725 175.235 169.131 174.074 169.084C173.177 169.032 173.59 166.537 174.178 166.631Z" fill="#228276"/>
<path d="M175.09 169.285C175.202 168.985 175.301 168.684 175.395 168.379C175.31 168.684 175.23 168.994 175.174 169.318C175.172 169.324 175.169 169.329 175.165 169.333C175.16 169.338 175.156 169.341 175.15 169.343C175.145 169.346 175.139 169.347 175.133 169.347C175.127 169.347 175.121 169.346 175.115 169.344C175.11 169.342 175.105 169.339 175.1 169.335C175.096 169.331 175.093 169.326 175.09 169.32C175.088 169.315 175.087 169.309 175.086 169.303C175.086 169.297 175.087 169.291 175.09 169.285Z" fill="#263238"/>
<path d="M176.269 165.423C176.476 164.808 176.711 164.197 176.95 163.591C177.077 163.271 177.214 162.947 177.354 162.651C177.454 162.369 177.586 162.099 177.749 161.848C177.612 161.595 177.491 161.335 177.387 161.068C177.387 161.044 177.411 161.021 177.43 161.044C177.76 161.466 178.051 161.918 178.299 162.393C178.426 162.599 178.543 162.816 178.661 163.027C178.914 163.049 179.165 163.089 179.412 163.144C179.68 163.191 179.948 163.248 180.211 163.309C180.474 163.37 180.742 163.426 181.005 163.492C181.268 163.558 181.532 163.642 181.799 163.68C181.86 163.68 181.832 163.788 181.776 163.765C181.504 163.669 181.224 163.597 180.94 163.549C180.686 163.492 180.427 163.445 180.169 163.412C179.911 163.379 179.652 163.342 179.389 163.314L178.802 163.267C178.905 163.455 179.018 163.638 179.121 163.826C179.135 163.858 179.151 163.889 179.168 163.92C179.384 163.917 179.598 163.942 179.807 163.995C180.037 164.037 180.277 164.079 180.498 164.131C180.968 164.235 181.438 164.343 181.884 164.469C182.852 164.742 183.801 165.047 184.755 165.357C184.806 165.357 184.755 165.456 184.722 165.437C183.775 165.121 182.812 164.855 181.837 164.639C181.367 164.535 180.925 164.432 180.47 164.338L179.779 164.192C179.599 164.163 179.422 164.122 179.248 164.07C179.718 164.977 180.188 165.903 180.625 166.842C181.564 168.886 182.33 170.996 183.124 173.096C183.124 173.148 183.063 173.181 183.045 173.129C182.278 171.043 181.39 169.003 180.385 167.021C180.207 166.659 180.023 166.302 179.845 165.935C179.845 166.011 179.812 166.086 179.798 166.161C179.751 166.405 179.708 166.654 179.666 166.903C179.582 167.401 179.497 167.899 179.422 168.398C179.21 169.418 179.09 170.456 179.065 171.499C179.065 171.564 178.966 171.56 178.975 171.499C179.055 171.005 179.055 170.488 179.088 169.99C179.121 169.492 179.159 168.943 179.22 168.426C179.281 167.909 179.342 167.425 179.427 166.927C179.469 166.678 179.511 166.429 179.558 166.18C179.569 165.993 179.616 165.809 179.694 165.639C179.436 165.118 179.178 164.592 178.91 164.07C178.642 163.549 178.412 163.088 178.158 162.604C178.05 162.397 177.932 162.191 177.82 161.979C177.738 162.236 177.639 162.487 177.524 162.731L177.181 163.577C176.922 164.197 176.687 164.827 176.448 165.456C176.109 166.349 175.738 167.26 175.461 168.191C175.733 167.251 175.964 166.321 176.269 165.423Z" fill="#263238"/>
<path d="M175.395 168.379C175.395 168.303 175.437 168.233 175.461 168.162C175.437 168.233 175.419 168.303 175.395 168.379Z" fill="#263238"/>
<path d="M156.192 174.976L156.507 181.615L157.31 198.727H174.968L175.776 181.615L176.086 174.976H156.192Z" fill="#37474F"/>
<path d="M156.192 174.976L156.507 181.615H175.776L176.086 174.976H156.192Z" fill="#263238"/>
<path d="M154.932 177.658H177.34V172.288H154.932V177.658Z" fill="#37474F"/>
<path d="M173.539 198.727H170.438V201.537H173.539V198.727Z" fill="#37474F"/>
<path d="M173.539 198.727H170.438V200.132H173.539V198.727Z" fill="#263238"/>
<path d="M161.84 198.727H158.744V201.537H161.84V198.727Z" fill="#37474F"/>
<path d="M161.84 198.727H158.744V200.132H161.84V198.727Z" fill="#263238"/>
<path d="M0.625 201.607L25.2176 201.495L49.8102 201.452L99 201.372L148.19 201.452L172.782 201.495L197.375 201.607L172.782 201.725L148.19 201.762L99 201.842L49.8102 201.762L25.2176 201.725L0.625 201.607Z" fill="#263238"/>
<path d="M99.1083 140.361C98.5914 140.361 98.0511 140.361 97.5107 140.328V139.975C98.0558 139.999 98.6055 140.008 99.1271 140.008H99.3808V140.361H99.0942H99.1083ZM101.754 140.276L101.73 139.924C102.355 139.881 102.98 139.825 103.61 139.75L103.652 140.102C103.018 140.173 102.383 140.234 101.754 140.276ZM95.1755 140.177C94.5647 140.121 93.9304 140.055 93.2961 139.975L93.3384 139.623C93.968 139.703 94.5929 139.773 95.2178 139.825L95.1755 140.177ZM105.982 139.736L105.912 139.393C106.527 139.271 107.138 139.134 107.735 138.979L107.824 139.322C107.209 139.477 106.588 139.618 105.968 139.736H105.982ZM90.9468 139.623C90.3313 139.515 89.7063 139.397 89.0955 139.271L89.166 138.928C89.7768 139.054 90.397 139.172 91.0079 139.275L90.9468 139.623ZM86.7838 138.744C86.1683 138.594 85.5575 138.43 84.9607 138.274L85.0547 137.936C85.6467 138.105 86.2575 138.27 86.8684 138.406L86.7838 138.744ZM110.056 138.632L109.939 138.298C110.531 138.091 111.113 137.861 111.677 137.617L111.818 137.936C111.264 138.185 110.672 138.439 110.07 138.632H110.056ZM82.7054 137.56C81.5824 137.189 80.9293 136.921 80.9199 136.921L81.0562 136.592C81.0562 136.592 81.7046 136.856 82.8182 137.227L82.7054 137.56ZM113.937 136.888L113.763 136.578C114.304 136.278 114.839 135.949 115.356 135.606L115.549 135.902C115.041 136.249 114.506 136.559 113.951 136.888H113.937ZM117.461 134.516L117.245 134.238C117.743 133.853 118.232 133.458 118.697 133.059L118.927 133.327C118.471 133.74 117.978 134.13 117.475 134.516H117.461ZM120.666 131.734L120.421 131.48C120.863 131.043 121.3 130.592 121.718 130.136L121.976 130.376C121.554 130.837 121.131 131.292 120.68 131.734H120.666ZM123.508 128.577L123.231 128.36C123.621 127.891 123.997 127.364 124.349 126.862L124.641 127.064C124.293 127.576 123.903 128.102 123.522 128.572L123.508 128.577ZM125.923 125.085L125.623 124.902C125.947 124.367 126.252 123.817 126.539 123.272L126.849 123.436C126.576 123.986 126.252 124.54 125.937 125.085H125.923ZM127.864 121.303L127.544 121.162C127.784 120.603 128.014 120.016 128.235 119.428L128.569 119.55C128.362 120.147 128.132 120.735 127.878 121.303H127.864ZM129.297 117.305L128.959 117.206C129.132 116.614 129.288 116.003 129.428 115.397L129.771 115.477C129.645 116.088 129.485 116.703 129.311 117.295L129.297 117.305ZM130.208 113.156L129.861 113.099C129.955 112.488 130.03 111.864 130.091 111.248L130.439 111.281C130.396 111.906 130.317 112.535 130.223 113.156H130.208ZM130.584 108.927H130.232C130.232 108.654 130.232 108.382 130.232 108.109C130.232 107.757 130.232 107.405 130.232 107.057H130.584C130.584 107.409 130.584 107.762 130.584 108.119C130.608 108.368 130.603 108.645 130.598 108.922L130.584 108.927ZM132.356 108.518C132.102 108.518 131.853 108.518 131.599 108.518V108.166C132.217 108.201 132.837 108.201 133.455 108.166L133.479 108.518C133.136 108.499 132.75 108.513 132.36 108.513L132.356 108.518ZM129.245 108.236C128.622 108.123 128.006 107.978 127.399 107.799L127.497 107.461C128.092 107.636 128.696 107.778 129.306 107.889L129.245 108.236ZM135.847 108.156L135.776 107.813C136.383 107.692 136.983 107.535 137.571 107.343L137.679 107.677C137.083 107.87 136.476 108.029 135.861 108.152L135.847 108.156ZM125.19 106.958C124.613 106.697 124.052 106.404 123.508 106.08L123.687 105.779C124.22 106.094 124.771 106.38 125.336 106.634L125.19 106.958ZM139.883 106.737L139.728 106.423C140.281 106.14 140.817 105.826 141.335 105.483L141.527 105.774C140.997 106.129 140.446 106.454 139.878 106.747L139.883 106.737ZM121.558 104.731C121.248 104.482 120.938 104.214 120.642 103.937C120.473 103.777 120.308 103.617 120.172 103.467L120.421 103.218C120.576 103.378 120.736 103.533 120.891 103.688C121.182 103.96 121.483 104.219 121.789 104.468L121.558 104.731ZM130.082 104.703C130.011 104.078 129.922 103.458 129.818 102.856L130.166 102.795C130.274 103.406 130.363 104.036 130.429 104.675L130.082 104.703ZM143.416 104.341L143.181 104.078C143.647 103.668 144.09 103.232 144.506 102.772L144.765 103.011C144.339 103.482 143.887 103.93 143.412 104.35L143.416 104.341ZM118.659 101.602C118.307 101.073 118.017 100.505 117.795 99.9103L118.124 99.7928C118.335 100.368 118.609 100.918 118.941 101.433L118.659 101.602ZM146.245 101.132L145.954 100.93C146.221 100.554 146.475 100.155 146.715 99.7552C146.795 99.6236 146.874 99.4921 146.95 99.3558L147.255 99.5297C147.175 99.6659 147.1 99.8022 147.02 99.9338C146.771 100.38 146.508 100.78 146.24 101.165L146.245 101.132ZM129.33 100.554C129.161 99.9337 128.973 99.337 128.766 98.7779L129.1 98.6557C129.306 99.2243 129.499 99.8304 129.668 100.46L129.33 100.554ZM117.762 97.5609H117.409C117.431 96.9145 117.571 96.2775 117.823 95.6815L118.147 95.8178C117.916 96.3712 117.785 96.9616 117.762 97.5609ZM148.303 97.467L147.983 97.3307C148.218 96.7763 148.453 96.1889 148.655 95.5922L148.989 95.705C148.773 96.2923 148.542 96.8843 148.298 97.4435L148.303 97.467ZM127.803 96.7152C127.512 96.173 127.173 95.6586 126.788 95.1787L127.06 94.9532C127.459 95.4508 127.812 95.984 128.113 96.546L127.803 96.7152ZM119.5 94.0135L119.284 93.741C119.792 93.3316 120.377 93.028 121.004 92.8482L121.098 93.1865C120.516 93.3464 119.972 93.6194 119.496 93.99L119.5 94.0135ZM125.045 93.7222C124.515 93.4235 123.941 93.2125 123.344 93.0973L123.41 92.7496C124.044 92.8748 124.655 93.1 125.218 93.4168L125.045 93.7222ZM149.675 93.445L149.332 93.3557C149.482 92.7965 149.628 92.1998 149.778 91.5373L150.121 91.6125C149.966 92.2609 149.82 92.8623 149.67 93.4215L149.675 93.445ZM150.615 89.3102L150.267 89.2397L150.629 87.3978L150.972 87.4636L150.615 89.3102ZM151.451 85.1707L151.108 85.0908C151.258 84.4142 151.409 83.8128 151.578 83.2583L151.916 83.3523C151.733 83.8786 151.582 84.4753 151.432 85.1472L151.451 85.1707ZM152.626 81.1346L152.297 81.0124C152.507 80.4061 152.753 79.8129 153.034 79.2363L153.349 79.3961C153.07 79.9553 152.823 80.5294 152.607 81.1158L152.626 81.1346ZM154.585 77.4649L154.298 77.2535C154.674 76.7437 155.083 76.2602 155.525 75.8063L155.774 76.0507C155.34 76.4867 154.937 76.9513 154.566 77.4415L154.585 77.4649ZM157.522 74.5377L157.31 74.2511C157.822 73.8795 158.354 73.536 158.903 73.2221L159.077 73.5322C158.532 73.8348 158.006 74.1706 157.503 74.5377H157.522ZM161.163 72.5126L161.022 72.1884C161.515 71.9817 162.037 71.7843 162.577 71.6011L162.69 71.9347C162.14 72.0897 161.628 72.2824 161.144 72.4891L161.163 72.5126Z" fill="#263238"/>
<path d="M161.59 64.4077L157.996 74.2842L165.546 68.3874L194.405 57.9236L161.59 64.4077Z" fill="#228276"/>
<path opacity="0.1" d="M161.59 64.4077L157.996 74.2842L165.546 68.3874L194.405 57.9236L161.59 64.4077Z" fill="black"/>
<path d="M166.514 70.6898L157.996 74.2842L165.546 68.3875L166.514 70.6898Z" fill="#263238"/>
<path d="M165.547 68.3874L194.406 57.9236L170.734 81.022L165.547 68.3874Z" fill="#228276"/>
<path d="M161.59 64.4076L149.599 56.6643L194.405 57.9235L161.59 64.4076Z" fill="#228276"/>
<path d="M20.7299 201.532L98.9995 201.871C118.024 186.934 119.988 164.798 106.414 151.384C98.2054 143.265 87.7745 144.9 77.8557 143.608H77.8275C74.3693 143.138 70.9769 142.353 67.7537 140.652C57.5248 135.258 51.7784 122.53 43.1564 111.821C42.0851 110.482 40.9622 109.176 39.7875 107.917C32.7114 100.362 18.6437 100.117 11.2622 110.736C-7.46652 137.72 1.10376 177.908 20.7299 201.532Z" fill="#228276"/>
<path opacity="0.1" d="M18.9905 139.778C21.0391 171.893 58.13 183.88 81.2895 174.261C101.433 165.893 94.8403 146.803 77.8548 143.608H77.8266C74.3684 143.138 70.976 142.353 67.7528 140.652C57.5239 135.258 51.7775 122.53 43.1555 111.821C30.3236 105.159 17.4869 116.266 18.9905 139.778Z" fill="black"/>
<path d="M92.6802 206.569C91.4726 206.127 64.1924 184.326 63.6803 182.836C63.4829 182.273 66.4243 178.138 70.1221 173.19C70.9208 172.128 71.7525 171.033 72.603 169.929C78.1144 162.745 84.1334 155.255 84.1334 155.255L102.425 169.784L90.3919 184.063L87.7513 187.197C87.7513 187.197 94.4609 200.217 94.8509 201.908C95.2409 203.6 93.8877 207.039 92.6802 206.569Z" fill="#D3766A"/>
<path d="M92.6796 206.569C91.4721 206.099 64.1966 184.326 63.6797 182.836C63.5153 182.366 65.4323 179.547 68.1481 175.849C72.1138 180.59 85.9418 194.705 89.7195 196.594C92.1158 197.792 91.6412 195.438 90.7438 193.098C92.5857 196.777 94.639 200.992 94.8504 201.903C95.2404 203.618 93.8872 207.039 92.6796 206.569Z" fill="#263238"/>
<path d="M120.895 141.864C119.645 151.365 96.2275 178.796 93.5211 181.944L92.8915 182.658L73.5332 167.773L73.754 167.486L90.8147 145.149C90.8147 145.149 62.623 161.594 48.4942 154.137C42.1464 150.782 37.4478 144.82 37.4478 144.82L55.8663 135C55.8663 135 60.9643 136.649 64.2205 136.174C75.4502 134.53 100.611 124.978 106.583 125.217C114.294 125.532 122.046 133.144 120.895 141.864Z" fill="#37474F"/>
<path d="M96.9411 136.846C96.307 137.56 95.7185 138.314 95.1791 139.102C94.5777 139.896 93.9622 140.676 93.3608 141.451V141.474C93.4688 141.239 93.5722 141.005 93.685 140.779C94.0656 139.99 94.371 139.177 94.8174 138.43C94.8202 138.421 94.8199 138.411 94.8165 138.402C94.8131 138.393 94.8069 138.386 94.7987 138.381C94.7906 138.376 94.7811 138.374 94.7717 138.375C94.7623 138.376 94.7535 138.381 94.7469 138.387C94.277 139.135 93.7508 139.844 93.3373 140.629C93.1493 141 92.9755 141.376 92.811 141.756C92.7218 141.963 92.6278 142.175 92.5479 142.386C92.5039 142.485 92.4663 142.587 92.4352 142.691C92.1673 143.058 91.8995 143.424 91.6411 143.8C91.0679 144.632 90.5604 145.511 89.9778 146.338C89.9449 146.38 90.0154 146.422 90.0483 146.38C90.6356 145.605 91.2981 144.881 91.8948 144.11C92.4915 143.34 93.0836 142.522 93.6521 141.709C94.2206 140.896 94.7516 140.117 95.3107 139.322C95.9187 138.541 96.4789 137.724 96.9881 136.874C97.0022 136.856 96.9646 136.823 96.9411 136.846Z" fill="#263238"/>
<path d="M34.389 109.444C34.1306 115.111 32.8714 121.872 35.2724 127.238C37.1518 131.438 41.1221 134.286 45.2193 136.09C54.2407 140.079 66.8659 140.601 73.1855 131.645C75.7087 128.069 76.141 120.617 71.9545 117.892C69.8072 116.483 67.2559 116.172 64.822 115.515C63.3067 115.162 61.8906 114.472 60.6792 113.495C59.4678 112.519 58.4924 111.282 57.8257 109.876C54.9267 104.064 55.5046 99.8118 54.9549 93.5251C54.9426 92.9004 54.8 92.2852 54.5363 91.7188C54.2725 91.1525 53.8934 90.6474 53.4231 90.236C52.3905 89.2198 51.1009 88.5035 49.6924 88.1639C48.4911 87.6402 47.1783 87.4238 45.8724 87.5343C43.0909 87.8256 40.4173 90.3911 38.2607 91.9886C36.104 93.5861 35.0797 95.2776 34.9106 98.0357C34.6803 101.828 34.5629 105.638 34.389 109.444Z" fill="#263238"/>
<path d="M33.6884 112.127C34.2616 106.958 34.9288 101.79 35.5678 96.6214C35.5678 96.5932 35.6195 96.5932 35.6148 96.6214C35.2154 100.888 34.8724 105.159 34.4166 109.42C33.9468 113.602 33.2232 117.878 33.1433 122.074C32.9648 131.513 42.6721 135.352 50.6974 134.892C51.0639 134.892 51.0545 135.455 50.6974 135.465C43.6494 135.648 35.2154 133.238 33.0822 125.565C31.8982 121.355 33.2185 116.356 33.6884 112.127Z" fill="#263238"/>
<path d="M54.4986 93.027C54.4986 92.9283 54.6489 92.933 54.6536 93.027C54.8885 98.1954 54.6536 104.304 57.6325 108.81C59.0885 111.037 61.1855 112.77 63.6468 113.781C65.5967 114.575 67.6641 114.645 69.6986 115.045C77.6862 116.609 77.7473 127.369 71.9539 131.565C71.8318 131.654 71.6767 131.448 71.7942 131.354C75.8726 128.107 77.2164 122.201 73.8945 117.869C71.2257 114.392 66.1042 115.519 62.4674 113.64C54.9308 109.731 54.3623 100.564 54.4986 93.027Z" fill="#263238"/>
<path d="M46.3421 115.571C49.7908 120.523 61.5703 134.13 69.7459 135.991C74.2519 137.02 96.0159 140.065 98.9995 137.349C102.495 134.168 100.879 122.187 98.0974 122.078C89.6164 121.745 73.9277 123.403 70.009 122.548C68.2376 122.154 58.8404 116.092 48.8041 111.243C45.0077 109.402 44.1149 112.376 46.3421 115.571Z" fill="#D3766A"/>
<path d="M54.7609 127.44L58.0499 115.322C58.0499 115.322 52.5291 112.259 49.2353 110.995C44.875 109.322 43.2305 110.525 45.904 115.609C47.6989 118.996 54.7609 127.44 54.7609 127.44Z" fill="#EBEBEB"/>
<path d="M53.9491 125.899C54.3062 124.104 54.6868 122.313 55.1473 120.542C55.3775 119.659 55.6171 118.775 55.8802 117.901C56.1434 117.028 56.4864 116.172 56.726 115.294C56.726 115.247 56.82 115.27 56.8012 115.294C56.5146 116.158 56.3313 117.07 56.0964 117.948C55.8614 118.827 55.6265 119.71 55.3822 120.594C54.9123 122.36 54.4425 124.127 54.0196 125.899C54.0102 125.974 53.9397 125.95 53.9491 125.899Z" fill="#263238"/>
<path d="M57.5386 117.23L54.7617 127.444C54.7617 127.444 47.7138 118.987 45.9095 115.609C45.0872 114.044 44.6691 112.846 44.6221 111.991L57.5386 117.23Z" fill="#263238"/>
<path d="M28.6133 149.11C29.6987 149.462 60.4887 140.549 60.4887 140.549L56.852 129.859C56.852 129.859 58.6516 126.42 57.7917 123.112C56.6781 118.696 48.4978 111.432 47.8588 111.004C45.3028 109.308 42.883 109.308 40.7357 110.459C31.8412 115.19 28.6133 149.11 28.6133 149.11Z" fill="#EBEBEB"/>
<path d="M52.1077 114.852C52.9018 115.792 53.7522 116.656 54.5698 117.558C54.1892 116.886 53.8086 116.21 53.4045 115.547C54.0034 116.324 54.5259 117.156 54.9645 118.033C55.5792 118.717 56.146 119.442 56.6607 120.204C57.2985 121.108 57.7754 122.116 58.0703 123.183C58.3255 124.261 58.3575 125.38 58.1642 126.472C57.9291 127.728 57.5815 128.961 57.1259 130.155C57.0695 130.315 56.8439 130.212 56.8862 130.057C57.4641 127.971 58.122 125.767 57.6568 123.587C57.1916 121.407 55.8478 119.612 54.5369 117.897C53.7656 116.849 52.9292 115.851 52.0325 114.908C52.0137 114.866 52.0701 114.814 52.1077 114.852Z" fill="#263238"/>
<path d="M46.9759 129.089C48.3 128.834 49.6412 128.677 50.9885 128.619C51.6557 128.619 52.3229 128.619 52.9901 128.652C53.3237 128.652 53.6573 128.652 53.9909 128.652C54.3396 128.663 54.6883 128.631 55.0293 128.558C55.0575 128.558 55.0716 128.596 55.0293 128.605C54.7217 128.708 54.4078 128.791 54.0896 128.854C53.7785 128.903 53.4646 128.931 53.1498 128.939C52.4685 128.939 51.7919 128.939 51.1106 128.967C49.7433 128.995 48.3713 129.023 47.0087 129.155C46.9242 129.206 46.9148 129.098 46.9759 129.089Z" fill="#263238"/>
<path d="M44.1056 131.128C45.1378 130.719 46.1919 130.368 47.2631 130.076C47.8034 129.93 48.3438 129.822 48.8888 129.723L49.6782 129.596C49.9648 129.554 50.2608 129.549 50.5474 129.502C50.5803 129.502 50.5944 129.545 50.5474 129.549C50.2749 129.601 50.0118 129.7 49.7487 129.766L48.9405 129.968C48.4049 130.104 47.8692 130.25 47.3289 130.381C46.2529 130.644 45.1816 130.917 44.115 131.217C44.1052 131.215 44.0962 131.21 44.0894 131.203C44.0827 131.196 44.0785 131.186 44.0774 131.176C44.0764 131.166 44.0785 131.156 44.0836 131.148C44.0887 131.139 44.0964 131.132 44.1056 131.128Z" fill="#263238"/>
<path d="M42.6687 111.06C42.7908 111.619 45.3986 115.289 47.9452 115.186C48.7722 115.157 48.8192 110.628 48.8192 110.628L48.899 110.294L50.0173 105.619L43.7682 101.527C43.7682 101.527 42.617 110.821 42.6687 111.06Z" fill="#D3766A"/>
<path d="M50.0153 105.615L48.897 110.313C47.638 109.82 46.4966 109.067 45.5465 108.105C44.5963 107.143 43.8585 105.992 43.3809 104.727C43.5735 103.115 43.738 101.776 43.7614 101.578C43.7625 101.569 43.7625 101.56 43.7614 101.55L44.5555 102.02L50.0153 105.615Z" fill="#263238"/>
<path d="M56.0726 97.0067C58.1541 105.182 53.4931 107.344 51.7311 107.814C50.1288 108.218 44.6315 109.397 41.7183 101.484C38.8052 93.572 41.9485 90.0199 45.5571 88.8969C49.1656 87.7739 53.9958 88.8358 56.0726 97.0067Z" fill="#D3766A"/>
<path d="M54.5039 95.9919C54.3065 95.9919 54.1186 95.9919 53.9212 95.9919C53.7148 96.0147 53.5066 95.9684 53.3292 95.8603C53.2805 95.8152 53.2482 95.7553 53.2371 95.6898C53.2261 95.6244 53.237 95.5571 53.2681 95.4985C53.3449 95.3913 53.4491 95.3068 53.5698 95.2539C53.6906 95.201 53.8233 95.1816 53.9541 95.1978C54.2266 95.1884 54.4928 95.2805 54.7012 95.4562C54.7416 95.4995 54.7693 95.5531 54.781 95.6111C54.7927 95.6692 54.7881 95.7293 54.7676 95.7849C54.7471 95.8404 54.7116 95.8892 54.6651 95.9257C54.6185 95.9623 54.5627 95.9852 54.5039 95.9919Z" fill="#263238"/>
<path d="M49.0063 97.7115C49.1989 97.6504 49.3634 97.5659 49.5466 97.4907C49.7463 97.4375 49.924 97.3223 50.0541 97.1618C50.0839 97.1025 50.0936 97.0352 50.0818 96.9699C50.0699 96.9046 50.0371 96.845 49.9883 96.8C49.8782 96.7266 49.7504 96.6839 49.6182 96.6765C49.486 96.669 49.3542 96.6971 49.2365 96.7577C48.9789 96.8439 48.7627 97.0232 48.6304 97.2605C48.6021 97.3162 48.5907 97.3789 48.5977 97.441C48.6047 97.5031 48.6298 97.5618 48.6698 97.6098C48.7098 97.6578 48.763 97.6931 48.8228 97.7111C48.8826 97.7292 48.9464 97.7293 49.0063 97.7115Z" fill="#263238"/>
<path d="M50.4058 98.7405C50.4058 98.7405 50.3682 98.7734 50.3729 98.7969C50.5092 99.356 50.5656 100.019 50.0957 100.31C50.0957 100.31 50.0957 100.347 50.0957 100.338C50.7112 100.127 50.6032 99.2479 50.4058 98.7405Z" fill="#263238"/>
<path d="M49.7857 98.2565C48.846 98.374 49.1655 100.202 50.0206 100.094C50.8758 99.9856 50.5563 98.1579 49.7857 98.2565Z" fill="#263238"/>
<path d="M49.4429 98.4116C49.2973 98.5384 49.1704 98.7499 48.9731 98.8016C48.7757 98.8532 48.5549 98.6935 48.3763 98.5337C48.3763 98.5337 48.3481 98.5337 48.3481 98.5619C48.4045 98.9143 48.5972 99.2479 48.9825 99.2385C49.3677 99.2291 49.5275 98.8814 49.5557 98.5149C49.5698 98.4445 49.4993 98.3599 49.4429 98.4116Z" fill="#263238"/>
<path d="M53.6579 98.031C53.6579 98.031 53.7049 98.0545 53.7096 98.078C53.7801 98.6465 53.9586 99.2855 54.4989 99.3936V99.4265C53.8599 99.4124 53.6344 98.5619 53.6579 98.031Z" fill="#263238"/>
<path d="M54.0708 97.3357C54.9729 97.1242 55.33 98.9426 54.4937 99.1399C53.6573 99.3373 53.3143 97.5142 54.0708 97.3357Z" fill="#263238"/>
<path d="M54.4753 97.3826C54.635 97.4483 54.8136 97.5987 54.9874 97.5752C55.1613 97.5517 55.2975 97.3215 55.3868 97.1053C55.3868 97.1053 55.415 97.1053 55.4197 97.1053C55.4949 97.4483 55.4526 97.8336 55.1331 97.9652C54.8136 98.0968 54.5551 97.8336 54.4048 97.4953C54.3625 97.4624 54.4095 97.3544 54.4753 97.3826Z" fill="#263238"/>
<path d="M51.1628 103.768C51.3131 103.89 51.4635 104.059 51.6749 104.059C51.8875 104.036 52.0926 103.967 52.2763 103.857C52.2763 103.857 52.3139 103.857 52.3045 103.886C52.2326 104.006 52.1296 104.104 52.0063 104.17C51.8831 104.236 51.7442 104.268 51.6044 104.261C51.4889 104.237 51.3829 104.18 51.2994 104.097C51.2159 104.013 51.1586 103.907 51.1346 103.792C51.097 103.763 51.1393 103.749 51.1628 103.768Z" fill="#263238"/>
<path d="M53.2483 101.174C53.3691 101.579 53.4694 101.99 53.549 102.405C53.549 102.443 53.4598 102.476 53.3282 102.504C52.9944 102.618 52.6358 102.637 52.2918 102.56C51.9478 102.483 51.6317 102.312 51.3783 102.067C51.3713 102.06 51.3672 102.05 51.3667 102.04C51.3663 102.03 51.3695 102.02 51.3757 102.012C51.382 102.004 51.3909 101.998 51.4009 101.997C51.4108 101.995 51.4211 101.996 51.4299 102.001C51.9907 102.276 52.6259 102.36 53.2389 102.241C53.2389 102.128 52.769 100.831 52.8395 100.831C53.1547 100.816 53.4705 100.842 53.7793 100.907C53.3094 99.1586 52.5905 97.5 52.1629 95.738C52.1618 95.7262 52.1645 95.7142 52.1706 95.704C52.1767 95.6937 52.1859 95.6857 52.1969 95.681C52.2078 95.6762 52.22 95.6751 52.2316 95.6778C52.2433 95.6805 52.2538 95.6868 52.2616 95.6958C53.1028 97.4479 53.7655 99.2801 54.2397 101.165C54.2867 101.4 53.4222 101.221 53.2483 101.174Z" fill="#263238"/>
<path d="M53.2862 102.349C53.1243 102.72 52.8704 103.043 52.5485 103.289C52.3697 103.419 52.154 103.488 51.933 103.486C51.4631 103.486 51.3362 103.068 51.3316 102.692C51.3311 102.493 51.3531 102.294 51.3973 102.1C51.9845 102.382 52.6461 102.469 53.2862 102.349Z" fill="#263238"/>
<path d="M52.5485 103.284C52.3697 103.414 52.154 103.483 51.933 103.481C51.4631 103.481 51.3362 103.063 51.3315 102.687C51.5719 102.637 51.8223 102.668 52.0429 102.776C52.2635 102.884 52.4415 103.063 52.5485 103.284Z" fill="#FF9CBD"/>
<path d="M42.301 102.077C43.1844 101.785 44.8524 98.7029 43.767 94.3661C43.767 94.3661 44.4718 98.327 44.3308 98.9707C44.1899 99.6144 45.2706 97.2416 44.4389 93.7318C45.744 94.2229 47.1126 94.5251 48.5032 94.6292C50.2699 94.6292 51.2754 94.3661 51.36 94.2157C51.4445 94.0654 48.8227 93.9479 47.9676 93.37C47.9676 93.37 52.8823 94.2298 54.9403 93.8398C55.18 93.7975 54.1744 88.9298 50.5142 87.7316C46.854 86.5335 42.5031 90.048 41.5211 91.6879C41.5211 91.6879 40.0175 92.3269 38.9415 95.085C37.8655 97.8431 41.3566 102.391 42.301 102.077Z" fill="#263238"/>
<path d="M43.1743 101.762C43.1743 101.762 40.933 99.4641 39.8853 100.305C38.8375 101.146 40.7968 104.684 42.2628 104.971C42.4483 105.023 42.6427 105.037 42.8338 105.011C43.0249 104.986 43.2087 104.921 43.3739 104.822C43.539 104.722 43.682 104.59 43.7939 104.433C43.9059 104.276 43.9844 104.098 44.0247 103.909L43.1743 101.762Z" fill="#D3766A"/>
<path d="M40.4541 101.32C40.4307 101.32 40.4307 101.353 40.4541 101.358C41.4878 101.588 42.1456 102.405 42.6578 103.279C42.5837 103.193 42.4918 103.124 42.3884 103.076C42.285 103.029 42.1725 103.004 42.0587 103.004C41.9449 103.004 41.8325 103.029 41.7291 103.076C41.6257 103.124 41.5338 103.193 41.4596 103.279C41.4362 103.279 41.4596 103.336 41.4972 103.326C41.6584 103.243 41.8415 103.212 42.021 103.239C42.2005 103.265 42.3673 103.346 42.498 103.472C42.7171 103.673 42.914 103.896 43.0854 104.139C43.1465 104.219 43.2921 104.139 43.2451 104.05C43.0478 102.786 41.8026 101.212 40.4541 101.32Z" fill="#263238"/>
<path d="M36.3389 117.991C33.8627 132.035 36.259 142.555 38.6412 143.861C45.0642 147.366 60.4898 140.253 64.8407 138.838C66.5792 138.27 58.5916 124.813 56.7873 125.649C52.5585 127.604 46.6336 130.921 46.3939 130.893C45.9241 130.846 45.3602 127.261 42.9076 116.797C40.92 108.368 37.3538 112.249 36.3389 117.991Z" fill="#D3766A"/>
<path d="M78.8607 118.992C79.3024 120.758 74.8575 121.472 74.8575 121.472C75.5964 121.738 76.2195 122.253 76.6195 122.929C77.2679 124.151 75.6328 125.697 75.6328 125.697C76.3414 126.13 76.903 126.767 77.2444 127.524C77.7471 128.755 76.3046 130.555 76.3046 130.555C76.7356 131.312 76.8791 132.2 76.7087 133.055C76.1637 135.319 72.6914 136.212 70.6522 137.189C68.4674 138.237 64.8494 138.622 63.2096 139.36L56.1006 126.336C56.1006 126.336 62.97 119.062 66.9074 117.934C69.0829 117.295 78.1888 116.295 78.8607 118.992Z" fill="#D3766A"/>
<path d="M74.8109 121.435C72.3394 121.327 69.8444 121.811 67.4434 122.304C67.4351 122.307 67.4279 122.312 67.4229 122.32C67.4178 122.327 67.415 122.335 67.415 122.344C67.415 122.353 67.4178 122.361 67.4229 122.369C67.4279 122.376 67.4351 122.381 67.4434 122.384C69.8256 121.867 72.4052 121.975 74.8015 121.552C74.8146 121.55 74.8266 121.543 74.8355 121.533C74.8445 121.523 74.8499 121.51 74.851 121.497C74.8521 121.484 74.8487 121.47 74.8415 121.459C74.8342 121.448 74.8235 121.439 74.8109 121.435Z" fill="#263238"/>
<path d="M75.5062 125.537C74.9424 125.566 74.3849 125.669 73.8476 125.842C73.2697 125.993 72.6965 126.152 72.1185 126.312C70.9721 126.65 69.8303 127.012 68.7026 127.407C68.6509 127.407 68.665 127.505 68.7026 127.491C69.8444 127.158 70.9956 126.843 72.1561 126.552C72.734 126.406 73.3167 126.27 73.8946 126.133C74.4536 126.037 75.0003 125.879 75.525 125.664C75.533 125.654 75.5389 125.644 75.5423 125.632C75.5457 125.62 75.5465 125.608 75.5447 125.596C75.543 125.584 75.5386 125.572 75.5319 125.562C75.5253 125.552 75.5165 125.543 75.5062 125.537Z" fill="#263238"/>
<path d="M76.2771 130.569C75.7668 130.601 75.266 130.722 74.7971 130.926L73.2324 131.396C72.1893 131.715 71.1462 132.03 70.0937 132.312C70.0421 132.312 70.0562 132.411 70.0937 132.397C71.165 132.115 72.241 131.852 73.3123 131.56C73.8338 131.419 74.3601 131.274 74.8816 131.123C75.3793 131.039 75.8572 130.864 76.2912 130.607C76.2928 130.603 76.2937 130.6 76.2938 130.596C76.294 130.592 76.2934 130.588 76.292 130.585C76.2907 130.581 76.2887 130.578 76.2862 130.575C76.2836 130.573 76.2805 130.57 76.2771 130.569Z" fill="#263238"/>
<path d="M46.3755 130.893C48.0576 129.925 49.7632 129.014 51.4735 128.074L54.0624 126.73L55.3639 126.077C55.8065 125.846 56.2632 125.644 56.7312 125.471L56.6467 125.518C57.7931 124.404 58.9443 123.3 60.1612 122.262C60.7627 121.74 61.3735 121.223 62.0078 120.739C62.633 120.239 63.2994 119.793 64 119.405C63.3398 119.845 62.7117 120.332 62.1206 120.862C61.5191 121.378 60.9224 121.905 60.3398 122.45C59.1839 123.54 58.0234 124.63 56.9051 125.739L56.8769 125.762L56.8205 125.786C56.4211 125.931 55.9607 126.171 55.5331 126.368L54.2222 127.007L51.6238 128.309C49.8854 129.197 48.1516 130.066 46.3755 130.893Z" fill="#263238"/>
<path d="M33.9517 130.207L45.1767 124.569C45.1767 124.569 43.7671 118.414 42.5125 115.115C40.8492 110.755 38.8429 110.351 36.8742 115.717C35.5304 119.311 33.9517 130.207 33.9517 130.207Z" fill="#EBEBEB"/>
<path d="M34.558 128.572C36.1321 127.632 37.7202 126.73 39.3459 125.894C40.1588 125.476 40.981 125.067 41.8033 124.672C42.6256 124.277 43.4948 123.972 44.3124 123.568C44.3547 123.568 44.3875 123.62 44.3406 123.638C43.5089 123.996 42.7101 124.475 41.8973 124.884C41.0844 125.292 40.2622 125.701 39.4493 126.119C37.8236 126.951 36.1931 127.778 34.5862 128.647C34.5439 128.666 34.5157 128.596 34.558 128.572Z" fill="#263238"/>
<path d="M35.2954 129.512C34.8632 129.775 34.4262 130.019 33.9939 130.268L33.8389 130.357L33.8624 130.174C34.0315 128.619 34.2523 127.078 34.5249 125.541C34.7974 124.005 35.1122 122.473 35.5304 120.97C35.4364 121.745 35.333 122.515 35.2156 123.286C35.0981 124.057 34.99 124.827 34.8632 125.598C34.6188 127.134 34.3416 128.671 34.0409 130.202L33.9093 130.104C34.3698 129.925 34.8256 129.718 35.2954 129.512Z" fill="#263238"/>
<path d="M34.9149 122.534C34.936 122.894 34.936 123.255 34.9149 123.615C34.904 123.975 34.8742 124.334 34.8256 124.691C34.766 123.972 34.7881 123.248 34.8914 122.534H34.9149Z" fill="#263238"/>
<path d="M43.8097 125.283C44.2421 125.021 44.6874 124.781 45.1441 124.564C44.9609 123.841 44.7682 123.126 44.5944 122.403C44.5051 122.041 44.4252 121.679 44.35 121.317C44.2749 120.956 44.148 120.462 44.0728 120.11C44.0728 120.053 44.1339 120.035 44.148 120.086C44.2936 120.556 44.3829 120.88 44.5051 121.27C44.6273 121.66 44.7118 121.975 44.8058 122.328C44.9984 123.075 45.2381 123.864 45.3978 124.62C44.8916 124.891 44.3672 125.127 43.8285 125.325C43.8231 125.327 43.8175 125.326 43.8125 125.324C43.8075 125.321 43.8036 125.317 43.8013 125.312C43.7991 125.307 43.7987 125.301 43.8002 125.296C43.8018 125.291 43.8051 125.286 43.8097 125.283Z" fill="#263238"/>
<path d="M44.7066 120.584C44.7817 121.028 44.7817 121.48 44.7066 121.923C44.6252 121.481 44.6252 121.027 44.7066 120.584Z" fill="#263238"/>
<path d="M88.8461 138.153H56.1719V139.619H88.8461V138.153Z" fill="#C7C7C7"/>
<path d="M63.1627 138.153L62.0444 139.619H88.8454V138.153H63.1627Z" fill="#A6A6A6"/>
<path d="M64.563 139.614H96.4055L99.0555 117.991H67.213L64.563 139.614Z" fill="#C7C7C7"/>
<path d="M79.8711 128.802C79.8628 129.056 79.9061 129.309 79.9983 129.546C80.0906 129.782 80.2298 129.998 80.4077 130.179C80.5855 130.361 80.7983 130.504 81.0332 130.601C81.268 130.698 81.52 130.746 81.7741 130.743C82.2911 130.74 82.7867 130.536 83.1553 130.174C83.524 129.811 83.7365 129.319 83.7475 128.802C83.755 128.551 83.712 128.3 83.6209 128.066C83.5299 127.831 83.3926 127.617 83.2173 127.437C83.0421 127.256 82.8323 127.113 82.6005 127.015C82.3688 126.917 82.1197 126.866 81.868 126.866C81.3474 126.861 80.8458 127.062 80.4719 127.424C80.0981 127.787 79.8822 128.282 79.8711 128.802Z" fill="white"/>
<path d="M98.7976 120.082C99.9957 121.933 102.961 124.099 103.369 125.687C103.485 126.075 103.471 126.49 103.332 126.871C103.192 127.251 102.933 127.576 102.594 127.797C102.594 127.797 104.309 128.389 104.441 129.892C104.511 130.663 103.332 131.452 103.332 131.452C103.332 131.452 104.69 131.983 104.741 133.332C104.77 134.403 103.585 135.033 103.585 135.033C103.585 135.033 104.647 136.151 104.328 137.25C103.675 139.482 94.5594 140.685 92.7082 137.514C91.8436 136.038 94.0895 135.864 94.0895 135.864C94.0895 135.864 90.8005 135.333 90.5045 133.459C90.2085 131.584 93.1357 131.537 93.1357 131.537C93.1357 131.537 89.9595 130.997 89.8467 129.023C89.7292 126.97 92.6659 127.426 92.6659 127.426C92.6659 127.426 90.4575 126.317 90.7206 124.785C91.1482 122.262 96.359 124.945 98.2901 124.207L98.7976 120.082Z" fill="#D3766A"/>
<path d="M103.396 135.15C103.402 135.15 103.408 135.153 103.413 135.157C103.417 135.161 103.42 135.167 103.42 135.174C103.42 135.18 103.417 135.186 103.413 135.19C103.408 135.195 103.402 135.197 103.396 135.197C100.384 136.379 97.0836 136.617 93.9332 135.878C93.8345 135.85 93.8298 135.681 93.9332 135.686C97.0968 135.969 100.285 135.789 103.396 135.15Z" fill="#263238"/>
<path d="M103.378 131.466C103.416 131.466 103.425 131.513 103.378 131.527C100.38 132.674 96.3912 132.937 93.0082 131.631C92.8908 131.584 92.8344 131.429 92.9706 131.471C95.3011 132.181 100.474 132.105 103.378 131.466Z" fill="#263238"/>
<path d="M92.4211 127.242C95.7101 128.389 99.0461 128.365 102.462 127.848C102.504 127.848 102.509 127.905 102.462 127.924C100.86 128.628 98.6467 128.732 96.9177 128.666C95.3133 128.637 93.7449 128.186 92.3694 127.36C92.3365 127.327 92.36 127.219 92.4211 127.242Z" fill="#263238"/>
<path d="M163.393 181.878C162.947 183.085 141.061 210.295 139.571 210.803C139.007 211 134.873 208.044 129.944 204.328C128.887 203.524 127.797 202.693 126.692 201.838C119.527 196.303 112.056 190.26 112.056 190.26L126.622 172.02L140.859 184.096L143.983 186.746C143.983 186.746 157.022 180.078 158.718 179.698C160.414 179.317 163.84 180.675 163.393 181.878Z" fill="#D3766A"/>
<path d="M163.398 181.883C162.928 183.085 141.061 210.295 139.571 210.807C139.078 210.981 135.845 208.74 131.753 205.691C135.93 202.65 151.783 188.371 153.912 184.504C155.03 182.47 153.395 182.484 151.393 183.048C154.682 181.436 157.948 179.876 158.742 179.693C160.433 179.317 163.84 180.675 163.398 181.883Z" fill="#263238"/>
<path d="M140.117 181.342L124.936 201.828L73.7208 166.279L68.7637 162.872C68.7637 162.872 67.3541 163.812 65.2585 164.977C62.336 166.593 58.0509 168.642 54.2591 169.206C47.8971 170.146 37.2783 170.047 31.9171 162.877C27.4018 156.844 29.8544 148.969 29.8544 148.969L36.8366 145.957C36.8366 145.957 53.3616 132.19 64.0886 131.777C68.6321 131.593 75.2525 135.066 81.3842 138.641C87.5159 142.217 140.117 181.342 140.117 181.342Z" fill="#37474F"/>
<path d="M68.7637 162.872C68.7637 162.872 67.3541 163.812 65.2585 164.977C61.5372 160.523 53.6576 152.427 53.418 152.14L68.7637 162.872Z" fill="#263238"/>
<path d="M42.8925 141.329C41.9058 142.015 40.9473 142.738 39.9747 143.448C39.0021 144.157 38.0247 144.792 37.1132 145.548C36.2017 146.305 35.3089 147.141 34.435 147.968C34.0168 148.367 33.5986 148.771 33.1899 149.185C32.7599 149.583 32.3624 150.015 32.0011 150.477C31.9682 150.519 32.034 150.571 32.0716 150.548C32.536 150.216 32.9786 149.855 33.3966 149.467C33.8665 149.077 34.3363 148.682 34.778 148.292C35.666 147.536 36.5729 146.803 37.4562 146.046C38.3396 145.29 39.1524 144.472 40.0264 143.697C40.9003 142.922 41.9434 142.118 42.9113 141.348C42.9301 141.348 42.9113 141.315 42.8925 141.329Z" fill="#263238"/>
<path d="M136.555 180.609C135.568 181.671 134.675 182.818 133.736 183.941C132.796 185.064 131.899 186.201 130.987 187.333C129.169 189.612 127.332 191.872 125.541 194.174C124.559 195.438 123.587 196.711 122.675 198.022C122.633 198.083 122.727 198.149 122.774 198.097C124.733 195.941 126.533 193.643 128.342 191.374C130.151 189.104 131.974 186.835 133.769 184.509C134.746 183.25 135.756 181.995 136.654 180.675C136.677 180.623 136.588 180.562 136.555 180.609Z" fill="#263238"/>
<path d="M94.5072 180.821C91.9606 178.81 89.3152 176.911 86.6746 175.027C84.034 173.143 81.4168 171.268 78.748 169.455C77.9822 168.933 77.2069 168.421 76.4363 167.909C75.6657 167.397 74.8623 166.922 74.1105 166.391C74.0635 166.363 74.0259 166.433 74.0682 166.466C74.7636 166.964 75.4167 167.519 76.098 168.036C76.7793 168.553 77.3948 169.027 78.0479 169.511C79.3307 170.451 80.6228 171.39 81.9149 172.33C84.5336 174.21 87.1727 176.073 89.8321 177.922C91.345 178.955 92.8486 179.998 94.3944 180.985C94.4884 181.032 94.5965 180.886 94.5072 180.821Z" fill="#263238"/>
<path d="M110.891 159.682C108.542 157.732 106.014 155.974 103.543 154.17C101.071 152.366 98.5622 150.501 96.0531 148.692C93.5441 146.883 91.082 145.092 88.5917 143.298C86.1814 141.554 83.7804 139.783 81.2337 138.237C79.8241 137.396 78.4145 136.611 76.9439 135.888C75.5195 135.159 74.0357 134.552 72.5084 134.074C72.4978 134.07 72.4859 134.07 72.4753 134.074C72.4647 134.079 72.4563 134.087 72.452 134.098C72.4476 134.108 72.4476 134.12 72.4521 134.131C72.4565 134.141 72.4649 134.15 72.4755 134.154C73.7347 134.854 75.0503 135.441 76.3236 136.118C77.597 136.795 78.8139 137.49 80.0309 138.228C82.5587 139.764 84.9456 141.517 87.3419 143.227C92.3224 146.807 97.2936 150.407 102.312 153.94C105.131 155.913 107.865 158 110.769 159.818C110.873 159.893 110.976 159.752 110.891 159.682Z" fill="#263238"/>
<path d="M104.015 110.237C105.325 102.247 99.9094 94.7084 91.9197 93.3986C83.93 92.0888 76.3913 97.5039 75.0815 105.494C73.7718 113.483 79.1869 121.022 87.1765 122.332C95.1662 123.642 102.705 118.226 104.015 110.237Z" fill="#228276"/>
<path d="M98.0822 117.328H80.998V102.875L89.5401 97.453L98.0822 102.875V117.328Z" fill="#A6A6A6"/>
<path d="M97.1198 117.183H81.9668V98.1954H93.22L97.1198 101.907V117.183Z" fill="white"/>
<path d="M93.2192 98.1954L97.1191 101.907H93.2192V98.1954Z" fill="#EBEBEB"/>
<path d="M83.446 101.964H91.8706V101.466H83.446V101.964Z" fill="#DBDBDB"/>
<path d="M83.446 103.223H91.8706V102.725H83.446V103.223Z" fill="#DBDBDB"/>
<path d="M83.446 104.482H91.8706V103.984H83.446V104.482Z" fill="#DBDBDB"/>
<path d="M83.4421 105.746H95.79V105.248H83.4421V105.746Z" fill="#DBDBDB"/>
<path d="M83.4421 107.005H95.79V106.507H83.4421V107.005Z" fill="#DBDBDB"/>
<path d="M83.4421 108.269H95.79V107.771H83.4421V108.269Z" fill="#DBDBDB"/>
<path d="M83.4421 109.528H95.79V109.03H83.4421V109.528Z" fill="#DBDBDB"/>
<path d="M83.4421 110.788H95.79V110.29H83.4421V110.788Z" fill="#DBDBDB"/>
<path d="M83.4421 112.052H95.79V111.554H83.4421V112.052Z" fill="#DBDBDB"/>
<path d="M83.4421 113.311H95.79V112.813H83.4421V113.311Z" fill="#DBDBDB"/>
<path d="M83.4421 114.575H95.79V114.077H83.4421V114.575Z" fill="#DBDBDB"/>
<path d="M83.4421 115.834H95.79V115.336H83.4421V115.834Z" fill="#DBDBDB"/>
<path d="M98.0829 106.488V117.323H81.0034V106.488C81.7364 106.902 82.4553 107.339 83.1836 107.766C83.9119 108.194 84.6308 108.631 85.3449 109.073C86.1468 109.561 86.9472 110.056 87.7459 110.557L89.5408 111.68L91.331 110.557H91.3075H91.3357L93.732 109.077C94.4509 108.636 95.1745 108.203 95.898 107.771C96.6216 107.339 97.3499 106.907 98.0829 106.488Z" fill="#EBEBEB"/>
<path d="M98.0829 106.488C97.3969 106.958 96.6733 107.428 95.9967 107.898C95.3201 108.368 94.5871 108.838 93.887 109.308C93.1869 109.777 92.4117 110.271 91.674 110.745L91.6082 110.792L89.6395 112.047L89.5408 112.103L89.4468 112.047L87.4828 110.788L87.4123 110.745C86.67 110.272 85.9307 109.793 85.1946 109.308C84.4945 108.838 83.785 108.368 83.0896 107.898C82.3942 107.428 81.68 106.958 81.0034 106.488C81.7364 106.902 82.4553 107.339 83.1836 107.766C83.9119 108.194 84.6308 108.631 85.3449 109.073C86.1468 109.561 86.9472 110.056 87.7459 110.557L89.5408 111.68L91.331 110.557L93.7273 109.077C94.4462 108.636 95.1698 108.203 95.8933 107.771C96.6169 107.339 97.3499 106.907 98.0829 106.488Z" fill="#DBDBDB"/>
<path d="M87.7692 110.548L87.5014 110.778C87.0738 111.14 86.6321 111.488 86.1858 111.821C85.6407 112.239 85.0863 112.634 84.5271 113.029C83.968 113.424 83.3995 113.804 82.8216 114.171C82.2436 114.537 81.6657 114.904 81.0596 115.232C81.5811 114.763 82.1168 114.359 82.6618 113.945C83.2068 113.532 83.766 113.132 84.3204 112.738C84.8748 112.343 85.4481 111.962 86.026 111.591C86.4959 111.295 86.9657 111.008 87.4356 110.736C87.5437 110.67 87.6564 110.609 87.7692 110.548Z" fill="#DBDBDB"/>
<path d="M98.0598 115.247C97.4537 114.918 96.871 114.556 96.2978 114.185C95.7246 113.814 95.156 113.433 94.5875 113.043C94.019 112.653 93.4739 112.254 92.9289 111.835C92.4872 111.502 92.0456 111.159 91.6227 110.797L91.3502 110.562H91.3267H91.3549L91.6885 110.755C92.1583 111.027 92.6282 111.314 93.098 111.61C93.6713 111.981 94.2398 112.366 94.7989 112.756C95.3581 113.146 95.9172 113.546 96.4576 113.964C96.9979 114.382 97.5241 114.796 98.0598 115.247Z" fill="#DBDBDB"/>
<path d="M93.0437 105.512C93.5014 103.581 92.3065 101.644 90.3748 101.186C88.4431 100.728 86.5062 101.923 86.0485 103.855C85.5908 105.787 86.7857 107.724 88.7173 108.181C90.649 108.639 92.586 107.444 93.0437 105.512Z" fill="#228276"/>
<path d="M87.7222 104.98C88.2356 105.409 88.7221 105.868 89.1787 106.357L88.8498 106.38C89.0284 106.066 89.221 105.76 89.4184 105.441C89.6157 105.121 89.8131 104.834 90.0245 104.543C90.4382 103.946 90.8918 103.378 91.3824 102.842C91.095 103.51 90.7605 104.157 90.3816 104.778C90.203 105.088 90.001 105.394 89.8084 105.718C89.6157 106.042 89.409 106.319 89.1928 106.615L89.0284 106.846L88.8639 106.639C88.448 106.111 88.0666 105.557 87.7222 104.98Z" fill="white"/>
</svg>
