<svg width="22" height="22" viewBox="0 0 22 22" fill="none" xmlns="http://www.w3.org/2000/svg">
<path d="M9.13308 17.6255C9.59133 17.5286 12.3837 17.5286 12.8419 17.6255C13.2337 17.716 13.6573 17.9274 13.6573 18.389C13.6345 18.8285 13.3767 19.2181 13.0205 19.4655C12.5586 19.8256 12.0165 20.0536 11.4499 20.1358C11.1365 20.1764 10.8285 20.1773 10.5261 20.1358C9.95848 20.0536 9.41641 19.8256 8.95542 19.4646C8.5983 19.2181 8.34047 18.8285 8.3177 18.389C8.3177 17.9274 8.74133 17.716 9.13308 17.6255ZM11.0416 1.83325C12.9484 1.83325 14.8962 2.73802 16.0532 4.23919C16.8039 5.20582 17.1483 6.17152 17.1483 7.67269V8.06322C17.1483 9.21449 17.4526 9.89307 18.1222 10.675C18.6297 11.2511 18.7918 11.9906 18.7918 12.7929C18.7918 13.5943 18.5285 14.355 18.001 14.9727C17.3105 15.7131 16.3366 16.1858 15.3426 16.268C13.9023 16.3908 12.461 16.4942 11.0006 16.4942C9.53931 16.4942 8.09896 16.4323 6.6586 16.268C5.66375 16.1858 4.68985 15.7131 4.00019 14.9727C3.4727 14.355 3.2085 13.5943 3.2085 12.7929C3.2085 11.9906 3.37157 11.2511 3.87811 10.675C4.56868 9.89307 4.85292 9.21449 4.85292 8.06322V7.67269C4.85292 6.1309 5.23738 5.12273 6.02907 4.13579C7.20614 2.69647 9.0929 1.83325 10.9596 1.83325H11.0416Z" fill="#333333" fill-opacity="0.75"/>
</svg>
