<svg width="16" height="16" viewBox="0 0 16 16" fill="none" xmlns="http://www.w3.org/2000/svg">
<path fill-rule="evenodd" clip-rule="evenodd" d="M2.26962 2.79549C2.27112 2.79549 2.23362 2.83449 2.18637 2.88099C2.00487 3.05724 1.62912 3.42399 1.62533 4.19124C1.61937 5.26449 2.32512 7.25724 5.72337 10.6547C9.10587 14.0357 11.0956 14.7497 12.1711 14.7497H12.1869C12.9541 14.746 13.3201 14.3695 13.4971 14.1887C13.5511 14.1332 13.5946 14.0927 13.6254 14.0672C14.3724 13.3157 14.7549 12.7562 14.7511 12.3977C14.7459 12.0317 14.2906 11.599 13.6614 11.0005C13.4611 10.81 13.2436 10.603 13.0141 10.3735C12.4194 9.78024 12.1246 9.88149 11.4766 10.1095C10.5804 10.4237 9.35037 10.8512 7.43937 8.93949C5.52537 7.02699 5.95362 5.79849 6.26712 4.90224C6.49362 4.25424 6.59712 3.95874 6.00162 3.36324C5.76837 3.13074 5.55912 2.91024 5.36637 2.70774C4.77162 2.08224 4.34262 1.62999 3.97887 1.62474H3.97287C3.61362 1.62474 3.05562 2.00874 2.26587 2.79849C2.26812 2.79624 2.26962 2.79549 2.26962 2.79549ZM12.1719 15.8747C10.3029 15.8747 7.86612 14.3867 4.92837 11.4505C1.97937 8.50224 0.48912 6.05799 0.500307 4.18524C0.50712 2.94774 1.15587 2.31399 1.39962 2.07624C1.41237 2.06049 1.45587 2.01774 1.47087 2.00274C2.54637 0.926489 3.27162 0.491489 3.99312 0.499624C4.83087 0.510989 5.42712 1.13799 6.18162 1.93224C6.36837 2.12874 6.57087 2.34249 6.79662 2.56749C7.89162 3.66249 7.57962 4.55574 7.32912 5.27274C7.05612 6.05499 6.81987 6.72999 8.23437 8.14449C9.65037 9.55899 10.3254 9.32274 11.1046 9.04749C11.8224 8.79699 12.7134 8.48349 13.8099 9.57849C14.0319 9.80049 14.2426 10.0007 14.4369 10.186C15.2349 10.9442 15.8649 11.5435 15.8755 12.3835C15.8844 13.0997 15.4494 13.8295 14.3754 14.9042L13.8999 14.5817L14.3019 14.9747C14.0641 15.2185 13.4311 15.868 12.1929 15.8747H12.1719Z" fill="#333333" fill-opacity="0.75"/>
</svg>
