<svg width="8" height="8" viewBox="0 0 8 8" fill="none" xmlns="http://www.w3.org/2000/svg">
<path d="M7 4.49902H4.5V6.99902C4.5 7.13163 4.44732 7.25881 4.35355 7.35258C4.25979 7.44634 4.13261 7.49902 4 7.49902C3.86739 7.49902 3.74021 7.44634 3.64645 7.35258C3.55268 7.25881 3.5 7.13163 3.5 6.99902V4.49902H1C0.867392 4.49902 0.740215 4.44634 0.646447 4.35258C0.552679 4.25881 0.5 4.13163 0.5 3.99902C0.5 3.86642 0.552679 3.73924 0.646447 3.64547C0.740215 3.5517 0.867392 3.49902 1 3.49902H3.5V0.999023C3.5 0.866415 3.55268 0.739238 3.64645 0.64547C3.74021 0.551702 3.86739 0.499023 4 0.499023C4.13261 0.499023 4.25979 0.551702 4.35355 0.64547C4.44732 0.739238 4.5 0.866415 4.5 0.999023V3.49902H7C7.13261 3.49902 7.25979 3.5517 7.35355 3.64547C7.44732 3.73924 7.5 3.86642 7.5 3.99902C7.5 4.13163 7.44732 4.25881 7.35355 4.35258C7.25979 4.44634 7.13261 4.49902 7 4.49902Z" fill="#228276"/>
</svg>
