<svg width="6" height="10" viewBox="0 0 6 10" fill="none" xmlns="http://www.w3.org/2000/svg">
<path d="M0.578125 9.55C0.453125 9.425 0.390625 9.277 0.390625 9.106C0.390625 8.935 0.453125 8.78717 0.578125 8.6625L4.24063 5L0.565625 1.325C0.448958 1.20833 0.390625 1.0625 0.390625 0.8875C0.390625 0.7125 0.453125 0.5625 0.578125 0.4375C0.703125 0.3125 0.851125 0.25 1.02213 0.25C1.19313 0.25 1.34096 0.3125 1.46563 0.4375L5.66563 4.65C5.71563 4.7 5.75113 4.75417 5.77213 4.8125C5.79313 4.87083 5.80346 4.93333 5.80313 5C5.80313 5.06667 5.79263 5.12917 5.77163 5.1875C5.75063 5.24583 5.71529 5.3 5.66563 5.35L1.45312 9.5625C1.33646 9.67917 1.19262 9.7375 1.02162 9.7375C0.850625 9.7375 0.702792 9.675 0.578125 9.55Z" fill="white"/>
</svg>
