<svg width="10" height="10" viewBox="0 0 10 10" fill="none" xmlns="http://www.w3.org/2000/svg">
<path d="M6.75031 6.00031H6.35531L6.21531 5.86531C6.81531 5.16531 7.12531 4.21031 6.95531 3.19531C6.72031 1.80531 5.56031 0.695313 4.16031 0.525313C2.04531 0.265313 0.265313 2.04531 0.525313 4.16031C0.695313 5.56031 1.80531 6.72031 3.19531 6.95531C4.21031 7.12531 5.16531 6.81531 5.86531 6.21531L6.00031 6.35531V6.75031L8.12531 8.87531C8.33031 9.08031 8.66531 9.08031 8.87031 8.87531C9.07531 8.67031 9.07531 8.33531 8.87031 8.13031L6.75031 6.00031ZM3.75031 6.00031C2.50531 6.00031 1.50031 4.99531 1.50031 3.75031C1.50031 2.50531 2.50531 1.50031 3.75031 1.50031C4.99531 1.50031 6.00031 2.50531 6.00031 3.75031C6.00031 4.99531 4.99531 6.00031 3.75031 6.00031Z" fill="#333333"/>
</svg>
