<svg width="22" height="22" viewBox="0 0 22 22" fill="none" xmlns="http://www.w3.org/2000/svg">
<path d="M11.6573 1.8335C12.3505 1.8335 12.9782 2.2185 13.3248 2.78683C13.4934 3.06183 13.6058 3.401 13.5777 3.7585C13.559 4.0335 13.6433 4.3085 13.7932 4.56516C14.271 5.34433 15.3295 5.63766 16.1539 5.19766C17.0813 4.666 18.2523 4.98683 18.7863 5.89433L19.4139 6.976C19.9573 7.8835 19.6575 9.04766 18.7207 9.57016C17.9244 10.0377 17.6434 11.0735 18.1212 11.8618C18.2711 12.1093 18.4397 12.3202 18.702 12.4485C19.0299 12.6227 19.2828 12.8977 19.4608 13.1727C19.8074 13.741 19.7793 14.4377 19.4421 15.0518L18.7863 16.1518C18.4397 16.7385 17.7933 17.1052 17.1282 17.1052C16.8003 17.1052 16.4349 17.0135 16.1352 16.8302C15.8916 16.6743 15.6106 16.6193 15.3108 16.6193C14.3834 16.6193 13.6058 17.3802 13.5777 18.2877C13.5777 19.3418 12.7159 20.1668 11.6386 20.1668H10.3645C9.27784 20.1668 8.41599 19.3418 8.41599 18.2877C8.39725 17.3802 7.61971 16.6193 6.69228 16.6193C6.38314 16.6193 6.1021 16.6743 5.86791 16.8302C5.56813 17.0135 5.19341 17.1052 4.8749 17.1052C4.20041 17.1052 3.55402 16.7385 3.20741 16.1518L2.56102 15.0518C2.21441 14.456 2.19567 13.741 2.54229 13.1727C2.69217 12.8977 2.97321 12.6227 3.29172 12.4485C3.55402 12.3202 3.72265 12.1093 3.8819 11.8618C4.3503 11.0735 4.06926 10.0377 3.27299 9.57016C2.34556 9.04766 2.04579 7.8835 2.57976 6.976L3.20741 5.89433C3.75075 4.98683 4.91238 4.666 5.84917 5.19766C6.66418 5.63766 7.72276 5.34433 8.20052 4.56516C8.35041 4.3085 8.43472 4.0335 8.41599 3.7585C8.39725 3.401 8.5003 3.06183 8.67829 2.78683C9.0249 2.2185 9.65255 1.85183 10.3364 1.8335H11.6573ZM11.0109 8.41516C9.54014 8.41516 8.35041 9.57016 8.35041 11.0093C8.35041 12.4485 9.54014 13.5943 11.0109 13.5943C12.4817 13.5943 13.6433 12.4485 13.6433 11.0093C13.6433 9.57016 12.4817 8.41516 11.0109 8.41516Z" fill="#333333" fill-opacity="0.75"/>
</svg>
