<svg width="25" height="26" viewBox="0 0 25 26" fill="none" xmlns="http://www.w3.org/2000/svg">
<path d="M8.14121 12.7708H6.87535C6.74931 12.7708 6.64278 12.8133 6.57648 12.8686C6.51283 12.9216 6.5 12.9719 6.5 13.0003V14.8239V14.8241C6.49992 15.0228 6.55802 15.2241 6.67744 15.4114C6.79746 15.5996 6.97737 15.7699 7.20925 15.9003C7.44122 16.0308 7.71369 16.1147 8.00281 16.1401C8.09681 16.1483 8.191 16.1502 8.28444 16.146C8.17949 15.8371 8.12532 15.5144 8.12605 15.1873M8.14121 12.7708L8.12605 15.1867C8.12605 15.1869 8.12605 15.1871 8.12605 15.1873M8.14121 12.7708C8.13121 12.8459 8.12605 12.9225 8.12605 13.0003V15.1873M8.14121 12.7708L8.12605 15.1873M16.1136 12.7708H17.3795C17.5056 12.7708 17.6121 12.8133 17.6784 12.8686C17.7421 12.9216 17.7549 12.9719 17.7549 13.0003V14.8239V14.8241C17.755 15.0228 17.6969 15.2241 17.5775 15.4114C17.4574 15.5996 17.2775 15.7699 17.0456 15.9003C16.8137 16.0308 16.5412 16.1147 16.2521 16.1401C16.1581 16.1483 16.0639 16.1502 15.9704 16.146C16.0732 15.8431 16.1288 15.5219 16.1288 15.1887V13.0003C16.1288 12.9224 16.1236 12.8459 16.1136 12.7708ZM10.3767 12.7708H10.3767H13.8781C14.0042 12.7708 14.1107 12.8133 14.177 12.8686C14.2407 12.9216 14.2535 12.9719 14.2535 13.0003V15.1885C14.2535 15.1886 14.2535 15.1886 14.2535 15.1887C14.2534 15.3549 14.2223 15.5216 14.1598 15.6834C14.0161 16.0498 13.7108 16.3841 13.2724 16.6077C12.8334 16.8316 12.304 16.9211 11.7829 16.8524C11.2615 16.7835 10.8022 16.5637 10.4808 16.2506C10.1617 15.9396 10.002 15.5616 10.0014 15.1882C10.0014 15.1881 10.0014 15.188 10.0014 15.1879L10.0014 13.0003V12.9982C10.002 12.9696 10.0158 12.92 10.0787 12.8679C10.1451 12.8129 10.2513 12.7708 10.3767 12.7708ZM11.6213 9.20858C11.7798 9.15387 11.952 9.125 12.1274 9.125C12.4852 9.125 12.8139 9.24421 13.044 9.43599C13.2715 9.62555 13.3764 9.861 13.3764 10.0825C13.3764 10.3039 13.2715 10.5394 13.044 10.7289C12.8139 10.9207 12.4852 11.0399 12.1274 11.0399C11.952 11.0399 11.7798 11.011 11.6213 10.9563C11.4628 10.9016 11.3239 10.8231 11.2108 10.7289C11.0979 10.6348 11.0142 10.528 10.9594 10.4176C10.9047 10.3077 10.8785 10.1941 10.8785 10.0825C10.8785 9.97077 10.9047 9.8572 10.9594 9.74726C11.0142 9.63686 11.0979 9.53009 11.2108 9.43599C11.3239 9.34177 11.4628 9.2633 11.6213 9.20858ZM15.4582 10.0576C15.6065 9.93394 15.8244 9.853 16.0665 9.853C16.3086 9.853 16.5265 9.93394 16.6749 10.0576C16.8206 10.179 16.8795 10.3221 16.8795 10.4472C16.8795 10.5723 16.8206 10.7153 16.6749 10.8368C16.5265 10.9604 16.3086 11.0414 16.0665 11.0414C15.8244 11.0414 15.6065 10.9604 15.4582 10.8368C15.3124 10.7153 15.2535 10.5723 15.2535 10.4472C15.2535 10.3221 15.3124 10.179 15.4582 10.0576ZM7.58002 10.0576C7.7284 9.93394 7.94625 9.853 8.18837 9.853C8.43049 9.853 8.64835 9.93394 8.79673 10.0576C8.94245 10.179 9.0014 10.3221 9.0014 10.4472C9.0014 10.5723 8.94245 10.7153 8.79673 10.8368C8.64835 10.9604 8.43049 11.0414 8.18837 11.0414C7.94625 11.0414 7.7284 10.9604 7.58002 10.8368C7.43429 10.7153 7.37535 10.5723 7.37535 10.4472C7.37535 10.3221 7.43429 10.179 7.58002 10.0576Z" fill="#228276" stroke="#228276"/>
<path d="M12.61 4.29007C10.3248 4.27129 8.09072 4.83366 6.22701 5.89686C4.36329 6.96008 2.96528 8.46977 2.23307 10.2103C1.50085 11.9509 1.47203 13.833 2.15074 15.5875C2.82943 17.342 4.1808 18.8789 6.01141 19.9787C6.18718 20.0846 6.30303 20.2421 6.33399 20.4163C6.36494 20.5905 6.30862 20.7675 6.17698 20.9086C6.04531 21.0497 5.84907 21.1432 5.63131 21.1682C5.41356 21.1932 5.19245 21.1476 5.01667 21.0416C2.96275 19.8073 1.4314 18.095 0.630298 16.1373C-0.170788 14.1796 -0.202909 12.0713 0.538285 10.0984C1.27949 8.12555 2.7582 6.3836 4.77388 5.1092C6.78956 3.83481 9.24446 3.08978 11.8053 2.97537L11.8051 2.97038L11.8048 2.96538L11.8048 2.96372L10.1468 1.63113C10.1468 1.63112 10.1467 1.63111 10.1467 1.6311C9.99597 1.50562 9.91282 1.33783 9.9147 1.16395C9.91658 0.990051 10.0034 0.823421 10.1569 0.700052C10.3104 0.576661 10.5182 0.506544 10.7357 0.505025C10.9532 0.503506 11.1625 0.570696 11.3187 0.69191C11.3187 0.691922 11.3187 0.691934 11.3187 0.691946L14.8533 3.53282C15.0085 3.65759 15.0954 3.82654 15.0954 4.00241C15.0954 4.17827 15.0085 4.34722 14.8533 4.472L11.3187 7.31287C11.3187 7.31288 11.3187 7.31289 11.3187 7.3129C11.1625 7.43411 10.9532 7.50131 10.7357 7.49979C10.5182 7.49827 10.3104 7.42815 10.1569 7.30476C10.0034 7.18139 9.91658 7.01476 9.9147 6.84086C9.91282 6.66698 9.99597 6.49919 10.1467 6.37371C10.1468 6.3737 10.1468 6.37369 10.1468 6.37368L12.7348 4.29227L12.7316 4.28837L12.7285 4.28448L12.7279 4.28374L12.7311 4.2834C12.6929 4.28741 12.6498 4.29007 12.61 4.29007ZM12.61 4.29007C12.61 4.29007 12.61 4.29007 12.61 4.29007L12.61 4.29507V4.29007C12.61 4.29007 12.61 4.29007 12.61 4.29007ZM12.2667 21.7116L12.2698 21.7155L12.2704 21.7162L12.2673 21.7166C12.3074 21.712 12.3478 21.7098 12.3883 21.7099C14.6736 21.729 16.908 21.1668 18.772 20.1037C20.636 19.0406 22.0343 17.5309 22.7667 15.7903C23.4991 14.0497 23.5281 12.1675 22.8494 10.4128C22.1707 8.65818 20.8193 7.12115 18.9886 6.02133C18.9016 5.96887 18.8283 5.90319 18.773 5.82809C18.7177 5.75299 18.6813 5.66994 18.666 5.58367C18.6507 5.49742 18.6566 5.40958 18.6835 5.32515C18.7105 5.24071 18.7578 5.16128 18.823 5.09142C18.8882 5.02156 18.9699 4.96264 19.0636 4.91808C19.1572 4.87352 19.2609 4.8442 19.3687 4.83182C19.4765 4.81945 19.5863 4.82426 19.6917 4.84597C19.7972 4.86769 19.8963 4.90589 19.9833 4.95835C22.0372 6.1927 23.5686 7.90504 24.3697 9.86274C25.1708 11.8204 25.2029 13.9287 24.4617 15.9016C23.7205 17.8745 22.2418 19.6164 20.2261 20.8908C18.2104 22.1652 15.7555 22.9102 13.1947 23.0246L13.1949 23.0296L13.1952 23.0346L13.1952 23.0363L14.8532 24.3689C14.8532 24.3689 14.8532 24.3689 14.8532 24.3689C15.004 24.4944 15.0872 24.6622 15.0853 24.8361C15.0834 25.0099 14.9966 25.1766 14.8431 25.2999C14.6896 25.4233 14.4818 25.4935 14.2643 25.495C14.0468 25.4965 13.8375 25.4293 13.6813 25.3081L10.1467 22.4672C9.9915 22.3424 9.90461 22.1735 9.90461 21.9976C9.90461 21.8217 9.9915 21.6528 10.1467 21.528L13.6813 18.6871L13.6814 18.687C13.7578 18.6235 13.8492 18.5727 13.9503 18.5378C14.0514 18.5029 14.1602 18.4845 14.2704 18.4838C14.3805 18.483 14.4896 18.4998 14.5915 18.5333C14.6934 18.5668 14.7859 18.6163 14.8636 18.6788C14.9414 18.7413 15.0028 18.8155 15.0443 18.8971C15.0859 18.9787 15.1067 19.0661 15.1058 19.1542C15.1048 19.2423 15.0821 19.3294 15.0388 19.4104C14.9954 19.4914 14.9324 19.5648 14.8534 19.6262L14.8533 19.6263L12.2636 21.7077L12.2667 21.7116Z" fill="#228276" stroke="#228276" stroke-width="0.01"/>
</svg>
