<svg width="25" height="26" viewBox="0 0 25 26" fill="none" xmlns="http://www.w3.org/2000/svg">
<path fill-rule="evenodd" clip-rule="evenodd" d="M15.5184 3.4602C15.9496 3.4602 16.2996 3.8102 16.2996 4.24145C16.2996 4.67269 15.9496 5.02269 15.5184 5.02269H7.94753C5.33503 5.02269 3.64648 6.81853 3.64648 9.59978V18.0185C3.64648 20.8362 5.2944 22.5862 7.94753 22.5862H16.91C19.5225 22.5862 21.2111 20.7935 21.2111 18.0185V10.6862C21.2111 10.255 21.5611 9.90499 21.9923 9.90499C22.4236 9.90499 22.7736 10.255 22.7736 10.6862V18.0185C22.7736 21.6852 20.4173 24.1487 16.91 24.1487H7.94753C4.44023 24.1487 2.08398 21.6852 2.08398 18.0185V9.59978C2.08398 5.9279 4.44023 3.4602 7.94753 3.4602H15.5184ZM17.7219 10.5746C18.0636 10.8392 18.1261 11.3298 17.8615 11.6704L14.8094 15.6079C14.6823 15.7725 14.4948 15.8798 14.2886 15.9048C14.0802 15.9329 13.874 15.8725 13.7094 15.7444L10.774 13.4381L8.13753 16.8642C7.98336 17.0642 7.75211 17.1694 7.51773 17.1694C7.35107 17.1694 7.18336 17.1162 7.04169 17.0079C6.70003 16.7444 6.63544 16.2537 6.89898 15.9121L10.0167 11.86C10.1438 11.6944 10.3323 11.5871 10.5386 11.561C10.749 11.5339 10.9552 11.5923 11.1188 11.7225L14.0563 14.0298L16.6261 10.7142C16.8907 10.3714 17.3802 10.3079 17.7219 10.5746ZM20.8 2.58301C22.3354 2.58301 23.5834 3.83092 23.5834 5.36634C23.5834 6.90176 22.3354 8.15071 20.8 8.15071C19.2656 8.15071 18.0167 6.90176 18.0167 5.36634C18.0167 3.83092 19.2656 2.58301 20.8 2.58301ZM20.8 4.14551C20.1271 4.14551 19.5792 4.69238 19.5792 5.36634C19.5792 6.03926 20.1271 6.58822 20.8 6.58822C21.4729 6.58822 22.0209 6.03926 22.0209 5.36634C22.0209 4.69238 21.4729 4.14551 20.8 4.14551Z" fill="#FFFFFF"/>
</svg>
