<svg width="185" height="30" viewBox="0 0 185 30" fill="none" xmlns="http://www.w3.org/2000/svg">
<path d="M34.4787 15.9141C34.4805 15.9042 34.4768 15.8979 34.4677 15.8952C34.4686 15.8094 34.4594 15.7308 34.3483 15.7164C34.2941 15.562 34.25 15.4031 34.1848 15.2533C33.991 14.8091 33.7798 14.3721 33.5943 13.9252C33.4382 13.5488 33.2802 13.1678 33.0892 12.8139C32.9266 12.5124 32.8045 12.1991 32.664 11.8912C32.6502 11.7017 32.5501 11.5355 32.4803 11.3694C32.2057 10.7122 31.9146 10.0604 31.5876 9.4266C31.1679 8.61318 30.7749 7.78441 30.3102 6.99356C29.9492 6.37875 29.5332 5.79464 29.0878 5.24483C28.5946 4.63635 28.0197 4.09196 27.3429 3.6541C26.2969 2.97791 25.1856 2.60505 23.921 2.73144C23.403 2.7829 22.9016 2.88311 22.4231 3.08985C21.6324 3.43111 20.9207 3.88702 20.3136 4.4919C20.096 4.70947 19.9132 4.96045 19.7084 5.19067C19.1546 5.8136 18.7074 6.50965 18.3391 7.24634C18.0829 7.75913 17.8046 8.26199 17.5741 8.78922C17.3353 9.33542 17.0745 9.87439 16.8523 10.4269C16.6217 11.0011 16.3738 11.568 16.1405 12.1413C15.854 12.8491 15.6088 13.5722 15.3103 14.2755C15.0541 14.8804 14.8603 15.5115 14.6022 16.1163C14.3313 16.7492 14.1238 17.4046 13.8749 18.0447C13.6545 18.6144 13.4129 19.1768 13.176 19.7384C12.9436 20.2873 12.7104 20.8407 12.4266 21.3697C12.3228 21.5629 12.242 21.571 12.096 21.4094C11.8039 21.0853 11.6671 20.6719 11.4302 20.3189C10.8277 19.4224 10.4254 18.4239 9.91575 17.4805C9.50799 16.7248 9.27288 15.8897 8.86971 15.1296C8.53267 14.494 8.17083 13.8747 7.74103 13.2933C7.35072 12.7651 6.88418 12.3011 6.45438 11.8073C5.87121 11.1365 5.20171 10.5623 4.46885 10.0676C3.7369 9.57466 2.93516 9.19187 2.1426 8.79825C2.08749 8.77117 2.02412 8.74589 1.97086 8.79283C1.913 8.84339 1.94882 8.90478 1.9727 8.95895C2.0829 9.21263 2.17566 9.47354 2.28127 9.72904C2.55127 10.3827 2.86628 11.0191 3.12434 11.6764C3.44118 12.4826 3.77823 13.2815 4.08864 14.0905C4.34946 14.7712 4.64701 15.4401 4.93814 16.1109C5.3358 17.0255 5.76376 17.9274 6.18897 18.8274C6.65734 19.8205 7.13857 20.8136 7.7098 21.7579C8.06889 22.3511 8.39216 22.9686 8.79257 23.5328C9.16359 24.0546 9.51625 24.5936 9.97636 25.0577C10.4512 25.537 10.9195 26.0182 11.5266 26.3297C11.8746 26.5085 12.2594 26.661 12.6571 26.6051C13.0695 26.5473 13.457 26.3839 13.7812 26.1067C14.2119 25.7375 14.5967 25.3285 14.9182 24.8608C15.3048 24.2984 15.6354 23.7053 15.9651 23.1112C16.1763 22.7302 16.3269 22.3213 16.5134 21.9286C16.7779 21.3724 17.0065 20.8019 17.2472 20.2367C17.496 19.6517 17.7587 19.0721 17.9506 18.4627C18.1114 17.9499 18.3621 17.466 18.543 16.9586C18.7616 16.3447 19.0316 15.7507 19.2391 15.1323C19.4246 14.578 19.6579 14.039 19.8627 13.491C20.1648 12.6803 20.5432 11.9021 20.872 11.1031C21.0098 10.77 21.1962 10.4594 21.3358 10.129C21.5709 9.57375 21.8886 9.06096 22.1798 8.53554C22.4801 7.99476 22.8842 7.52891 23.3452 7.10641C23.764 6.72181 24.5207 6.59723 25.0277 6.86626C25.519 7.12717 25.8753 7.5244 26.1857 7.96226C26.6734 8.64929 27.0821 9.38236 27.4751 10.1245C28.0207 11.1546 28.5028 12.2153 28.9776 13.277C29.3854 14.1871 29.8087 15.0917 30.199 16.0098C30.4892 16.6923 30.8006 17.3667 31.1009 18.0447C31.3856 18.6875 31.752 19.2933 32.0321 19.9415C32.2434 20.4299 32.5106 20.8939 32.7567 21.3679C32.8302 21.5088 32.8669 21.6767 33.0276 21.7588C33.0405 21.785 33.0543 21.8112 33.0671 21.8374C33.0653 21.8654 33.0506 21.8988 33.0625 21.9195C33.2719 22.3023 33.4832 22.6842 33.6971 23.0643C33.7201 23.104 33.7376 23.1672 33.8101 23.1528C33.8175 23.1672 33.8248 23.1816 33.8321 23.1961C33.8276 23.2837 33.8349 23.3622 33.9488 23.3757C33.9525 23.4308 33.9809 23.4723 34.0222 23.5066C33.9975 23.5085 33.9837 23.5229 33.9975 23.5437C34.0112 23.5635 34.0296 23.5572 34.0406 23.5355C34.092 23.7215 34.228 23.8569 34.3299 24.0131C34.9177 24.9051 35.567 25.7375 36.4936 26.3261C36.9574 26.6204 37.6067 26.6502 38.0613 26.3586C38.7556 25.9126 39.2065 25.2536 39.6289 24.5801C39.8595 24.2126 40.0303 23.81 40.2277 23.4236C40.2984 23.3857 40.3343 23.3225 40.3636 23.2521C40.4481 23.0489 40.5335 22.8458 40.6236 22.6445C40.7677 22.3204 40.9064 21.9927 41.0653 21.6767C41.2205 21.3688 41.3123 21.0393 41.4437 20.7233C41.6815 20.1527 41.8716 19.5632 42.0838 18.9827C42.2068 18.6469 42.362 18.3201 42.4557 17.977C42.6128 17.3992 42.7983 16.8277 43.026 16.277C43.2611 15.7092 43.4246 15.1196 43.645 14.5482C43.8976 13.8936 44.0904 13.2175 44.3411 12.562C44.6332 11.8001 44.9491 11.0471 45.2742 10.2978C45.5093 9.75522 45.7738 9.22618 46.0594 8.70436C46.3726 8.13289 46.7354 7.60926 47.1909 7.14523C47.6262 6.70195 48.5032 6.56743 49.0166 7.05224C49.1516 7.17953 49.2995 7.30863 49.4666 7.40613C49.4813 7.43954 49.4887 7.48016 49.5125 7.50544C49.8836 7.89545 50.149 8.35949 50.4539 8.79644C50.4024 8.8795 50.4502 8.89485 50.5227 8.89395C50.5485 8.93728 50.5751 8.98062 50.6008 9.02395C50.6228 9.1693 50.6532 9.31014 50.7964 9.39229L50.8598 9.47264C50.835 9.47806 50.824 9.49702 50.8387 9.51417C50.8479 9.525 50.8727 9.5232 50.8901 9.52681C50.9112 9.56924 50.9323 9.61167 50.9525 9.6541C50.9305 9.72633 50.9287 9.78501 51.0334 9.77598C51.0545 9.82563 51.0756 9.87529 51.0958 9.92494C51.0398 10.0116 51.0628 10.0568 51.1684 10.0595C51.1757 10.1109 51.1849 10.1624 51.2308 10.1976C51.1757 10.2843 51.2024 10.3267 51.3043 10.3267C51.3254 10.3745 51.3465 10.4215 51.3677 10.4693C51.2988 10.5668 51.3401 10.6228 51.4402 10.6562L51.4907 10.7384C51.4567 10.8241 51.5017 10.8584 51.5807 10.8711C51.5973 10.9027 51.6129 10.9334 51.6294 10.965C51.6478 11.1166 51.6542 11.2737 51.8094 11.3667C51.8314 11.4137 51.8544 11.4606 51.8764 11.5085C51.8213 11.5996 51.8443 11.6556 51.9527 11.6737L51.9848 11.7305C51.9747 11.9391 52.062 12.1043 52.2181 12.2379C52.2374 12.2803 52.2566 12.3219 52.2759 12.3643C52.2217 12.4537 52.2732 12.488 52.3531 12.5078C52.3632 12.5512 52.3733 12.5945 52.3825 12.6388C52.3457 12.7191 52.3301 12.7886 52.4587 12.7877C52.4734 12.8112 52.4872 12.8347 52.5019 12.8581C52.4936 12.9611 52.4293 13.0811 52.59 13.1317C52.6029 13.1624 52.6166 13.1931 52.6295 13.2238C52.6084 13.3222 52.6148 13.4088 52.7259 13.454C52.7388 13.4829 52.7526 13.5109 52.7654 13.5397C52.736 13.6318 52.7572 13.6995 52.8619 13.7239C52.8839 13.7673 52.905 13.8115 52.9271 13.8548C52.9702 14.0941 53.0814 14.3026 53.2283 14.494C53.2476 14.522 53.2669 14.5491 53.2852 14.5771C53.2402 14.6267 53.2696 14.6809 53.2889 14.7251C53.4799 15.1693 53.6829 15.6081 53.8647 16.0549C53.9924 16.3673 54.1513 16.6634 54.2927 16.9686C54.4938 17.401 54.6692 17.8452 54.8648 18.2803C55.1064 18.8193 55.3644 19.3511 55.6014 19.8918C55.6877 20.0877 55.7998 20.1898 56.0293 20.1834C56.5106 20.1699 56.9927 20.1825 57.4749 20.1744C57.6365 20.1717 57.6944 20.2313 57.6833 20.3875C57.6714 20.5518 57.6852 20.7188 57.6751 20.8831C57.6613 21.1007 57.7605 21.1756 57.9745 21.1711C58.4713 21.1612 58.9682 21.1711 59.4659 21.1639C59.634 21.1612 59.7029 21.2289 59.6983 21.3905C59.6927 21.571 59.6973 21.7516 59.6946 21.9313C59.6928 22.0504 59.7313 22.1497 59.8654 22.1543C60.1786 22.1633 60.4927 22.1651 60.8058 22.1552C60.9225 22.1515 60.9959 22.0811 60.9197 21.9556C60.7314 21.646 60.6029 21.3101 60.4605 20.9788C60.0096 19.9334 59.5394 18.8961 59.0637 17.8605C58.7083 17.085 58.3896 16.2942 58.0443 15.5133C57.597 14.5003 57.1406 13.4919 56.686 12.4817C56.3875 11.8181 56.089 11.1546 55.7841 10.4946C55.5499 9.98633 55.3185 9.47715 55.0632 8.97881C54.7069 8.28185 54.3359 7.59211 53.9566 6.90598C53.8454 6.70466 53.7582 6.47354 53.5323 6.35257C53.3064 5.93999 53.0097 5.57706 52.7149 5.21233L52.7177 5.19337L52.6993 5.18886C52.3916 4.76184 51.9921 4.41426 51.5991 4.07571C51.2767 3.79765 50.9259 3.52049 50.4952 3.39139C50.4851 3.33812 50.4539 3.32097 50.4024 3.33632C50.0094 3.11965 49.5915 2.9743 49.1461 2.90839C49.1277 2.87589 49.1048 2.86777 49.0726 2.89124C48.9808 2.8777 48.889 2.86506 48.7971 2.85151C48.754 2.76214 48.6805 2.78651 48.6088 2.80186C48.2801 2.76846 47.9504 2.77387 47.6216 2.80367C47.5601 2.7811 47.504 2.77478 47.4765 2.85061C47.2203 2.86325 46.9833 2.95082 46.7445 3.03207C46.7014 3.00499 46.661 3.00228 46.627 3.04562C46.526 3.0393 46.4727 3.13229 46.3818 3.15576C45.9511 3.26951 45.5607 3.48709 45.2063 3.73355C44.1703 4.45127 43.3897 5.41276 42.7707 6.48347C42.2932 7.30954 41.8303 8.14914 41.5034 9.05374C41.2444 9.76966 40.9174 10.4612 40.6373 11.1708C40.4711 11.5915 40.3499 12.0294 40.1836 12.451C40.0211 12.8636 39.8337 13.2653 39.7098 13.6941C39.6482 13.9081 39.5996 14.1257 39.5325 14.3369C39.4462 14.6105 39.2974 14.8669 39.2203 15.1422C39.0605 15.7173 38.8107 16.2608 38.638 16.8332C38.5177 17.2349 38.3478 17.6357 38.2027 18.0348C37.9263 18.7967 37.6333 19.5506 37.3247 20.2999C37.265 20.4453 37.2439 20.6041 37.1539 20.7387C37.0869 20.8389 37.0152 20.893 36.9344 20.7567C36.6865 20.336 36.3935 19.9325 36.2071 19.4865C35.9499 18.8717 35.5945 18.3065 35.3309 17.6953C35.1445 17.2611 34.9434 16.8295 34.7294 16.4052C34.7441 16.3429 34.7294 16.2969 34.6614 16.2761C34.6412 16.2418 34.6219 16.2075 34.6017 16.1741C34.6118 16.1127 34.6082 16.0577 34.5338 16.0369C34.5218 16.0089 34.5099 15.9809 34.498 15.9529C34.5072 15.9322 34.4998 15.9213 34.4778 15.9186L34.4787 15.9141ZM2.34923 7.31134C3.74976 7.19849 4.61303 6.19729 4.60936 5.04441C4.60477 3.77237 3.54863 2.78922 2.29964 2.78019C1.03503 2.77117 0.00553015 3.88793 1.98837e-05 5.05886C-0.00549038 6.24965 1.13514 7.33481 2.34831 7.31134H2.34923ZM65.6117 3.87529C65.7191 4.00619 65.7908 4.13168 65.8413 4.27252C65.9855 4.67336 66.1517 5.06698 66.3106 5.46241C66.34 5.53463 66.3804 5.59873 66.4768 5.5879C66.5521 5.57977 66.6081 5.53915 66.6339 5.47234C66.8166 4.99927 66.9975 4.5253 67.1766 4.05043C67.2042 3.9764 67.1977 3.85633 67.3052 3.86987C67.409 3.88341 67.3548 3.99265 67.3539 4.05946C67.3493 4.49551 67.3392 4.93066 67.3337 5.36581C67.3318 5.48678 67.3502 5.59512 67.5155 5.59151C67.6771 5.5888 67.6698 5.47685 67.6689 5.37032C67.6689 4.76184 67.667 4.15335 67.6643 3.54486C67.6643 3.43653 67.6909 3.30833 67.5192 3.28937C67.3566 3.27041 67.2115 3.28034 67.1426 3.46C66.9562 3.94119 66.7679 4.42148 66.5806 4.90177C66.5595 4.95684 66.5521 5.02907 66.4768 5.03448C66.3886 5.0417 66.3988 4.95955 66.3785 4.90809C66.193 4.43412 66.0057 3.96015 65.8238 3.48528C65.7586 3.31555 65.642 3.25958 65.4666 3.28486C65.2774 3.31194 65.3004 3.45188 65.2995 3.57737C65.2967 4.11814 65.2967 4.65892 65.2967 5.2006C65.2967 5.28365 65.2967 5.36581 65.2985 5.44887C65.3004 5.54005 65.3509 5.5888 65.4409 5.59151C65.5401 5.59512 65.6016 5.54817 65.608 5.44706C65.6117 5.38748 65.6089 5.32699 65.6089 5.2665C65.6089 4.80246 65.6089 4.33842 65.6089 3.87529H65.6117ZM60.5349 22.3502C60.489 22.3502 60.4431 22.3502 60.3981 22.3502C59.8682 22.3402 59.881 22.3312 59.8874 22.8494C59.8966 23.5419 59.7855 23.4624 60.522 23.4642C61.2145 23.466 61.0924 23.5066 61.097 22.909C61.1015 22.3502 61.097 22.3502 60.5349 22.3502ZM63.9889 4.54787C63.9889 4.54787 63.988 4.54787 63.9871 4.54787C63.9871 4.84038 63.9871 5.13379 63.9871 5.4263C63.9871 5.51838 64.0119 5.59061 64.1258 5.59241C64.2305 5.59331 64.2764 5.53102 64.2938 5.44164C64.3021 5.39831 64.2993 5.35227 64.2993 5.30713C64.2993 4.80427 64.3058 4.30051 64.292 3.79765C64.2865 3.59632 64.3554 3.525 64.5556 3.55028C64.6603 3.56382 64.7695 3.5557 64.8761 3.55028C64.9541 3.54577 64.9982 3.50243 65.0019 3.41938C65.0056 3.33361 64.9624 3.28847 64.8825 3.28757C64.3866 3.28396 63.8907 3.28305 63.3938 3.28576C63.324 3.28576 63.2505 3.32007 63.2505 3.40312C63.2505 3.48979 63.3066 3.54125 63.3966 3.54486C63.5343 3.54938 63.6721 3.5557 63.8089 3.54938C63.9494 3.54396 63.9944 3.60084 63.9908 3.73626C63.9825 4.00619 63.988 4.27703 63.988 4.54697L63.9889 4.54787ZM57.2462 20.9382C57.2434 20.4362 57.3426 20.4227 56.7291 20.4344C56.7135 20.4344 56.6988 20.4344 56.6832 20.4344C56.2654 20.4326 56.2553 20.4425 56.2571 20.8434C56.2571 20.866 56.2571 20.8885 56.2571 20.9111C56.2608 21.4501 56.1763 21.4094 56.7741 21.4103C57.3261 21.4103 57.2434 21.4392 57.2453 20.9382H57.2462ZM61.3036 23.8434C60.8472 23.8452 60.8527 23.8452 60.8472 24.2289C60.8389 24.7805 60.8903 24.6884 61.321 24.6911C61.783 24.6938 61.7554 24.7317 61.7536 24.2704C61.7518 23.8389 61.8179 23.8308 61.3036 23.8425V23.8434ZM58.7165 22.4206C58.8001 22.4206 58.8855 22.4143 58.9682 22.4215C59.1739 22.4413 59.2666 22.3655 59.2455 22.1524C59.2308 22.0035 59.2336 21.8518 59.2455 21.7029C59.2593 21.5079 59.1739 21.423 58.9792 21.4329C58.9186 21.4356 58.857 21.4347 58.7964 21.4347C58.1958 21.4293 58.2491 21.4022 58.2481 21.9638C58.2472 22.4892 58.227 22.417 58.7184 22.4197L58.7165 22.4206ZM57.8854 22.5867C57.8881 22.1344 57.9139 22.1822 57.4611 22.1822C57.4152 22.1822 57.3693 22.1868 57.3243 22.1813C57.1066 22.1561 57.023 22.2472 57.0276 22.4639C57.0414 23.1103 56.9643 23.0191 57.6016 23.0354C57.8275 23.0408 57.9111 22.9559 57.8872 22.7447C57.8817 22.6932 57.8872 22.64 57.8872 22.5876L57.8854 22.5867ZM59.4797 23.4805C59.4791 23.2114 59.3407 23.0769 59.0646 23.0769C59.0187 23.0769 58.9727 23.0805 58.9277 23.0751C58.711 23.0498 58.6302 23.1338 58.6357 23.355C58.6513 23.9698 58.5549 23.9138 59.2143 23.9237C59.4172 23.9273 59.4944 23.8479 59.4806 23.6583C59.476 23.5987 59.4806 23.5382 59.4806 23.4787L59.4797 23.4805ZM62.2495 25.3556C62.2477 25.1263 62.1356 25.0119 61.9134 25.0125C61.6269 25.0143 61.5984 25.0477 61.6021 25.3736C61.6057 25.6634 61.659 25.7176 61.9437 25.7167C62.2339 25.7149 62.2532 25.6923 62.2504 25.3556H62.2495ZM58.0029 23.8244C57.8174 23.8344 57.7357 23.9138 57.7348 24.0808C57.7338 24.2614 57.8165 24.3363 57.9974 24.3354C58.1793 24.3345 58.2307 24.2361 58.2325 24.0781C58.2344 23.9075 58.1361 23.8398 58.0029 23.8244ZM59.6101 24.8103C59.5972 24.674 59.5862 24.5629 59.409 24.5656C59.2235 24.5683 59.1757 24.6631 59.1785 24.8202C59.1803 24.9683 59.2299 25.0604 59.4035 25.0568C59.589 25.0531 59.5927 24.9222 59.611 24.8103H59.6101ZM60.4385 25.5063C60.5955 25.5235 60.6837 25.4567 60.6809 25.2951C60.6782 25.1524 60.6056 25.0784 60.4532 25.0793C60.2906 25.0802 60.1979 25.1344 60.2006 25.314C60.2034 25.4802 60.2952 25.5163 60.4385 25.5063ZM62.8676 26.4525C62.8446 26.364 62.8033 26.2972 62.7004 26.3044C62.604 26.3116 62.5462 26.3622 62.5544 26.4624C62.5627 26.5554 62.6114 26.6096 62.7142 26.6096C62.8253 26.6096 62.8419 26.5274 62.8676 26.4525ZM59.5568 26.0814C59.69 26.085 59.7359 26.0218 59.7451 25.9316C59.7552 25.8341 59.7084 25.7763 59.6027 25.7754C59.5017 25.7745 59.4439 25.8241 59.443 25.9216C59.4411 26.0119 59.476 26.0823 59.5578 26.0814H59.5568ZM61.7315 26.3595C61.8564 26.3604 61.8941 26.29 61.9033 26.2024C61.9116 26.1112 61.8583 26.0643 61.7692 26.058C61.6691 26.0507 61.6048 26.1013 61.6011 26.197C61.5975 26.2873 61.6498 26.3505 61.7325 26.3595H61.7315ZM58.5999 25.4477C58.6936 25.4468 58.7542 25.4034 58.7578 25.3023C58.7606 25.2229 58.7211 25.1741 58.6385 25.1714C58.5475 25.1687 58.4695 25.1913 58.4649 25.2996C58.4612 25.3863 58.5044 25.4404 58.6008 25.4477H58.5999ZM60.2502 26.4615C60.2392 26.3613 60.1822 26.3098 60.0858 26.3089C59.9866 26.308 59.9563 26.3757 59.9609 26.4588C59.9655 26.5364 59.9866 26.6051 60.0886 26.6105C60.2015 26.6168 60.2245 26.5391 60.2502 26.4624V26.4615ZM60.3889 24.1856C60.3825 24.1016 60.3448 24.0438 60.2502 24.0411C60.1602 24.0384 60.1042 24.0772 60.0996 24.1711C60.0959 24.2551 60.1161 24.3192 60.2181 24.3291C60.3264 24.339 60.3678 24.2785 60.3889 24.1856ZM60.7526 25.9785C60.6552 25.974 60.6194 26.0273 60.6148 26.1148C60.6102 26.2087 60.6561 26.2521 60.7471 26.2539C60.8306 26.2557 60.8986 26.2367 60.8986 26.1347C60.8986 26.0381 60.8536 25.9812 60.7516 25.9776L60.7526 25.9785ZM58.936 26.2819C58.9323 26.2367 58.9277 26.1744 58.8442 26.1744C58.7762 26.1744 58.7294 26.2177 58.7174 26.2773C58.7037 26.3478 58.7533 26.383 58.8212 26.3911C58.8928 26.3992 58.936 26.373 58.936 26.2819Z" fill="url(#paint0_linear_18196_25694)"/>
<path d="M78.168 22L73.1582 7.9082H75.5312L79.3105 19.4023H79.4473L83.2363 7.9082H85.6094L80.5996 22H78.168ZM89.3984 22.1855C88.7214 22.1855 88.1191 22.0553 87.5918 21.7949C87.071 21.5345 86.6576 21.1699 86.3516 20.7012C86.0521 20.2259 85.9023 19.6693 85.9023 19.0312V19.0117C85.9023 18.0742 86.2441 17.3385 86.9277 16.8047C87.6113 16.2708 88.5781 15.9681 89.8281 15.8965L93.7344 15.6621V17.1562L90.1113 17.3809C89.4082 17.4199 88.8841 17.5729 88.5391 17.8398C88.194 18.1068 88.0215 18.4714 88.0215 18.9336V18.9531C88.0215 19.4349 88.2038 19.8125 88.5684 20.0859C88.9329 20.3529 89.4017 20.4863 89.9746 20.4863C90.4889 20.4863 90.9512 20.3822 91.3613 20.1738C91.7715 19.959 92.0938 19.6725 92.3281 19.3145C92.5625 18.9564 92.6797 18.5495 92.6797 18.0938V14.8223C92.6797 14.2493 92.4974 13.8066 92.1328 13.4941C91.7747 13.1816 91.2474 13.0254 90.5508 13.0254C89.9518 13.0254 89.4668 13.1361 89.0957 13.3574C88.7246 13.5723 88.4805 13.8717 88.3633 14.2559L88.3438 14.3047H86.3125L86.3223 14.2168C86.4004 13.6374 86.625 13.1263 86.9961 12.6836C87.3737 12.2409 87.8685 11.8958 88.4805 11.6484C89.099 11.3945 89.8151 11.2676 90.6289 11.2676C91.5078 11.2676 92.2565 11.4108 92.875 11.6973C93.5 11.9772 93.9753 12.3809 94.3008 12.9082C94.6263 13.429 94.7891 14.054 94.7891 14.7832V22H92.6797V20.4668H92.543C92.3346 20.8249 92.0742 21.1341 91.7617 21.3945C91.4492 21.6484 91.0944 21.8438 90.6973 21.9805C90.3001 22.1172 89.8672 22.1855 89.3984 22.1855ZM97.6504 22V7.39062H99.7695V22H97.6504ZM106.215 22.2051C105.434 22.2051 104.773 22.0521 104.232 21.7461C103.692 21.4336 103.285 20.9844 103.012 20.3984C102.745 19.8125 102.611 19.1094 102.611 18.2891V11.4727H104.73V17.8105C104.73 18.6634 104.903 19.3047 105.248 19.7344C105.6 20.1641 106.16 20.3789 106.928 20.3789C107.475 20.3789 107.937 20.2682 108.314 20.0469C108.699 19.819 108.988 19.5 109.184 19.0898C109.385 18.6797 109.486 18.1979 109.486 17.6445V11.4727H111.605V22H109.486V20.4082H109.35C109.089 20.9681 108.695 21.4076 108.168 21.7266C107.641 22.0456 106.99 22.2051 106.215 22.2051ZM118.871 22.2051C117.842 22.2051 116.957 21.9837 116.215 21.541C115.479 21.0983 114.913 20.4701 114.516 19.6562C114.118 18.8424 113.92 17.8789 113.92 16.7656V16.7559C113.92 15.6556 114.118 14.6953 114.516 13.875C114.913 13.0547 115.473 12.4167 116.195 11.9609C116.924 11.4987 117.781 11.2676 118.764 11.2676C119.747 11.2676 120.593 11.4889 121.303 11.9316C122.012 12.3743 122.556 12.9928 122.934 13.7871C123.318 14.5749 123.51 15.4961 123.51 16.5508V17.293H114.994V15.7793H122.465L121.439 17.1758V16.3457C121.439 15.5905 121.326 14.9688 121.098 14.4805C120.87 13.9857 120.554 13.6178 120.15 13.377C119.753 13.1296 119.294 13.0059 118.773 13.0059C118.253 13.0059 117.787 13.1328 117.377 13.3867C116.967 13.6406 116.641 14.0182 116.4 14.5195C116.166 15.0143 116.049 15.623 116.049 16.3457V17.1855C116.049 17.8757 116.166 18.4648 116.4 18.9531C116.635 19.4414 116.967 19.8158 117.396 20.0762C117.826 20.3366 118.334 20.4668 118.92 20.4668C119.363 20.4668 119.747 20.4017 120.072 20.2715C120.404 20.1413 120.674 19.9818 120.883 19.793C121.091 19.5977 121.238 19.3991 121.322 19.1973L121.352 19.1191H123.393L123.373 19.207C123.288 19.5716 123.132 19.9329 122.904 20.291C122.676 20.6426 122.374 20.9648 121.996 21.2578C121.625 21.5443 121.176 21.7754 120.648 21.9512C120.128 22.1204 119.535 22.2051 118.871 22.2051ZM126.059 22V7.9082H128.598L133.1 19.1387H133.236L137.738 7.9082H140.268V22H138.266V11.6582H137.201L139.486 8.29883L133.969 22H132.357L126.85 8.29883L129.125 11.6582H128.061V22H126.059ZM146.215 22.1855C145.538 22.1855 144.936 22.0553 144.408 21.7949C143.887 21.5345 143.474 21.1699 143.168 20.7012C142.868 20.2259 142.719 19.6693 142.719 19.0312V19.0117C142.719 18.0742 143.061 17.3385 143.744 16.8047C144.428 16.2708 145.395 15.9681 146.645 15.8965L150.551 15.6621V17.1562L146.928 17.3809C146.225 17.4199 145.701 17.5729 145.355 17.8398C145.01 18.1068 144.838 18.4714 144.838 18.9336V18.9531C144.838 19.4349 145.02 19.8125 145.385 20.0859C145.749 20.3529 146.218 20.4863 146.791 20.4863C147.305 20.4863 147.768 20.3822 148.178 20.1738C148.588 19.959 148.91 19.6725 149.145 19.3145C149.379 18.9564 149.496 18.5495 149.496 18.0938V14.8223C149.496 14.2493 149.314 13.8066 148.949 13.4941C148.591 13.1816 148.064 13.0254 147.367 13.0254C146.768 13.0254 146.283 13.1361 145.912 13.3574C145.541 13.5723 145.297 13.8717 145.18 14.2559L145.16 14.3047H143.129L143.139 14.2168C143.217 13.6374 143.441 13.1263 143.812 12.6836C144.19 12.2409 144.685 11.8958 145.297 11.6484C145.915 11.3945 146.632 11.2676 147.445 11.2676C148.324 11.2676 149.073 11.4108 149.691 11.6973C150.316 11.9772 150.792 12.3809 151.117 12.9082C151.443 13.429 151.605 14.054 151.605 14.7832V22H149.496V20.4668H149.359C149.151 20.8249 148.891 21.1341 148.578 21.3945C148.266 21.6484 147.911 21.8438 147.514 21.9805C147.117 22.1172 146.684 22.1855 146.215 22.1855ZM158.285 22.0977C157.159 22.0977 156.339 21.873 155.824 21.4238C155.31 20.9746 155.053 20.2422 155.053 19.2266V13.1523H153.441V11.4727H155.053V8.79688H157.221V11.4727H159.418V13.1523H157.221V18.8066C157.221 19.36 157.335 19.7572 157.562 19.998C157.797 20.2389 158.165 20.3594 158.666 20.3594C158.816 20.3594 158.946 20.3561 159.057 20.3496C159.167 20.3366 159.288 20.3268 159.418 20.3203V22C159.262 22.026 159.086 22.0488 158.891 22.0684C158.695 22.0879 158.493 22.0977 158.285 22.0977ZM161.713 22V11.4727H163.842V13.1133H163.979C164.161 12.5339 164.483 12.0846 164.945 11.7656C165.408 11.4466 165.977 11.2871 166.654 11.2871C166.824 11.2871 166.986 11.2969 167.143 11.3164C167.305 11.3359 167.436 11.3555 167.533 11.375V13.3379C167.37 13.2988 167.198 13.2695 167.016 13.25C166.833 13.224 166.641 13.2109 166.439 13.2109C165.919 13.2109 165.463 13.3151 165.072 13.5234C164.682 13.7253 164.379 14.015 164.164 14.3926C163.949 14.7637 163.842 15.2031 163.842 15.7109V22H161.713ZM169.438 22V11.4727H171.557V22H169.438ZM170.502 9.65625C170.144 9.65625 169.835 9.5293 169.574 9.27539C169.32 9.01497 169.193 8.70898 169.193 8.35742C169.193 7.99284 169.32 7.68685 169.574 7.43945C169.835 7.18555 170.144 7.05859 170.502 7.05859C170.867 7.05859 171.176 7.18555 171.43 7.43945C171.684 7.68685 171.811 7.99284 171.811 8.35742C171.811 8.70898 171.684 9.01497 171.43 9.27539C171.176 9.5293 170.867 9.65625 170.502 9.65625ZM173.627 22L177.113 16.7559L173.607 11.4727H176.059L178.324 15.2422H178.461L180.707 11.4727H183.051L179.584 16.668L183.08 22H180.678L178.373 18.1914H178.236L175.932 22H173.627Z" fill="#474747"/>
<defs>
<linearGradient id="paint0_linear_18196_25694" x1="3.3769" y1="14.6619" x2="71.0467" y2="14.6619" gradientUnits="userSpaceOnUse">
<stop offset="0.02" stop-color="#33DA9D"/>
<stop offset="1" stop-color="#153752"/>
</linearGradient>
</defs>
</svg>
