<svg width="72" height="72" viewBox="0 0 72 72" fill="none" xmlns="http://www.w3.org/2000/svg">
<path fill-rule="evenodd" clip-rule="evenodd" d="M47.3805 3C48.6225 3 49.6305 4.008 49.6305 5.25L49.6319 7.79343C54.0122 8.09375 57.6502 9.59414 60.225 12.1743C63.036 14.9973 64.515 19.0563 64.5001 23.9253V51.2943C64.5001 61.2903 58.152 67.5003 47.937 67.5003H22.563C12.348 67.5003 6 61.2033 6 51.0663V23.9193C6 14.4909 11.6612 8.43882 20.8941 7.79446L20.8959 5.25C20.8959 4.008 21.9039 3 23.1459 3C24.3879 3 25.3959 4.008 25.3959 5.25L25.395 7.737H45.129L45.1305 5.25C45.1305 4.008 46.1385 3 47.3805 3ZM60 29.712H10.5V51.0663C10.5 58.7643 14.784 63.0003 22.563 63.0003H47.937C55.716 63.0003 60.0001 58.8423 60.0001 51.2943L60 29.712ZM48.6036 48.5889C49.8456 48.5889 50.8536 49.5969 50.8536 50.8389C50.8536 52.0809 49.8456 53.0889 48.6036 53.0889C47.3616 53.0889 46.3416 52.0809 46.3416 50.8389C46.3416 49.5969 47.3346 48.5889 48.5766 48.5889H48.6036ZM35.2911 48.5889C36.5331 48.5889 37.5411 49.5969 37.5411 50.8389C37.5411 52.0809 36.5331 53.0889 35.2911 53.0889C34.0491 53.0889 33.0291 52.0809 33.0291 50.8389C33.0291 49.5969 34.0221 48.5889 35.2641 48.5889H35.2911ZM21.9507 48.5889C23.1927 48.5889 24.2007 49.5969 24.2007 50.8389C24.2007 52.0809 23.1927 53.0889 21.9507 53.0889C20.7087 53.0889 19.6857 52.0809 19.6857 50.8389C19.6857 49.5969 20.6817 48.5889 21.9237 48.5889H21.9507ZM48.6036 36.9288C49.8456 36.9288 50.8536 37.9368 50.8536 39.1788C50.8536 40.4208 49.8456 41.4288 48.6036 41.4288C47.3616 41.4288 46.3416 40.4208 46.3416 39.1788C46.3416 37.9368 47.3346 36.9288 48.5766 36.9288H48.6036ZM35.2911 36.9288C36.5331 36.9288 37.5411 37.9368 37.5411 39.1788C37.5411 40.4208 36.5331 41.4288 35.2911 41.4288C34.0491 41.4288 33.0291 40.4208 33.0291 39.1788C33.0291 37.9368 34.0221 36.9288 35.2641 36.9288H35.2911ZM21.9507 36.9288C23.1927 36.9288 24.2007 37.9368 24.2007 39.1788C24.2007 40.4208 23.1927 41.4288 21.9507 41.4288C20.7087 41.4288 19.6857 40.4208 19.6857 39.1788C19.6857 37.9368 20.6817 36.9288 21.9237 36.9288H21.9507ZM45.129 12.237H25.395L25.3959 15.123C25.3959 16.365 24.3879 17.373 23.1459 17.373C21.9039 17.373 20.8959 16.365 20.8959 15.123L20.8943 12.3051C14.1736 12.8697 10.5 16.9436 10.5 23.9193V25.212H60L60.0001 23.9193C60.012 20.2143 59.016 17.3343 57.039 15.3543C55.3035 13.6137 52.7666 12.5742 49.6331 12.3065L49.6305 15.123C49.6305 16.365 48.6225 17.373 47.3805 17.373C46.1385 17.373 45.1305 16.365 45.1305 15.123L45.129 12.237Z" fill="#D6615A" fill-opacity="0.15"/>
</svg>
