<svg width="72" height="72" viewBox="0 0 72 72" fill="none" xmlns="http://www.w3.org/2000/svg">
<path fill-rule="evenodd" clip-rule="evenodd" d="M49.002 6C59.169 6 66 13.134 66 23.748V48.252C66 58.866 59.169 66 48.999 66H22.995C12.828 66 6 58.866 6 48.252V23.748C6 13.134 12.828 6 22.995 6H49.002ZM49.002 10.5H22.995C15.405 10.5 10.5 15.699 10.5 23.748V48.252C10.5 56.301 15.405 61.5 22.995 61.5H48.999C56.592 61.5 61.5 56.301 61.5 48.252V23.748C61.5 15.699 56.592 10.5 49.002 10.5ZM30.3915 27.1878L35.994 32.79L41.5935 27.1941C42.4725 26.3151 43.8945 26.3151 44.7735 27.1941C45.6525 28.0731 45.6525 29.4951 44.7735 30.3741L39.174 35.97L44.7795 41.5788C45.6585 42.4578 45.6585 43.8798 44.7795 44.7588C44.3415 45.1998 43.7625 45.4188 43.1895 45.4188C42.6135 45.4188 42.0375 45.1998 41.5995 44.7588L35.994 39.15L30.3975 44.7501C29.9595 45.1911 29.3835 45.4101 28.8075 45.4101C28.2315 45.4101 27.6555 45.1911 27.2175 44.7501C26.3385 43.8711 26.3385 42.4491 27.2175 41.5701L32.814 35.97L27.2115 30.3678C26.3325 29.4888 26.3325 28.0668 27.2115 27.1878C28.0935 26.3088 29.5155 26.3088 30.3915 27.1878Z" fill="#D6615A" fill-opacity="0.15"/>
</svg>
