<svg width="72" height="72" viewBox="0 0 72 72" fill="none" xmlns="http://www.w3.org/2000/svg">
<path fill-rule="evenodd" clip-rule="evenodd" d="M37.1247 6.0053C45.8847 6.0053 53.0187 13.1393 53.0187 21.9083L53.0184 26.6381C58.344 28.4915 62.175 33.5615 62.175 39.5117V52.3787C62.175 59.8937 56.064 66.0047 48.549 66.0047H25.626C18.111 66.0047 12 59.8937 12 52.3787V39.5117C12 33.5627 15.8296 28.4934 21.1536 26.6391L21.1557 21.9083C21.1737 17.5883 22.8447 13.6013 25.8597 10.6133C28.8777 7.6223 32.8617 5.8913 37.1247 6.0053ZM48.549 30.3857H25.626C20.592 30.3857 16.5 34.4777 16.5 39.5117V52.3787C16.5 57.4127 20.592 61.5047 25.626 61.5047H48.549C53.58 61.5047 57.675 57.4127 57.675 52.3787V39.5117C57.675 34.4777 53.58 30.3857 48.549 30.3857ZM37.0869 40.3631C38.3289 40.3631 39.3369 41.3711 39.3369 42.6131V49.2761C39.3369 50.5181 38.3289 51.5261 37.0869 51.5261C35.8449 51.5261 34.8369 50.5181 34.8369 49.2761V42.6131C34.8369 41.3711 35.8449 40.3631 37.0869 40.3631ZM37.1157 10.5053H37.0677C34.0287 10.5053 31.1817 11.6753 29.0307 13.8083C26.8647 15.9503 25.6677 18.8093 25.6557 21.8573L25.653 25.884H48.516L48.5187 21.9083C48.5187 15.6203 43.4037 10.5053 37.1157 10.5053Z" fill="#E29936" fill-opacity="0.15"/>
</svg>
