<svg width="72" height="72" viewBox="0 0 72 72" fill="none" xmlns="http://www.w3.org/2000/svg">
<path d="M21.8716 38.3097H9.84451C8.56569 38.3097 7.5 37.2897 7.5 35.9997C7.5 34.7397 8.56569 33.6897 9.84451 33.6897H21.8716L21.8725 19.35C21.8725 12 28.0683 6 35.6583 6H50.7762C58.3351 6 64.5 12 64.5 19.32V52.68C64.5 60.03 58.3351 66 50.7142 66H35.6273C28.0683 66 21.8725 60.03 21.8725 52.71L21.8716 38.3097L41.0796 38.31L36.123 43.11C35.1936 44.01 35.1936 45.48 36.123 46.38C36.5876 46.83 37.2072 47.04 37.8268 47.04C38.4154 47.04 39.035 46.83 39.4997 46.38L48.5457 37.65C49.0103 37.23 49.2582 36.63 49.2582 36C49.2582 35.4 49.0103 34.8 48.5457 34.38L39.4997 25.65C38.5703 24.75 37.0523 24.75 36.123 25.65C35.1936 26.55 35.1936 28.02 36.123 28.92L41.0796 33.69L21.8716 33.6897V38.3097Z" fill="#4B4DED" fill-opacity="0.15"/>
</svg>
