<svg width="72" height="72" viewBox="0 0 72 72" fill="none" xmlns="http://www.w3.org/2000/svg">
<path fill-rule="evenodd" clip-rule="evenodd" d="M49.002 6C59.169 6 66 13.134 66 23.748V48.252C66 58.866 59.169 66 48.999 66H22.995C12.828 66 6 58.866 6 48.252V23.748C6 13.134 12.828 6 22.995 6H49.002ZM49.002 10.5H22.995C15.405 10.5 10.5 15.699 10.5 23.748V48.252C10.5 56.301 15.405 61.5 22.995 61.5H48.999C56.592 61.5 61.5 56.301 61.5 48.252V23.748C61.5 15.699 56.592 10.5 49.002 10.5ZM48.2685 27.291C49.1475 28.17 49.1475 29.592 48.2685 30.471L34.0305 44.709C33.5925 45.15 33.0165 45.369 32.4405 45.369C31.8675 45.369 31.2885 45.15 30.8505 44.709L23.7285 37.59C22.8495 36.711 22.8495 35.289 23.7285 34.41C24.6075 33.531 26.0295 33.531 26.9085 34.41L32.4405 39.936L45.0885 27.291C45.9675 26.412 47.3895 26.412 48.2685 27.291Z" fill="#228276" fill-opacity="0.15"/>
</svg>
