<svg width="72" height="72" viewBox="0 0 72 72" fill="none" xmlns="http://www.w3.org/2000/svg">
<path fill-rule="evenodd" clip-rule="evenodd" d="M36 6C52.542 6 66 19.458 66 36C66 52.542 52.542 66 36 66C19.458 66 6 52.542 6 36C6 19.458 19.458 6 36 6ZM36 10.5C21.939 10.5 10.5 21.939 10.5 36C10.5 50.061 21.939 61.5 36 61.5C50.061 61.5 61.5 50.061 61.5 36C61.5 21.939 50.061 10.5 36 10.5ZM34.9836 21.2862C36.2286 21.2862 37.2336 22.2942 37.2336 23.5362V36.8022L47.4486 42.8922C48.5136 43.5312 48.8646 44.9112 48.2286 45.9792C47.8056 46.6842 47.0586 47.0772 46.2936 47.0772C45.9006 47.0772 45.5046 46.9752 45.1416 46.7622L33.8316 40.0152C33.1536 39.6072 32.7336 38.8722 32.7336 38.0802V23.5362C32.7336 22.2942 33.7416 21.2862 34.9836 21.2862Z" fill="#4B4DED" fill-opacity="0.15"/>
</svg>
