<svg width="72" height="72" viewBox="0 0 72 72" fill="none" xmlns="http://www.w3.org/2000/svg">
<path fill-rule="evenodd" clip-rule="evenodd" d="M63.8181 44.2053C65.0571 44.2983 65.9841 45.3813 65.8911 46.6203L65.3211 54.1473C64.8501 60.3573 59.6091 65.2203 53.3841 65.2203H18.5841C12.3591 65.2203 7.1181 60.3573 6.6471 54.1473L6.0771 46.6203C5.9841 45.3813 6.9141 44.2983 8.1531 44.2053C9.3981 44.1603 10.4721 45.0393 10.5681 46.2813L11.1351 53.8053C11.4291 57.6813 14.6991 60.7203 18.5841 60.7203H53.3841C57.2691 60.7203 60.5421 57.6813 60.8331 53.8053L61.4031 46.2813C61.4991 45.0393 62.6001 44.1573 63.8181 44.2053ZM39.8547 6C44.3635 6 48.0989 9.37879 48.6615 13.7371L54.57 13.7397C60.858 13.7397 65.97 18.8667 65.97 25.1727V35.4897C65.97 36.2907 65.544 37.0287 64.857 37.4307C57.4521 41.7672 48.0717 44.2965 38.2336 44.6339L38.2347 50.0298C38.2347 51.2718 37.2267 52.2798 35.9847 52.2798C34.7427 52.2798 33.7347 51.2718 33.7347 50.0298L33.7327 44.6347C23.9045 44.3003 14.5235 41.7704 7.113 37.4307C6.423 37.0287 6 36.2907 6 35.4897V25.1427C6 18.8547 11.127 13.7397 17.43 13.7397L23.3079 13.7371C23.8705 9.37879 27.6059 6 32.1147 6H39.8547ZM54.57 18.2397H17.43C13.608 18.2397 10.5 21.3357 10.5 25.1427V34.1787C17.6211 38.048 26.5987 40.1686 35.943 40.1727L35.9847 40.1688L36.018 40.17L37.4465 40.1551C46.2839 39.9446 54.7143 37.8479 61.47 34.1787V25.1727C61.47 21.3477 58.377 18.2397 54.57 18.2397ZM39.8547 10.5H32.1147C30.0947 10.5 28.3895 11.8748 27.8858 13.7378H44.0836C43.5799 11.8748 41.8747 10.5 39.8547 10.5Z" fill="#61B466" fill-opacity="0.15"/>
</svg>
