<svg width="18" height="18" viewBox="0 0 18 18" fill="none" xmlns="http://www.w3.org/2000/svg">
<g id="Exp ">
<path id="Vector" d="M8.25 7.5H9.75C10.8105 7.5 11.3408 7.5 11.67 7.83C12 8.15925 12 8.6895 12 9.75V14.25C12 13.1895 12 12.6593 12.33 12.33C12.6585 12 13.1888 12 14.25 12C15.3105 12 15.8408 12 16.17 12.33C16.5 12.6593 16.5 13.1895 16.5 14.25V16.5H1.5C1.5 15.4395 1.5 14.9093 1.83 14.58C2.1585 14.25 2.68875 14.25 3.75 14.25C4.8105 14.25 5.34075 14.25 5.67 14.58C6 14.9085 6 15.4388 6 16.5V9.75C6 8.6895 6 8.15925 6.33 7.83C6.6585 7.5 7.18875 7.5 8.25 7.5ZM8.3595 2.26725C8.6445 1.755 8.787 1.5 9 1.5C9.213 1.5 9.3555 1.755 9.6405 2.26725L9.714 2.39925C9.795 2.54475 9.8355 2.61675 9.8985 2.66475C9.96225 2.71275 10.041 2.73075 10.1985 2.766L10.341 2.799C10.8945 2.92425 11.1713 2.9865 11.2373 3.198C11.3033 3.41025 11.1143 3.63075 10.737 4.07175L10.6395 4.18575C10.5323 4.311 10.4783 4.37325 10.4543 4.45125C10.4303 4.52925 10.4385 4.6125 10.4543 4.77975L10.4693 4.932C10.5263 5.52075 10.5548 5.8155 10.383 5.946C10.2105 6.07725 9.951 5.95725 9.43275 5.71875L9.29925 5.65725C9.1515 5.58975 9.078 5.55525 9 5.55525C8.922 5.55525 8.8485 5.58975 8.70075 5.65725L8.56725 5.71875C8.049 5.95725 7.7895 6.07725 7.617 5.946C7.4445 5.8155 7.47375 5.52075 7.53075 4.932L7.54575 4.77975C7.5615 4.6125 7.56975 4.52925 7.54575 4.45125C7.52175 4.374 7.46775 4.311 7.3605 4.18575L7.263 4.07175C6.88575 3.63075 6.69675 3.41025 6.76275 3.198C6.82875 2.9865 7.1055 2.92425 7.659 2.799L7.8015 2.766C7.959 2.73075 8.03775 2.7135 8.1015 2.66475C8.1645 2.61675 8.205 2.54475 8.286 2.39925L8.3595 2.26725Z" fill="#228276"/>
</g>
</svg>
