<svg width="16" height="16" viewBox="0 0 16 16" fill="none" xmlns="http://www.w3.org/2000/svg">
<g id="Iconly/Bold/Login">
<g id="Login">
<path id="Vector" d="M4.46789 8.57743H1.46113C1.14142 8.57743 0.875 8.32242 0.875 7.99992C0.875 7.68493 1.14142 7.42243 1.46113 7.42243H4.46789L4.46812 3.8375C4.46812 2 6.01708 0.5 7.91457 0.5H11.694C13.5838 0.5 15.125 2 15.125 3.83V12.17C15.125 14.0075 13.5838 15.5 11.6786 15.5H7.90682C6.01708 15.5 4.46812 14.0075 4.46812 12.1775L4.46789 8.57743L9.26991 8.5775L8.03074 9.7775C7.79839 10.0025 7.79839 10.37 8.03074 10.595C8.14691 10.7075 8.30181 10.76 8.45671 10.76C8.60386 10.76 8.75875 10.7075 8.87493 10.595L11.1364 8.4125C11.2526 8.3075 11.3145 8.1575 11.3145 8C11.3145 7.85 11.2526 7.7 11.1364 7.595L8.87493 5.4125C8.64258 5.1875 8.26308 5.1875 8.03074 5.4125C7.79839 5.6375 7.79839 6.005 8.03074 6.23L9.26991 7.4225L4.46789 7.42243V8.57743Z" fill="#333333" fill-opacity="0.75"/>
</g>
</g>
</svg>
