<svg width="379" height="261" viewBox="0 0 379 261" fill="none" xmlns="http://www.w3.org/2000/svg">
<g clip-path="url(#clip0_623_20362)">
<path d="M82.7043 260.156L42.395 260.3C42.395 260.3 -3.96157 236.641 0.273459 149.791C4.50848 62.9397 86.5515 3.11559 137.823 0.244919C200.37 -3.25593 186.204 31.8377 254.957 37.5915C287.101 40.281 327.781 54.6142 353.534 99.0847C372.715 132.206 379.195 201.521 333.319 260.155H82.7043V260.156Z" fill="#FEEFDC"/>
<path d="M281.851 147.531C281.653 147.435 281.463 147.322 281.285 147.195C281.475 147.307 281.664 147.418 281.851 147.531Z" fill="#FDEACF"/>
<path d="M153.89 93.0846C153.89 93.0846 134.693 98.7547 128.632 109.96C122.569 121.166 107.739 120.523 96.2779 127.684C84.8182 134.845 76.3914 140.251 72.0096 157.139C67.6278 174.028 70.4923 204.26 89.3684 219.292C108.244 234.323 152.287 238.781 169.871 227.263C187.455 215.744 224.195 118.928 224.195 118.928L153.892 93.083L153.89 93.0846Z" fill="#7C4270"/>
<path d="M163.684 79.9239C163.269 76.9634 163.454 73.9256 164.627 71.1757C165.904 68.1811 168.301 64.8599 172.789 62.8981C179.654 59.8974 185.996 63.327 191.007 64.7949C196.018 66.2627 205.046 64.4062 208.439 73.7583C211.832 83.1105 209.97 89.9914 215.241 91.4376C220.513 92.8837 237.837 106.24 233.407 123.825C228.977 141.409 211.898 140.476 211.898 140.476C211.898 140.476 142.035 150.204 137.489 132.736C132.944 115.267 142.245 100.897 150.747 94.9895C155.58 91.6311 164.929 88.796 163.684 79.9239Z" fill="#7C4270"/>
<path d="M169.892 85.75C169.892 85.75 164.265 109.657 167.876 115.366C167.876 115.366 169.624 118.39 174.367 118.876L173.098 134.025L194.43 135.819L198.592 86.1201L169.892 85.7531V85.75Z" fill="#F9B59D"/>
<path d="M175.269 105.345C175.359 105.352 175.445 105.297 175.471 105.207C175.502 105.103 175.445 104.995 175.342 104.964C174.113 104.591 173.453 102.979 173.268 102.455C175.125 101.653 176.313 100.507 176.8 99.0474C177.594 96.6675 176.241 94.3419 176.184 94.2443C176.128 94.1514 176.009 94.1205 175.916 94.1762C175.824 94.2319 175.793 94.3512 175.848 94.4441C175.862 94.4673 177.168 96.7186 176.429 98.9266C175.964 100.317 174.795 101.406 172.951 102.164L172.789 102.231L172.839 102.4C172.868 102.499 173.563 104.83 175.227 105.337C175.241 105.34 175.253 105.343 175.267 105.345H175.269Z" fill="#F07162"/>
<path d="M173.857 124.969L174.367 118.876C174.367 118.876 184.698 119.135 191.337 115.684C191.337 115.684 182.088 123.21 173.857 124.971V124.969Z" fill="#F07162"/>
<path d="M188.039 94.0639C188.136 94.0717 188.235 94.0438 188.317 93.9772C188.484 93.841 188.51 93.5948 188.374 93.4275C188.328 93.3718 183.775 87.8472 178.911 91.1406C178.733 91.2614 178.685 91.5045 178.806 91.6825C178.926 91.8606 179.169 91.9086 179.348 91.7878C183.617 88.897 187.6 93.7124 187.767 93.9199C187.837 94.0066 187.936 94.0546 188.038 94.0639H188.039Z" fill="#632C55"/>
<path d="M174.601 92.0758C174.709 92.0851 174.821 92.0479 174.905 91.9659C175.059 91.8157 175.062 91.5679 174.913 91.4131C174.777 91.2737 171.564 88.016 169.213 89.7192C169.038 89.8461 168.998 90.0892 169.125 90.2642C169.252 90.4392 169.494 90.4794 169.669 90.3525C171.476 89.0472 174.325 91.9302 174.353 91.9597C174.421 92.0293 174.509 92.068 174.599 92.0758H174.601Z" fill="#632C55"/>
<path d="M169.893 85.75C169.893 85.75 172.522 76.5434 185.11 76.5635C197.696 76.5836 198.594 86.1169 198.594 86.1169L184.086 87.817L170.82 85.7608L169.894 85.7484L169.893 85.75Z" fill="#F9B59D"/>
<path d="M170.557 77.8195C170.557 77.8195 177.692 86.1017 187.926 85.2207C187.926 85.2207 190.258 97.8538 197.606 97.8972C204.954 97.9405 202.414 80.4982 202.414 80.4982C202.414 80.4982 189.233 73.7799 188.37 73.7071C187.506 73.6343 173.1 71.5518 173.1 71.5518L170.558 77.8195H170.557Z" fill="#7C4270"/>
<path d="M178.815 100.972C179.126 100.999 179.166 100.516 178.856 100.489C178.545 100.463 178.505 100.946 178.815 100.972Z" fill="#EA5942"/>
<path d="M180.206 101.965C180.517 101.991 180.557 101.508 180.246 101.482C179.936 101.455 179.895 101.938 180.206 101.965Z" fill="#EA5942"/>
<path d="M183.007 100.451C183.317 100.477 183.358 99.9942 183.047 99.9678C182.736 99.9415 182.696 100.425 183.007 100.451Z" fill="#EA5942"/>
<path d="M185.138 102.38C185.448 102.406 185.488 101.923 185.178 101.897C184.867 101.87 184.827 102.353 185.138 102.38Z" fill="#EA5942"/>
<path d="M187.718 100.245C188.028 100.271 188.068 99.7881 187.758 99.7618C187.447 99.7355 187.407 100.219 187.718 100.245Z" fill="#EA5942"/>
<path d="M188.293 103.794C188.603 103.82 188.644 103.337 188.333 103.311C188.023 103.284 187.982 103.767 188.293 103.794Z" fill="#EA5942"/>
<path d="M174.11 99.155C174.421 99.1813 174.461 98.6983 174.15 98.6719C173.84 98.6456 173.8 99.1287 174.11 99.155Z" fill="#EA5942"/>
<path d="M172.159 100.96C172.47 100.986 172.51 100.503 172.199 100.477C171.889 100.45 171.849 100.933 172.159 100.96Z" fill="#EA5942"/>
<path d="M170.064 99.9089C170.375 99.9353 170.415 99.4522 170.105 99.4258C169.794 99.3995 169.754 99.8826 170.064 99.9089Z" fill="#EA5942"/>
<path d="M169.616 103.316C169.927 103.342 169.967 102.859 169.656 102.833C169.346 102.807 169.306 103.29 169.616 103.316Z" fill="#EA5942"/>
<path d="M168.157 101.171C168.468 101.197 168.508 100.714 168.197 100.688C167.887 100.661 167.847 101.144 168.157 101.171Z" fill="#EA5942"/>
<path d="M168.788 98.2146C169.099 98.2409 169.139 97.7578 168.828 97.7315C168.518 97.7052 168.477 98.1883 168.788 98.2146Z" fill="#EA5942"/>
<path d="M181.812 103.631C182.123 103.657 182.163 103.174 181.853 103.148C181.542 103.121 181.502 103.604 181.812 103.631Z" fill="#EA5942"/>
<path d="M131.413 173.739C131.413 173.739 101.763 181.411 94.0451 180.812C86.3275 180.212 39.3652 129.079 39.3652 129.079L51.7644 118.533L97.4566 150.553L126.155 143.309L131.413 173.739Z" fill="#F9B59D"/>
<path d="M95.4743 148.872C95.6628 148.677 95.9425 148.581 96.2268 148.641C96.6656 148.734 96.9468 149.166 96.8541 149.607L94.195 162.242C94.1023 162.682 93.6713 162.963 93.2309 162.87C92.7921 162.778 92.5109 162.346 92.6036 161.904L95.2627 149.27C95.2951 149.113 95.3708 148.977 95.4743 148.872Z" fill="#EF9073"/>
<path d="M18.7942 111.101C19.2407 110.172 23.4928 112.334 25.4581 113.617C27.4234 114.901 31.1517 118.233 31.1517 118.233C31.1517 118.233 32.5901 124.201 32.5329 124.343C32.4758 124.485 27.119 126.834 26.9429 126.955C26.7683 127.076 18.2318 126.752 18.2318 126.752C18.2318 126.752 5.93927 114.79 6.50477 113.882C7.07026 112.975 8.42065 113.032 10.593 114.099C11.2528 114.423 15.9003 118.157 15.9003 118.157L17.7266 118.873C17.7266 118.873 11.5154 112.081 12.2431 111.413C12.9709 110.742 15.2251 111.191 17.7019 113.732C18.7865 114.845 23.2718 118.828 23.2718 118.828L26.4624 119.939C26.4624 119.939 18.3477 112.03 18.7942 111.101Z" fill="#EF9073"/>
<path d="M15.4879 118.52C15.4353 118.467 15.3905 118.414 15.355 118.362C15.27 118.238 15.2345 118.117 15.253 117.999C15.2577 117.976 15.2623 117.951 15.2669 117.93C15.3596 117.527 15.6625 117.299 16.1229 117.176C16.1476 117.169 16.1739 117.162 16.2017 117.155C16.228 117.149 16.2542 117.143 16.282 117.137C17.2987 116.925 18.955 117.109 20.7905 117.061C20.8276 117.061 20.8662 117.059 20.9033 117.058C20.942 117.058 20.979 117.056 21.0177 117.055C21.594 117.033 22.1857 116.987 22.7775 116.897C22.9413 116.872 23.1035 116.846 23.2657 116.818C23.2935 116.813 23.3229 116.809 23.3507 116.804C23.3785 116.799 23.4079 116.793 23.4357 116.788C24.7722 116.55 26.0716 116.216 27.3308 115.835C27.3602 115.825 27.3911 115.818 27.4204 115.808C27.4498 115.799 27.4807 115.79 27.51 115.78C31.4762 114.567 36.8515 114.054 40.4221 113.839C42.9174 113.689 45.3957 114.331 47.5016 115.68C49.0235 116.655 58.7914 123.561 58.8872 123.638C55.8944 129.645 48.1197 132.459 45.3787 134.025C45.3571 134.037 45.3339 134.05 45.3123 134.062L43.5432 132.552L43.4335 132.459L43.4288 132.456L42.5883 131.739L42.4879 131.653L42.4771 131.643L40.8795 130.281L39.3823 129.003C39.3823 129.003 39.3004 129.016 39.1475 129.038C37.3057 129.302 25.2218 131.03 22.5844 130.981C19.726 130.928 12.8443 127.625 12.8443 127.625C12.8443 127.625 12.8211 127.615 12.7794 127.594C11.7983 127.124 0.00477016 121.434 1.01215 120.206C2.05353 118.939 7.14143 119.87 7.16306 119.879C8.51963 120.379 17.5088 123.72 17.5088 123.72C20.5789 123.753 25.8336 121.986 25.8336 121.986C25.8336 121.986 17.3744 120.179 15.579 118.608C15.545 118.578 15.5141 118.549 15.4863 118.521L15.4879 118.52Z" fill="#F9B59D"/>
<path d="M238.598 187.3C238.598 187.3 264.631 203.457 272.177 205.185C279.723 206.913 339.732 172.081 339.732 172.081L331.021 158.319L277.895 175.28L252.644 159.812L238.597 187.3H238.598Z" fill="#F9B59D"/>
<path d="M280.289 174.263C280.167 174.022 279.927 173.847 279.638 173.819C279.192 173.777 278.795 174.105 278.753 174.554L277.545 187.411C277.503 187.858 277.83 188.256 278.279 188.298C278.725 188.34 279.122 188.011 279.164 187.562L280.372 174.706C280.388 174.548 280.355 174.395 280.289 174.263Z" fill="#EF9073"/>
<path d="M364.705 161.045C364.554 160.024 359.854 160.822 357.597 161.461C355.339 162.101 350.792 164.172 350.792 164.172C350.792 164.172 347.648 169.442 347.66 169.595C347.673 169.748 352.091 173.587 352.223 173.754C352.354 173.921 360.6 176.155 360.6 176.155C360.6 176.155 375.885 168.395 375.615 167.361C375.345 166.326 374.039 165.978 371.647 166.349C370.921 166.462 365.376 168.643 365.376 168.643L363.42 168.782C363.42 168.782 371.365 164.149 370.869 163.293C370.373 162.437 368.088 162.194 364.97 163.881C363.604 164.622 358.14 167.086 358.14 167.086L354.764 167.198C354.764 167.198 364.858 162.064 364.708 161.043L364.705 161.045Z" fill="#EF9073"/>
<path d="M365.661 169.113C365.728 169.079 365.785 169.042 365.834 169.002C365.952 168.909 366.023 168.803 366.04 168.686C366.043 168.661 366.046 168.638 366.048 168.615C366.079 168.203 365.856 167.896 365.454 167.639C365.433 167.625 365.41 167.611 365.386 167.597C365.363 167.583 365.34 167.569 365.315 167.557C364.408 167.051 362.771 166.735 361.032 166.142C360.997 166.129 360.961 166.117 360.926 166.105C360.89 166.092 360.853 166.08 360.818 166.067C360.274 165.875 359.724 165.656 359.185 165.392C359.036 165.32 358.889 165.247 358.743 165.171C358.716 165.159 358.692 165.145 358.665 165.132C358.639 165.118 358.614 165.106 358.588 165.092C357.383 164.466 356.243 163.76 355.152 163.022C355.126 163.005 355.099 162.986 355.075 162.969C355.048 162.952 355.024 162.934 354.997 162.917C351.572 160.575 346.591 158.485 343.246 157.215C340.908 156.328 338.351 156.203 335.939 156.864C334.196 157.341 322.821 161.026 322.707 161.071C323.782 167.696 330.371 172.702 332.524 175.012C332.541 175.031 332.558 175.05 332.575 175.068L334.712 174.155L334.844 174.099H334.85L335.865 173.662L335.985 173.61L335.999 173.603L337.929 172.778L339.737 172.004C339.737 172.004 339.812 172.039 339.952 172.106C341.631 172.908 352.657 178.157 355.191 178.896C357.936 179.698 365.485 178.594 365.485 178.594C365.485 178.594 365.51 178.591 365.556 178.583C366.633 178.426 379.581 176.507 378.983 175.034C378.365 173.515 373.231 172.888 373.208 172.89C371.764 172.964 362.19 173.475 362.19 173.475C359.248 172.592 354.756 169.339 354.756 169.339C354.756 169.339 363.369 170.133 365.55 169.169C365.59 169.15 365.629 169.133 365.665 169.113H365.661Z" fill="#F9B59D"/>
<path d="M101.838 147.089C101.838 147.089 146.781 129.554 159.927 128.204C173.072 126.852 201.385 128.419 209.812 129.771C218.239 131.122 259.923 153.846 277.114 168.371C277.114 168.371 270.541 191.341 255.878 205.021L234.306 194.043L220.149 260.587H143.297L138.747 218.871C138.747 218.871 123.238 203.445 128.63 186.387L113.972 188.808C113.972 188.808 100.49 164.994 101.837 147.092L101.838 147.089Z" fill="#228276"/>
<path d="M142.92 260.627L138.384 219.032C119.399 198 129.122 183.337 132.786 177.813C133.29 177.054 133.809 176.269 133.816 176.054H134.575C134.575 176.47 134.22 177.023 133.418 178.232C129.838 183.63 120.328 197.968 139.028 218.61L139.111 218.702L143.675 260.542L142.921 260.625L142.92 260.627Z" fill="#1D1D1B"/>
<path d="M128.573 186.003L113.916 188.432L114.04 189.182L128.697 186.753L128.573 186.003Z" fill="#1D1D1B"/>
<path d="M255.897 205.458L228.964 191.595L229.31 190.92L255.846 204.578C257.271 203.534 267.203 195.492 276.754 168.244L277.47 168.497C267.096 198.089 256.525 205.06 256.08 205.341L255.896 205.458H255.897Z" fill="#1D1D1B"/>
<path d="M220.52 260.665L219.778 260.505C220.077 259.104 233.987 193.862 233.987 193.862L234.728 194.022C234.728 194.022 220.82 259.262 220.522 260.665H220.52Z" fill="#1D1D1B"/>
<path d="M147.946 130.943C147.946 130.943 164.02 143.227 181.568 143.489C205.991 143.854 218.689 133.041 218.689 133.041C218.689 133.041 215.141 129.879 206.616 128.722C189.889 126.452 161.016 125.585 147.946 130.943Z" fill="#F9B59D"/>
<path d="M182.925 97.8136C182.531 97.8136 182.155 97.7517 181.802 97.6262C180.375 97.123 179.839 95.7899 179.816 95.7326C179.777 95.635 179.825 95.5251 179.923 95.4864C180.02 95.4492 180.13 95.4957 180.168 95.5932C180.173 95.6056 180.671 96.8257 181.931 97.2701C182.946 97.6262 184.178 97.4002 185.588 96.595C185.678 96.5439 185.796 96.5749 185.846 96.6663C185.899 96.7576 185.867 96.8737 185.775 96.9264C184.737 97.5179 183.784 97.8136 182.923 97.8136H182.925Z" fill="#1D1D1B"/>
<path d="M171.248 96.6111C171.578 96.6607 171.9 96.6545 172.212 96.5941C173.468 96.3495 174.084 95.2997 174.109 95.2548C174.154 95.1773 174.128 95.0798 174.05 95.0349C173.973 94.9915 173.876 95.0163 173.831 95.0937C173.825 95.103 173.258 96.0645 172.145 96.2782C171.251 96.4501 170.248 96.1064 169.165 95.2563C169.095 95.2021 168.995 95.2145 168.939 95.2842C168.885 95.3539 168.896 95.456 168.967 95.5102C169.763 96.1342 170.526 96.5027 171.246 96.6096L171.248 96.6111Z" fill="#1D1D1B"/>
<path d="M174.987 108.615C174.797 108.146 175.024 107.585 175.509 107.446C175.812 107.359 176.201 107.379 176.662 107.683C177.848 108.46 178.315 110.354 177.734 111.334C177.173 112.28 175.905 112.111 175.537 111.334C175.169 110.557 175.382 110.351 175.382 109.44C175.382 108.866 175.107 108.917 174.985 108.615H174.987Z" fill="#F07162"/>
<path d="M134.054 184.297L134.025 186.532L133.69 211.815L133.68 212.416L133.671 213.142L133.401 233.514L133.359 236.757C133.365 237.518 133.361 253.045 127.732 260.629H126.706C132.554 253.45 132.556 236.943 132.554 236.754L132.599 233.458L132.883 211.973L132.894 211.165L132.902 210.584L133.22 186.532L133.249 184.288L134.056 184.297H134.054Z" fill="#1E2B46"/>
<path d="M134.347 178.394H132.956V186.532H134.347V178.394Z" fill="#101B2D"/>
<path d="M136.392 166.292L133.651 166.664L130.91 166.292C130.91 166.292 130.317 183.406 133.651 183.072C136.985 183.406 136.392 166.292 136.392 166.292Z" fill="#BFEFE8"/>
<path d="M125.353 144.24H117.895V148.003H125.353V144.24Z" fill="#1E2B46"/>
<path d="M118.919 162.28V127.694L125.968 138.655V152.129L125.913 152.206L118.919 162.279V162.28ZM119.522 129.751V160.354L125.363 151.942V138.835L119.522 129.751Z" fill="#1E2B46"/>
<path d="M116.104 151.944H111.659V260.629H116.104V151.944Z" fill="#1E2B46"/>
<path d="M133.652 163.471H130.317V167.925H133.652H136.984V163.471H133.652Z" fill="#101B2D"/>
<path d="M141.95 148.002H149.408V144.239H141.95V148.002Z" fill="#1E2B46"/>
<path d="M148.384 162.28L141.335 152.13V138.656L148.384 127.695V162.281V162.28ZM141.938 151.941L147.779 160.353V129.75L141.938 138.834V151.941Z" fill="#1E2B46"/>
<path d="M141.948 106.152C141.948 106.152 141.8 102.439 139.578 101.771C137.357 101.102 129.946 101.102 127.725 101.771C125.501 102.44 125.354 106.152 125.354 106.152V127.088L133.653 131.989L141.952 127.088V106.152H141.948Z" fill="#228276"/>
<path d="M120.084 127.695H118.919V162.281H120.084V127.695Z" fill="#101B2D"/>
<path d="M148.362 127.695H147.197V162.281H148.362V127.695Z" fill="#101B2D"/>
<g opacity="0.1">
<path d="M141.949 106.591L138.057 110.492L133.644 106.07L138.202 101.502C137.735 101.443 137.207 101.395 136.641 101.356L132.791 105.215L129.088 101.504C128.534 101.575 128.068 101.663 127.723 101.765C127.703 101.771 127.683 101.778 127.663 101.785L131.937 106.068L127.524 110.49L125.352 108.313V110.024L126.67 111.345L125.352 112.666V114.38L127.524 112.203L131.937 116.625L127.524 121.047L125.352 118.87V120.581L126.67 121.902L125.352 123.222V124.933L127.524 122.756L131.937 127.179L129.556 129.565L130.63 130.199L132.79 128.033L135.589 130.839L136.661 130.204L133.642 127.179L138.055 122.756L141.947 126.657V124.947L138.908 121.902L141.947 118.856V117.147L138.055 121.047L133.642 116.625L138.055 112.203L141.947 116.103V114.392L138.908 111.346L141.947 108.301V106.591H141.949ZM137.204 121.903L132.791 126.325L128.378 121.903L132.791 117.481L137.204 121.903ZM132.791 115.769L128.378 111.346L132.791 106.924L137.204 111.346L132.791 115.769Z" fill="#101B2D"/>
</g>
<path d="M133.651 124.937H125.353V159.388C125.353 159.388 126.675 165.118 133.548 165.177C133.561 165.179 133.575 165.177 133.589 165.177C133.609 165.177 133.629 165.179 133.65 165.179V165.175C140.524 165.118 141.948 159.388 141.948 159.388V124.937H133.65H133.651Z" fill="#BFEFE8"/>
<path d="M133.651 106.523H123.426V110.012H133.651H143.875V106.523H133.651Z" fill="#1E2B46"/>
<path d="M133.651 124.937H123.426V128.722H133.651H143.875V124.937H133.651Z" fill="#1E2B46"/>
<path d="M133.651 106.523H131.799V128.722H133.651H135.502V106.523H133.651Z" fill="#1E2B46"/>
<path d="M138.811 110.113H123.325V106.423H143.875V106.624H123.526V109.911H138.811V110.113Z" fill="#1D1D1B"/>
<path d="M143.875 128.823H123.325V124.834H143.875V125.037H123.526V128.621H143.875V128.823Z" fill="#1D1D1B"/>
<path d="M131.899 110.012H131.698V124.935H131.899V110.012Z" fill="#1D1D1B"/>
<path d="M125.453 110.027H125.252V124.935H125.453V110.027Z" fill="#1D1D1B"/>
<path d="M125.453 106.526L125.252 106.52C125.258 106.354 125.414 102.451 127.692 101.672C129.921 100.907 135.925 101.243 136.18 101.257L136.168 101.459C136.106 101.455 129.949 101.112 127.757 101.863C125.61 102.598 125.454 106.488 125.453 106.526Z" fill="#1D1D1B"/>
<path d="M133.258 165.282C126.732 165.282 125.269 159.469 125.255 159.409L125.252 159.385V128.722H125.453V159.373C125.527 159.661 127.087 165.305 133.646 165.073L133.654 165.274C133.52 165.279 133.388 165.28 133.258 165.28V165.282Z" fill="#1D1D1B"/>
<path d="M113.882 140.089C111.665 140.089 109.869 141.89 109.869 144.11V155.576H117.896V144.11C117.896 141.89 116.099 140.089 113.883 140.089H113.882Z" fill="#BFEFE8"/>
<path d="M117.895 155.676H109.768V144.11C109.768 141.837 111.612 139.988 113.881 139.988V140.19C111.724 140.19 109.968 141.949 109.968 144.11V155.473H117.895V155.675V155.676Z" fill="#1D1D1B"/>
<path d="M117.995 153.631H117.794V144.24C117.794 142.357 116.716 141.407 116.705 141.397L116.836 141.244C116.884 141.284 117.995 142.26 117.995 144.24V153.631Z" fill="#1D1D1B"/>
<path d="M187.972 63.7886C187.972 63.7886 197.027 74.7123 196.207 93.0852L202.027 88.2125C202.027 88.2125 202.84 75.7265 192.848 65.1867C192.848 65.1867 190.173 62.6676 187.972 63.7901V63.7886Z" fill="#228276"/>
<path d="M209.629 99.7251C210.741 93.6367 207.394 87.922 202.153 86.9608C196.911 85.9997 191.761 90.1562 190.65 96.2446C189.538 102.333 192.885 108.048 198.127 109.009C203.368 109.97 208.518 105.813 209.629 99.7251Z" fill="#228276"/>
<path d="M206.017 99.0626C206.705 95.2916 204.632 91.752 201.385 91.1566C198.138 90.5612 194.948 93.1355 194.259 96.9064C193.571 100.677 195.645 104.217 198.891 104.812C202.138 105.408 205.328 102.834 206.017 99.0626Z" fill="#1E2B46"/>
<path d="M199.637 109.322C199.119 109.322 198.598 109.275 198.081 109.179C192.747 108.202 189.326 102.379 190.454 96.2008C191.582 90.0213 196.84 85.788 202.172 86.7666C206.146 87.4943 209.167 90.9007 209.868 95.4452L209.503 95.5009C208.827 91.116 205.924 87.8303 202.106 87.1305C196.97 86.1891 191.908 90.2876 190.817 96.2674C189.727 102.246 193.014 107.875 198.147 108.817C201.347 109.404 204.627 108.063 206.923 105.229L207.209 105.463C205.197 107.945 202.45 109.323 199.637 109.323V109.322Z" fill="#228276"/>
<path d="M199.814 105.073C199.492 105.073 199.17 105.043 198.847 104.985C197.223 104.687 195.832 103.675 194.93 102.134C194.032 100.603 193.726 98.7308 194.068 96.8635C194.259 95.8121 194.641 94.8366 195.2 93.9649L195.511 94.1647C194.978 94.9961 194.615 95.9252 194.431 96.93C194.106 98.7107 194.397 100.493 195.248 101.947C196.095 103.393 197.397 104.342 198.913 104.621C202.056 105.195 205.154 102.684 205.823 99.0188C206.21 96.896 205.696 94.7221 204.449 93.2031L204.733 92.9678C206.05 94.5703 206.592 96.8573 206.186 99.0854C205.549 102.575 202.802 105.073 199.814 105.073Z" fill="#1D1D1B"/>
<path d="M195.991 87.8268C195.396 73.5369 187.903 63.999 187.827 63.9045L188.115 63.6738C188.19 63.7698 195.758 73.396 196.359 87.8113L195.991 87.8268Z" fill="#1D1D1B"/>
<path d="M187.437 220.343C183.566 220.343 180.244 219.733 177.628 218.987C171.485 217.235 167.81 214.377 167.772 214.348L168.114 213.911C168.149 213.939 171.757 216.742 177.803 218.459C183.376 220.043 192.226 221.003 202.73 216.584L202.944 217.095C197.204 219.51 191.948 220.34 187.435 220.34L187.437 220.343Z" fill="#1D1D1B"/>
<path d="M345.154 261H21.8379C21.5675 261 21.3481 260.78 21.3481 260.509C21.3481 260.238 21.5675 260.019 21.8379 260.019H345.155C345.426 260.019 345.645 260.238 345.645 260.509C345.645 260.78 345.426 261 345.155 261H345.154Z" fill="#4C222E"/>
</g>
<defs>
<clipPath id="clip0_623_20362">
<rect width="379" height="261" fill="white"/>
</clipPath>
</defs>
</svg>
