<svg width="40" height="41" viewBox="0 0 40 41" fill="none" xmlns="http://www.w3.org/2000/svg">
<rect x="0.000976562" y="0.5" width="40" height="40" rx="20" fill="#747474"/>
<path d="M22.8464 24.3568L28.7802 30.2905C28.9143 30.4247 29.0962 30.5 29.2859 30.5C29.4755 30.5 29.6574 30.4247 29.7915 30.2905C29.9256 30.1564 30.001 29.9745 30.001 29.7849C30.001 29.5952 29.9256 29.4133 29.7915 29.2792L11.2218 10.7095C11.1554 10.643 11.0765 10.5904 10.9898 10.5544C10.903 10.5185 10.81 10.5 10.7161 10.5C10.6222 10.5 10.5292 10.5185 10.4424 10.5544C10.3557 10.5904 10.2768 10.643 10.2104 10.7095C10.144 10.7759 10.0914 10.8547 10.0554 10.9415C10.0195 11.0282 10.001 11.1212 10.001 11.2151C10.001 11.309 10.0195 11.402 10.0554 11.4888C10.0914 11.5756 10.144 11.6544 10.2104 11.7208L12.146 13.6549C11.5087 13.9327 10.9664 14.3905 10.5855 14.972C10.2046 15.5536 10.0018 16.2337 10.0019 16.9289V24.0711C10.0019 25.0182 10.3781 25.9265 11.0478 26.5963C11.7175 27.266 12.6259 27.6422 13.573 27.6422H19.2868C20.1844 27.6422 21.0492 27.3042 21.7088 26.6953C22.3685 26.0865 22.7746 25.2516 22.8464 24.3568ZM24.172 21.6399L28.6816 26.1509C29.4073 25.9481 29.9944 25.2939 29.9944 24.4282V16.5746C29.9942 16.2491 29.905 15.9298 29.7364 15.6513C29.5679 15.3728 29.3264 15.1457 29.0382 14.9945C28.7499 14.8433 28.4258 14.7738 28.1008 14.7935C27.7759 14.8132 27.4625 14.9213 27.1946 15.1062L24.1435 17.2117C24.1625 17.3441 24.172 17.4784 24.172 17.6145V21.6399ZM15.8871 13.3578L22.8579 20.3272V16.9289C22.8579 15.9818 22.4816 15.0735 21.8119 14.4037C21.1422 13.734 20.2339 13.3578 19.2868 13.3578H15.8871Z" fill="white"/>
</svg>
