<svg width="40" height="41" viewBox="0 0 40 41" fill="none" xmlns="http://www.w3.org/2000/svg">
<rect y="0.5" width="40.002" height="40" rx="20" fill="#228276"/>
<path d="M10 16.75C10 15.888 10.3424 15.0614 10.9519 14.4519C11.5614 13.8424 12.388 13.5 13.25 13.5H19.75C20.1768 13.5 20.5994 13.5841 20.9937 13.7474C21.388 13.9107 21.7463 14.1501 22.0481 14.4519C22.3499 14.7537 22.5893 15.112 22.7526 15.5063C22.9159 15.9006 23 16.3232 23 16.75V24.25C23 24.6768 22.9159 25.0994 22.7526 25.4937C22.5893 25.888 22.3499 26.2463 22.0481 26.5481C21.7463 26.8499 21.388 27.0893 20.9937 27.2526C20.5994 27.4159 20.1768 27.5 19.75 27.5H13.25C12.388 27.5 11.5614 27.1576 10.9519 26.5481C10.3424 25.9386 10 25.112 10 24.25V16.75ZM27.257 26.188L24 23.94V17.062L27.257 14.813C28.418 14.011 30.002 14.843 30.002 16.253V24.748C30.002 26.158 28.418 26.99 27.257 26.188Z" fill="white"/>
</svg>
