<svg width="45" height="45" viewBox="0 0 45 45" fill="none" xmlns="http://www.w3.org/2000/svg">
<rect y="5" width="40" height="40" rx="20" fill="#747474"/>
<path d="M22.8455 28.8568L28.7792 34.7905C28.9133 34.9247 29.0952 35 29.2849 35C29.4745 35 29.6564 34.9247 29.7905 34.7905C29.9247 34.6564 30 34.4745 30 34.2849C30 34.0952 29.9247 33.9133 29.7905 33.7792L11.2208 15.2095C11.1544 15.143 11.0756 15.0904 10.9888 15.0544C10.902 15.0185 10.809 15 10.7151 15C10.6212 15 10.5282 15.0185 10.4415 15.0544C10.3547 15.0904 10.2759 15.143 10.2095 15.2095C10.143 15.2759 10.0904 15.3547 10.0544 15.4415C10.0185 15.5282 10 15.6212 10 15.7151C10 15.809 10.0185 15.902 10.0544 15.9888C10.0904 16.0756 10.143 16.1544 10.2095 16.2208L12.145 18.1549C11.5077 18.4327 10.9654 18.8905 10.5845 19.472C10.2037 20.0536 10.0008 20.7337 10.0009 21.4289V28.5711C10.0009 29.5182 10.3771 30.4265 11.0469 31.0963C11.7166 31.766 12.6249 32.1422 13.572 32.1422H19.2858C20.1834 32.1422 21.0482 31.8042 21.7078 31.1953C22.3675 30.5865 22.7736 29.7516 22.8455 28.8568ZM24.1711 26.1399L28.6806 30.6509C29.4063 30.4481 29.9934 29.7939 29.9934 28.9282V21.0746C29.9932 20.7491 29.904 20.4298 29.7355 20.1513C29.5669 19.8728 29.3255 19.6457 29.0372 19.4945C28.7489 19.3433 28.4248 19.2738 28.0998 19.2935C27.7749 19.3132 27.4616 19.4213 27.1936 19.6062L24.1425 21.7117C24.1615 21.8441 24.1711 21.9784 24.1711 22.1145V26.1399ZM15.8861 17.8578L22.8569 24.8272V21.4289C22.8569 20.4818 22.4806 19.5735 21.8109 18.9037C21.1412 18.234 20.2329 17.8578 19.2858 17.8578H15.8861Z" fill="white"/>
<path d="M35 0C37.6522 0 40.1957 1.05357 42.0711 2.92893C43.9464 4.8043 45 7.34784 45 10C45 12.6522 43.9464 15.1957 42.0711 17.0711C40.1957 18.9464 37.6522 20 35 20C32.3478 20 29.8043 18.9464 27.9289 17.0711C26.0536 15.1957 25 12.6522 25 10C25 7.34784 26.0536 4.8043 27.9289 2.92893C29.8043 1.05357 32.3478 0 35 0ZM35 4.28571C34.8186 4.28555 34.6392 4.32322 34.4732 4.39632C34.3072 4.46941 34.1583 4.57632 34.036 4.71022C33.9136 4.84413 33.8206 5.00207 33.7627 5.17397C33.7049 5.34587 33.6835 5.52795 33.7 5.70857L34.2214 11.4314C34.2416 11.6238 34.3324 11.8019 34.4762 11.9314C34.6199 12.0608 34.8065 12.1325 35 12.1325C35.1935 12.1325 35.3801 12.0608 35.5238 11.9314C35.6676 11.8019 35.7584 11.6238 35.7786 11.4314L36.2986 5.70857C36.3151 5.52807 36.2937 5.34611 36.236 5.17431C36.1782 5.00251 36.0853 4.84463 35.9631 4.71075C35.8409 4.57687 35.6922 4.46993 35.5263 4.39675C35.3605 4.32357 35.1813 4.28575 35 4.28571ZM35 15.7143C35.3031 15.7143 35.5938 15.5939 35.8081 15.3796C36.0224 15.1652 36.1429 14.8745 36.1429 14.5714C36.1429 14.2683 36.0224 13.9776 35.8081 13.7633C35.5938 13.549 35.3031 13.4286 35 13.4286C34.6969 13.4286 34.4062 13.549 34.1919 13.7633C33.9776 13.9776 33.8571 14.2683 33.8571 14.5714C33.8571 14.8745 33.9776 15.1652 34.1919 15.3796C34.4062 15.5939 34.6969 15.7143 35 15.7143Z" fill="#D6615A"/>
</svg>
