<svg width="293" height="168" viewBox="0 0 293 168" fill="none" xmlns="http://www.w3.org/2000/svg">
<g clip-path="url(#clip0_728_22375)">
<path d="M263.504 1.48242H29.4968C13.7493 1.48242 0.983398 14.237 0.983398 29.9707V138.029C0.983398 153.763 13.7493 166.518 29.4968 166.518H263.504C279.251 166.518 292.017 153.763 292.017 138.029V29.9707C292.017 14.237 279.251 1.48242 263.504 1.48242Z" fill="white"/>
<path d="M263.504 1.48242H29.4968C13.7493 1.48242 0.983398 14.237 0.983398 29.9707V138.029C0.983398 153.763 13.7493 166.518 29.4968 166.518H263.504C279.251 166.518 292.017 153.763 292.017 138.029V29.9707C292.017 14.237 279.251 1.48242 263.504 1.48242Z" stroke="#747474"/>
<path d="M19.6641 39.7945C19.6641 28.9438 28.4682 20.1475 39.3285 20.1475H289.067V71.2298H39.3285C28.4682 71.2298 19.6641 62.4334 19.6641 51.5828V39.7945Z" fill="#E5E5E5"/>
<path d="M45.394 39.1502L39.6561 44.876C39.5517 44.9848 39.4699 45.1133 39.4152 45.2538C39.3004 45.5326 39.3004 45.8454 39.4152 46.1242C39.4699 46.2646 39.5517 46.3931 39.6561 46.502L45.394 52.2277C45.501 52.3344 45.628 52.4191 45.7678 52.477C45.9076 52.5348 46.0575 52.5645 46.2087 52.5645C46.5145 52.5645 46.8075 52.4432 47.0236 52.2277C47.2397 52.012 47.361 51.7196 47.361 51.4147C47.361 51.1096 47.2397 50.8173 47.0236 50.6015L43.2366 46.8342H51.9466C52.251 46.8342 52.5428 46.7134 52.7581 46.4986C52.9733 46.2839 53.0942 45.9927 53.0942 45.689C53.0942 45.3852 52.9733 45.0941 52.7581 44.8793C52.5428 44.6646 52.251 44.5438 51.9466 44.5438H43.2366L47.0236 40.7764C47.1312 40.6699 47.2165 40.5432 47.2747 40.4037C47.3331 40.2642 47.363 40.1145 47.363 39.9632C47.363 39.8121 47.3331 39.6624 47.2747 39.5229C47.2165 39.3835 47.1312 39.2567 47.0236 39.1502C46.9168 39.043 46.79 38.9577 46.6502 38.8995C46.5104 38.8414 46.3603 38.8115 46.2087 38.8115C46.0573 38.8115 45.9072 38.8414 45.7674 38.8995C45.6276 38.9577 45.5008 39.043 45.394 39.1502Z" fill="#585858"/>
<path d="M78.4922 52.2257L84.2301 46.5C84.3345 46.3912 84.4163 46.2627 84.471 46.1222C84.5858 45.8434 84.5858 45.5306 84.471 45.2518C84.4163 45.1114 84.3345 44.9829 84.2301 44.874L78.4922 39.1483C78.3852 39.0416 78.2582 38.9569 78.1184 38.899C77.9786 38.8412 77.8287 38.8115 77.6775 38.8115C77.3717 38.8115 77.0787 38.9327 76.8626 39.1483C76.6465 39.364 76.5252 39.6563 76.5252 39.9613C76.5252 40.2664 76.6465 40.5587 76.8626 40.7745L80.6496 44.5418H71.9396C71.6352 44.5418 71.3434 44.6626 71.1281 44.8774C70.9129 45.0921 70.792 45.3833 70.792 45.687C70.792 45.9908 70.9129 46.2819 71.1281 46.4967C71.3434 46.7114 71.6352 46.8322 71.9396 46.8322H80.6496L76.8626 50.5996C76.755 50.7061 76.6697 50.8328 76.6115 50.9723C76.5531 51.1118 76.5232 51.2615 76.5232 51.4128C76.5232 51.5638 76.5531 51.7135 76.6115 51.853C76.6697 51.9925 76.755 52.1193 76.8626 52.2257C76.9694 52.333 77.0962 52.4183 77.236 52.4764C77.3758 52.5346 77.5259 52.5645 77.6775 52.5645C77.8289 52.5645 77.9789 52.5346 78.1188 52.4764C78.2586 52.4183 78.3854 52.333 78.4922 52.2257Z" fill="#585858"/>
<path d="M103.315 52.5645C101.372 52.5645 99.7263 51.8988 98.3776 50.5673C97.0296 49.2353 96.3555 47.6099 96.3555 45.6909C96.3555 43.772 97.0296 42.146 98.3776 40.8126C99.7258 39.4791 101.371 38.8121 103.315 38.8115C104.496 38.8115 105.603 39.0889 106.634 39.6436C107.665 40.1982 108.496 40.9727 109.126 41.9668V38.8115H110.121V43.9492H104.921V42.9669H108.6C108.081 41.9879 107.353 41.214 106.414 40.6456C105.476 40.0772 104.443 39.7933 103.315 39.7939C101.658 39.7939 100.249 40.367 99.0894 41.513C97.9296 42.659 97.3497 44.0508 97.3497 45.688C97.3497 47.3252 97.9296 48.717 99.0894 49.863C100.249 51.009 101.658 51.5821 103.315 51.5821C104.59 51.5821 105.742 51.222 106.769 50.5015C107.797 49.7811 108.517 48.8315 108.931 47.6527H109.987C109.549 49.1237 108.716 50.31 107.488 51.2118C106.261 52.1136 104.869 52.5645 103.315 52.5645Z" fill="#585858"/>
<mask id="mask0_728_22375" style="mask-type:luminance" maskUnits="userSpaceOnUse" x="96" y="38" width="15" height="15">
<path d="M103.315 52.5645C101.372 52.5645 99.7263 51.8988 98.3776 50.5673C97.0296 49.2353 96.3555 47.6099 96.3555 45.6909C96.3555 43.772 97.0296 42.146 98.3776 40.8126C99.7258 39.4791 101.371 38.8121 103.315 38.8115C104.496 38.8115 105.603 39.0889 106.634 39.6436C107.665 40.1982 108.496 40.9727 109.126 41.9668V38.8115H110.121V43.9492H104.921V42.9669H108.6C108.081 41.9879 107.353 41.214 106.414 40.6456C105.476 40.0772 104.443 39.7933 103.315 39.7939C101.658 39.7939 100.249 40.367 99.0894 41.513C97.9296 42.659 97.3497 44.0508 97.3497 45.688C97.3497 47.3252 97.9296 48.717 99.0894 49.863C100.249 51.009 101.658 51.5821 103.315 51.5821C104.59 51.5821 105.742 51.222 106.769 50.5015C107.797 49.7811 108.517 48.8315 108.931 47.6527H109.987C109.549 49.1237 108.716 50.31 107.488 51.2118C106.261 52.1136 104.869 52.5645 103.315 52.5645Z" fill="white"/>
</mask>
<g mask="url(#mask0_728_22375)">
<path d="M109.127 41.9666L105.805 44.0708L113.059 55.5008V41.9666H109.127ZM109.127 38.8112V34.8818H105.194V38.8112H109.127ZM110.121 38.8112H114.054V34.8818H110.121V38.8112ZM110.121 43.949V47.8784H114.054V43.949H110.121ZM104.921 43.949H100.988V47.8784H104.921V43.949ZM104.921 42.9666V39.0372H100.988V42.9666H104.921ZM108.6 42.9666V46.896H115.129L112.076 41.1294L108.6 42.9666ZM103.315 39.7936V43.723H103.317L103.315 39.7936ZM108.932 47.6524V43.723H106.144L105.221 46.3508L108.932 47.6524ZM109.988 47.6524L113.757 48.7747L115.263 43.723H109.988V47.6524ZM103.315 48.6348C102.379 48.6348 101.735 48.357 101.142 47.7719L95.6122 53.3609C97.7171 55.4388 100.366 56.4936 103.315 56.4936V48.6348ZM101.142 47.7719C100.552 47.1886 100.289 46.5752 100.289 45.6907H92.4229C92.4229 48.644 93.5064 51.2801 95.6122 53.3609L101.142 47.7719ZM100.289 45.6907C100.289 44.8062 100.553 44.1898 101.145 43.6047L95.6108 38.0199C93.5064 40.1015 92.4229 42.7375 92.4229 45.6907H100.289ZM101.145 43.6047C101.737 43.0191 102.38 42.7411 103.316 42.7407L103.315 34.8818C100.364 34.8828 97.7149 35.9388 95.6108 38.0199L101.145 43.6047ZM103.316 42.7407C103.853 42.7407 104.317 42.8595 104.77 43.1031L108.5 36.1838C106.89 35.318 105.141 34.8818 103.315 34.8818L103.316 42.7407ZM104.77 43.1031C105.203 43.3362 105.533 43.6419 105.805 44.0708L112.448 39.8624C111.458 38.303 110.128 37.0603 108.5 36.1838L104.77 43.1031ZM113.059 41.9666V38.8112H105.194V41.9666H113.059ZM109.127 42.7407H110.121V34.8818H109.127V42.7407ZM106.188 38.8112V43.949H114.054V38.8112H106.188ZM110.121 40.0195H104.921V47.8784H110.121V40.0195ZM108.854 43.949V42.9666H100.988V43.949H108.854ZM104.921 46.896H108.6V39.0372H104.921V46.896ZM112.076 41.1294C111.229 39.529 110.007 38.226 108.453 37.2851L104.376 44.0055C104.7 44.2016 104.934 44.4462 105.123 44.8038L112.076 41.1294ZM108.453 37.2851C106.882 36.3332 105.139 35.8632 103.313 35.8642L103.317 43.723C103.746 43.7228 104.07 43.8205 104.376 44.0055L108.453 37.2851ZM103.315 35.8642C100.641 35.8642 98.2331 36.8326 96.3241 38.7189L101.855 44.3065C102.266 43.9008 102.675 43.723 103.315 43.723V35.8642ZM96.3241 38.7189C94.4135 40.6068 93.4171 43.0061 93.4171 45.6877H101.283C101.283 45.0948 101.446 44.7107 101.855 44.3065L96.3241 38.7189ZM93.4171 45.6877C93.4171 48.3693 94.4135 50.7686 96.3241 52.6565L101.855 47.0689C101.446 46.6648 101.283 46.2807 101.283 45.6877H93.4171ZM96.3241 52.6565C98.2331 54.5428 100.641 55.5112 103.315 55.5112V47.6524C102.675 47.6524 102.266 47.4746 101.855 47.0689L96.3241 52.6565ZM103.315 55.5112C105.385 55.5112 107.328 54.9102 109.029 53.7175L104.51 47.285C104.156 47.5332 103.796 47.6524 103.315 47.6524V55.5112ZM109.029 53.7175C110.726 52.5278 111.955 50.9099 112.643 48.954L105.221 46.3508C105.08 46.7526 104.868 47.0339 104.51 47.285L109.029 53.7175ZM108.932 51.5818H109.988V43.723H108.932V51.5818ZM106.219 46.5302C106.022 47.189 105.69 47.6552 105.158 48.0458L109.818 54.3772C111.741 52.9642 113.076 51.0577 113.757 48.7747L106.219 46.5302ZM105.158 48.0458C104.621 48.4407 104.05 48.6348 103.315 48.6348V56.4936C105.689 56.4936 107.901 55.7859 109.818 54.3772L105.158 48.0458Z" fill="#585858"/>
</g>
<mask id="mask1_728_22375" style="mask-type:luminance" maskUnits="userSpaceOnUse" x="121" y="30" width="149" height="31">
<path d="M254.655 30.9531H136.668C128.523 30.9531 121.92 37.5503 121.92 45.6884C121.92 53.8265 128.523 60.4237 136.668 60.4237H254.655C262.8 60.4237 269.403 53.8265 269.403 45.6884C269.403 37.5503 262.8 30.9531 254.655 30.9531Z" fill="white"/>
</mask>
<g mask="url(#mask1_728_22375)">
<path d="M254.655 30.9531H136.668C128.523 30.9531 121.92 37.5503 121.92 45.6884C121.92 53.8265 128.523 60.4237 136.668 60.4237H254.655C262.8 60.4237 269.403 53.8265 269.403 45.6884C269.403 37.5503 262.8 30.9531 254.655 30.9531Z" fill="#F0F9FF"/>
<path d="M135.356 42.292H148.815M154.796 42.292H159.282M145.824 54.2443H159.282M135.356 54.2443H139.842" stroke="#585858" stroke-linecap="round" stroke-linejoin="round"/>
<path d="M142.833 57.2329C144.485 57.2329 145.824 55.8951 145.824 54.245C145.824 52.5946 144.485 51.2568 142.833 51.2568C141.182 51.2568 139.843 52.5946 139.843 54.245C139.843 55.8951 141.182 57.2329 142.833 57.2329Z" stroke="#585858"/>
<path d="M151.805 45.2788C153.457 45.2788 154.796 43.941 154.796 42.2909C154.796 40.6405 153.457 39.3027 151.805 39.3027C150.153 39.3027 148.814 40.6405 148.814 42.2909C148.814 43.941 150.153 45.2788 151.805 45.2788Z" stroke="#585858"/>
</g>
<path d="M146.5 66.3176C157.361 66.3176 166.165 57.5213 166.165 46.6705C166.165 35.8197 157.361 27.0234 146.5 27.0234C135.64 27.0234 126.836 35.8197 126.836 46.6705C126.836 57.5213 135.64 66.3176 146.5 66.3176Z" stroke="#228276"/>
<path d="M51.0337 91.3672C53.4153 91.3672 55.0779 93.0067 55.0779 95.3565V102.113C55.0779 104.463 53.4153 106.102 51.0337 106.102H45.3389C42.9575 106.102 41.2949 104.463 41.2949 102.113V95.3565C41.2949 93.0067 42.9575 91.3672 45.3389 91.3672H51.0337ZM58.9516 93.7042C59.3832 93.4847 59.8896 93.5077 60.3016 93.7671C60.7135 94.0252 60.9594 94.4742 60.9594 94.9648V102.505C60.9594 102.997 60.7135 103.445 60.3016 103.703C60.0764 103.844 59.8247 103.916 59.571 103.916C59.3596 103.916 59.1483 103.866 58.9506 103.765L57.4945 103.031C56.9557 102.758 56.6214 102.209 56.6214 101.6V95.8693C56.6214 95.2591 56.9557 94.7105 57.4945 94.4392L58.9516 93.7042Z" fill="#747474"/>
<g filter="url(#filter0_d_728_22375)">
<path d="M112.088 89.8945H97.3392C92.4521 89.8945 88.4902 93.8529 88.4902 98.7357C88.4902 103.619 92.4521 107.577 97.3392 107.577H112.088C116.975 107.577 120.937 103.619 120.937 98.7357C120.937 93.8529 116.975 89.8945 112.088 89.8945Z" fill="#228276"/>
</g>
<g filter="url(#filter1_d_728_22375)">
<path d="M111.35 106.102C115.422 106.102 118.724 102.804 118.724 98.7348C118.724 94.6658 115.422 91.3672 111.35 91.3672C107.277 91.3672 103.976 94.6658 103.976 98.7348C103.976 102.804 107.277 106.102 111.35 106.102Z" fill="white"/>
</g>
<path d="M58.5327 133.929C59.0586 133.929 59.4853 134.349 59.4853 134.869C59.4853 139.097 56.2412 142.588 52.0808 143.057V144.949C52.0808 145.467 51.6541 145.888 51.1283 145.888C50.6017 145.888 50.1759 145.467 50.1759 144.949V143.057C46.0145 142.588 42.7705 139.097 42.7705 134.869C42.7705 134.349 43.1972 133.929 43.7231 133.929C44.2487 133.929 44.6754 134.349 44.6754 134.869C44.6754 138.379 47.57 141.235 51.1283 141.235C54.6858 141.235 57.5804 138.379 57.5804 134.869C57.5804 134.349 58.0071 133.929 58.5327 133.929ZM51.2998 126.241C53.6628 126.241 55.5791 128.131 55.5791 130.462V135.004C55.5791 137.335 53.6628 139.225 51.2998 139.225H50.9558C48.5928 139.225 46.6774 137.335 46.6774 135.004V130.462C46.6774 128.131 48.5928 126.241 50.9558 126.241H51.2998Z" fill="#747474"/>
<g filter="url(#filter2_d_728_22375)">
<path d="M112.088 127.224H97.3392C92.4521 127.224 88.4902 131.182 88.4902 136.065C88.4902 140.948 92.4521 144.906 97.3392 144.906H112.088C116.975 144.906 120.937 140.948 120.937 136.065C120.937 131.182 116.975 127.224 112.088 127.224Z" fill="#228276"/>
</g>
<g filter="url(#filter3_d_728_22375)">
<path d="M111.35 143.433C115.422 143.433 118.724 140.134 118.724 136.065C118.724 131.996 115.422 128.697 111.35 128.697C107.277 128.697 103.976 131.996 103.976 136.065C103.976 140.134 107.277 143.433 111.35 143.433Z" fill="white"/>
</g>
<path d="M162.286 65.6083C161.934 65.8101 161.649 66.1112 161.467 66.4741C161.285 66.837 161.214 67.2453 161.263 67.6482L164.384 101.104C164.583 102.728 166.506 103.485 167.76 102.433L173.63 97.5108L176.583 102.621C178.281 105.559 181.691 105.868 184.631 104.171C187.573 102.475 189.01 99.37 187.312 96.432L184.37 91.3402L191.458 88.7635C192.997 88.2038 193.302 86.1622 191.994 85.1773L164.554 65.7493C164.232 65.5067 163.845 65.3641 163.441 65.3389C163.038 65.314 162.637 65.4075 162.286 65.6083ZM165.952 71.9655L186.47 86.1862L178.329 89.1457L178.367 89.2046L183.736 98.4949C184.325 99.5152 183.589 100.009 182.567 100.598C181.546 101.188 180.749 101.578 180.16 100.558L174.791 91.2675L174.749 91.1858L168.02 96.8288L165.952 71.9655Z" fill="#585858"/>
</g>
<defs>
<filter id="filter0_d_728_22375" x="86.4902" y="89.8945" width="36.4463" height="21.6826" filterUnits="userSpaceOnUse" color-interpolation-filters="sRGB">
<feFlood flood-opacity="0" result="BackgroundImageFix"/>
<feColorMatrix in="SourceAlpha" type="matrix" values="0 0 0 0 0 0 0 0 0 0 0 0 0 0 0 0 0 0 127 0" result="hardAlpha"/>
<feOffset dy="2"/>
<feGaussianBlur stdDeviation="1"/>
<feComposite in2="hardAlpha" operator="out"/>
<feColorMatrix type="matrix" values="0 0 0 0 0 0 0 0 0 0 0 0 0 0 0 0 0 0 0.1 0"/>
<feBlend mode="normal" in2="BackgroundImageFix" result="effect1_dropShadow_728_22375"/>
<feBlend mode="normal" in="SourceGraphic" in2="effect1_dropShadow_728_22375" result="shape"/>
</filter>
<filter id="filter1_d_728_22375" x="98.9756" y="87.3672" width="24.748" height="24.7354" filterUnits="userSpaceOnUse" color-interpolation-filters="sRGB">
<feFlood flood-opacity="0" result="BackgroundImageFix"/>
<feColorMatrix in="SourceAlpha" type="matrix" values="0 0 0 0 0 0 0 0 0 0 0 0 0 0 0 0 0 0 127 0" result="hardAlpha"/>
<feOffset dy="1"/>
<feGaussianBlur stdDeviation="2.5"/>
<feComposite in2="hardAlpha" operator="out"/>
<feColorMatrix type="matrix" values="0 0 0 0 0.2 0 0 0 0 0.2 0 0 0 0 0.2 0 0 0 0.2 0"/>
<feBlend mode="normal" in2="BackgroundImageFix" result="effect1_dropShadow_728_22375"/>
<feBlend mode="normal" in="SourceGraphic" in2="effect1_dropShadow_728_22375" result="shape"/>
</filter>
<filter id="filter2_d_728_22375" x="86.4902" y="127.224" width="36.4463" height="21.6826" filterUnits="userSpaceOnUse" color-interpolation-filters="sRGB">
<feFlood flood-opacity="0" result="BackgroundImageFix"/>
<feColorMatrix in="SourceAlpha" type="matrix" values="0 0 0 0 0 0 0 0 0 0 0 0 0 0 0 0 0 0 127 0" result="hardAlpha"/>
<feOffset dy="2"/>
<feGaussianBlur stdDeviation="1"/>
<feComposite in2="hardAlpha" operator="out"/>
<feColorMatrix type="matrix" values="0 0 0 0 0 0 0 0 0 0 0 0 0 0 0 0 0 0 0.1 0"/>
<feBlend mode="normal" in2="BackgroundImageFix" result="effect1_dropShadow_728_22375"/>
<feBlend mode="normal" in="SourceGraphic" in2="effect1_dropShadow_728_22375" result="shape"/>
</filter>
<filter id="filter3_d_728_22375" x="98.9756" y="124.697" width="24.748" height="24.7354" filterUnits="userSpaceOnUse" color-interpolation-filters="sRGB">
<feFlood flood-opacity="0" result="BackgroundImageFix"/>
<feColorMatrix in="SourceAlpha" type="matrix" values="0 0 0 0 0 0 0 0 0 0 0 0 0 0 0 0 0 0 127 0" result="hardAlpha"/>
<feOffset dy="1"/>
<feGaussianBlur stdDeviation="2.5"/>
<feComposite in2="hardAlpha" operator="out"/>
<feColorMatrix type="matrix" values="0 0 0 0 0.2 0 0 0 0 0.2 0 0 0 0 0.2 0 0 0 0.2 0"/>
<feBlend mode="normal" in2="BackgroundImageFix" result="effect1_dropShadow_728_22375"/>
<feBlend mode="normal" in="SourceGraphic" in2="effect1_dropShadow_728_22375" result="shape"/>
</filter>
<clipPath id="clip0_728_22375">
<rect width="293" height="167" fill="white" transform="translate(0 0.5)"/>
</clipPath>
</defs>
</svg>
