<svg width="40" height="40" viewBox="0 0 40 40" fill="none" xmlns="http://www.w3.org/2000/svg">
<rect width="40" height="40" rx="20" fill="#747474"/>
<path d="M24.0125 25.0224L28.7792 29.7905C28.8456 29.857 28.9244 29.9096 29.0112 29.9456C29.098 29.9815 29.191 30 29.2849 30C29.3788 30 29.4718 29.9815 29.5585 29.9456C29.6453 29.9096 29.7241 29.857 29.7905 29.7905C29.857 29.7241 29.9096 29.6453 29.9456 29.5585C29.9815 29.4718 30 29.3788 30 29.2849C30 29.191 29.9815 29.098 29.9456 29.0112C29.9096 28.9244 29.857 28.8456 29.7905 28.7792L11.2208 10.2095C11.1544 10.143 11.0756 10.0904 10.9888 10.0544C10.902 10.0185 10.809 10 10.7151 10C10.6212 10 10.5282 10.0185 10.4415 10.0544C10.3547 10.0904 10.2759 10.143 10.2095 10.2095C10.143 10.2759 10.0904 10.3547 10.0544 10.4415C10.0185 10.5282 10 10.6212 10 10.7151C10 10.809 10.0185 10.902 10.0544 10.9888C10.0904 11.0756 10.143 11.1544 10.2095 11.2208L16.4289 17.4388V20C16.4287 20.6453 16.6034 21.2787 16.9344 21.8326C17.2654 22.3866 17.7403 22.8406 18.3086 23.1462C18.877 23.4519 19.5175 23.5978 20.1622 23.5685C20.8069 23.5391 21.4315 23.3357 21.9698 22.9797L22.994 24.0039C22.2509 24.5596 21.3679 24.8975 20.4437 24.9798C19.5194 25.0622 18.5906 24.8857 17.7609 24.4701C16.9313 24.0546 16.2337 23.4164 15.7462 22.6269C15.2587 21.8374 15.0005 20.9279 15.0005 20C15.0005 19.8106 14.9252 19.6289 14.7913 19.495C14.6573 19.361 14.4757 19.2858 14.2862 19.2858C14.0968 19.2858 13.9151 19.361 13.7812 19.495C13.6473 19.6289 13.572 19.8106 13.572 20C13.5717 21.5814 14.1543 23.1073 15.2084 24.2861C16.2626 25.4649 17.7142 26.2137 19.2858 26.3894V27.8564C19.2858 28.0459 19.361 28.2275 19.495 28.3615C19.6289 28.4954 19.8106 28.5707 20 28.5707C20.1894 28.5707 20.3711 28.4954 20.505 28.3615C20.639 28.2275 20.7142 28.0459 20.7142 27.8564V26.3894C21.9207 26.2543 23.0642 25.7804 24.0125 25.0224ZM25.7995 22.7712L24.7081 21.6798C24.8967 21.1556 24.9981 20.5899 24.9981 20C24.9981 19.8106 25.0734 19.6289 25.2073 19.495C25.3413 19.361 25.5229 19.2858 25.7123 19.2858C25.9018 19.2858 26.0834 19.361 26.2174 19.495C26.3513 19.6289 26.4266 19.8106 26.4266 20C26.4266 20.9928 26.2023 21.9327 25.7995 22.7712ZM23.534 20.5057L16.6889 13.6577C16.9995 12.8888 17.5681 12.2519 18.297 11.8564C19.026 11.4609 19.8699 11.3315 20.6838 11.4903C21.4978 11.6491 22.2311 12.0863 22.758 12.7268C23.2848 13.3672 23.5723 14.1711 23.5711 15.0005V20C23.5711 20.1714 23.5592 20.34 23.5354 20.5057" fill="white"/>
</svg>
