<svg width="40" height="41" viewBox="0 0 40 41" fill="none" xmlns="http://www.w3.org/2000/svg">
<rect x="0.00195312" y="0.5" width="40" height="40" rx="20" fill="#228276"/>
<path d="M20.002 10.5C18.8969 10.5 17.8371 10.939 17.0557 11.7204C16.2743 12.5018 15.8353 13.5616 15.8353 14.6667V20.5C15.8353 21.6051 16.2743 22.6649 17.0557 23.4463C17.8371 24.2277 18.8969 24.6667 20.002 24.6667C21.107 24.6667 22.1668 24.2277 22.9482 23.4463C23.7296 22.6649 24.1686 21.6051 24.1686 20.5V14.6667C24.1686 13.5616 23.7296 12.5018 22.9482 11.7204C22.1668 10.939 21.107 10.5 20.002 10.5ZM13.3353 19.6667C13.5563 19.6667 13.7683 19.7545 13.9245 19.9107C14.0808 20.067 14.1686 20.279 14.1686 20.5C14.1686 22.0471 14.7832 23.5308 15.8772 24.6248C16.9711 25.7188 18.4549 26.3333 20.002 26.3333C21.549 26.3333 23.0328 25.7188 24.1267 24.6248C25.2207 23.5308 25.8353 22.0471 25.8353 20.5C25.8353 20.279 25.9231 20.067 26.0794 19.9107C26.2356 19.7545 26.4476 19.6667 26.6686 19.6667C26.8896 19.6667 27.1016 19.7545 27.2579 19.9107C27.4142 20.067 27.502 20.279 27.502 20.5C27.5023 22.3451 26.8225 24.1255 25.5926 25.5009C24.3627 26.8763 22.6689 27.75 20.8353 27.955V29.6667C20.8353 29.8877 20.7475 30.0996 20.5912 30.2559C20.4349 30.4122 20.223 30.5 20.002 30.5C19.7809 30.5 19.569 30.4122 19.4127 30.2559C19.2564 30.0996 19.1686 29.8877 19.1686 29.6667V27.955C17.335 27.75 15.6412 26.8763 14.4113 25.5009C13.1814 24.1255 12.5016 22.3451 12.502 20.5C12.502 20.279 12.5898 20.067 12.746 19.9107C12.9023 19.7545 13.1143 19.6667 13.3353 19.6667Z" fill="white"/>
</svg>
