<svg width="45" height="45" viewBox="0 0 45 45" fill="none" xmlns="http://www.w3.org/2000/svg">
<rect y="5" width="40" height="40" rx="20" fill="#747474"/>
<path d="M24.0125 30.0224L28.7792 34.7905C28.8456 34.857 28.9244 34.9096 29.0112 34.9456C29.098 34.9815 29.191 35 29.2849 35C29.3788 35 29.4718 34.9815 29.5585 34.9456C29.6453 34.9096 29.7241 34.857 29.7905 34.7905C29.857 34.7241 29.9096 34.6453 29.9456 34.5585C29.9815 34.4718 30 34.3788 30 34.2849C30 34.191 29.9815 34.098 29.9456 34.0112C29.9096 33.9244 29.857 33.8456 29.7905 33.7792L11.2208 15.2095C11.1544 15.143 11.0756 15.0904 10.9888 15.0544C10.902 15.0185 10.809 15 10.7151 15C10.6212 15 10.5282 15.0185 10.4415 15.0544C10.3547 15.0904 10.2759 15.143 10.2095 15.2095C10.143 15.2759 10.0904 15.3547 10.0544 15.4415C10.0185 15.5282 10 15.6212 10 15.7151C10 15.809 10.0185 15.902 10.0544 15.9888C10.0904 16.0756 10.143 16.1544 10.2095 16.2208L16.4289 22.4388V25C16.4287 25.6453 16.6034 26.2787 16.9344 26.8326C17.2654 27.3866 17.7403 27.8406 18.3086 28.1462C18.877 28.4519 19.5175 28.5978 20.1622 28.5685C20.8069 28.5391 21.4315 28.3357 21.9698 27.9797L22.994 29.0039C22.2509 29.5596 21.3679 29.8975 20.4437 29.9798C19.5194 30.0622 18.5906 29.8857 17.7609 29.4701C16.9313 29.0546 16.2337 28.4164 15.7462 27.6269C15.2587 26.8374 15.0005 25.9279 15.0005 25C15.0005 24.8106 14.9252 24.6289 14.7913 24.495C14.6573 24.361 14.4757 24.2858 14.2862 24.2858C14.0968 24.2858 13.9151 24.361 13.7812 24.495C13.6473 24.6289 13.572 24.8106 13.572 25C13.5717 26.5814 14.1543 28.1073 15.2084 29.2861C16.2626 30.4649 17.7142 31.2137 19.2858 31.3894V32.8564C19.2858 33.0459 19.361 33.2275 19.495 33.3615C19.6289 33.4954 19.8106 33.5707 20 33.5707C20.1894 33.5707 20.3711 33.4954 20.505 33.3615C20.639 33.2275 20.7142 33.0459 20.7142 32.8564V31.3894C21.9207 31.2543 23.0642 30.7804 24.0125 30.0224ZM25.7995 27.7712L24.7081 26.6798C24.8967 26.1556 24.9981 25.5899 24.9981 25C24.9981 24.8106 25.0734 24.6289 25.2073 24.495C25.3413 24.361 25.5229 24.2858 25.7123 24.2858C25.9018 24.2858 26.0834 24.361 26.2174 24.495C26.3513 24.6289 26.4266 24.8106 26.4266 25C26.4266 25.9928 26.2023 26.9327 25.7995 27.7712ZM23.534 25.5057L16.6889 18.6577C16.9995 17.8888 17.5681 17.2519 18.297 16.8564C19.026 16.4609 19.8699 16.3315 20.6838 16.4903C21.4978 16.6491 22.2311 17.0863 22.758 17.7268C23.2848 18.3672 23.5723 19.1711 23.5711 20.0005V25C23.5711 25.1714 23.5592 25.34 23.5354 25.5057" fill="white"/>
<path d="M35 0C37.6522 0 40.1957 1.05357 42.0711 2.92893C43.9464 4.8043 45 7.34784 45 10C45 12.6522 43.9464 15.1957 42.0711 17.0711C40.1957 18.9464 37.6522 20 35 20C32.3478 20 29.8043 18.9464 27.9289 17.0711C26.0536 15.1957 25 12.6522 25 10C25 7.34784 26.0536 4.8043 27.9289 2.92893C29.8043 1.05357 32.3478 0 35 0ZM35 4.28571C34.8186 4.28555 34.6392 4.32322 34.4732 4.39632C34.3072 4.46941 34.1583 4.57632 34.036 4.71022C33.9136 4.84413 33.8206 5.00207 33.7627 5.17397C33.7049 5.34587 33.6835 5.52795 33.7 5.70857L34.2214 11.4314C34.2416 11.6238 34.3324 11.8019 34.4762 11.9314C34.6199 12.0608 34.8065 12.1325 35 12.1325C35.1935 12.1325 35.3801 12.0608 35.5238 11.9314C35.6676 11.8019 35.7584 11.6238 35.7786 11.4314L36.2986 5.70857C36.3151 5.52807 36.2937 5.34611 36.236 5.17431C36.1782 5.00251 36.0853 4.84463 35.9631 4.71075C35.8409 4.57687 35.6922 4.46993 35.5263 4.39675C35.3605 4.32357 35.1813 4.28575 35 4.28571ZM35 15.7143C35.3031 15.7143 35.5938 15.5939 35.8081 15.3796C36.0224 15.1652 36.1429 14.8745 36.1429 14.5714C36.1429 14.2683 36.0224 13.9776 35.8081 13.7633C35.5938 13.549 35.3031 13.4286 35 13.4286C34.6969 13.4286 34.4062 13.549 34.1919 13.7633C33.9776 13.9776 33.8571 14.2683 33.8571 14.5714C33.8571 14.8745 33.9776 15.1652 34.1919 15.3796C34.4062 15.5939 34.6969 15.7143 35 15.7143Z" fill="#D6615A"/>
</svg>
