<svg width="40" height="41" viewBox="0 0 40 41" fill="none" xmlns="http://www.w3.org/2000/svg">
<rect x="0.00195312" y="0.5" width="40" height="40" rx="20" fill="#228276"/>
<path d="M15.695 23.372H17.0284V20.7053C17.0284 20.156 17.2239 19.6849 17.615 19.292C18.0079 18.9009 18.479 18.7053 19.0283 18.7053H21.695V20.448L24.1043 18.0387L21.6937 15.628V17.372H19.027C18.1044 17.372 17.3181 17.6964 16.6684 18.3453C16.0186 18.9942 15.6941 19.7809 15.695 20.7053V23.372ZM10.1564 27.8333C9.54213 27.8333 9.02968 27.6276 8.61902 27.216C8.20835 26.8044 8.00257 26.292 8.00168 25.6787V12.6533C8.00168 12.04 8.20746 11.5276 8.61902 11.116C9.03057 10.7044 9.54257 10.4991 10.155 10.5H29.8483C30.4617 10.5 30.9737 10.7053 31.3843 11.116C31.795 11.5267 32.0008 12.0391 32.0017 12.6533V25.68C32.0017 26.2933 31.7959 26.8053 31.3843 27.216C30.9728 27.6267 30.4604 27.8324 29.847 27.8333H10.1564ZM6.36035 30.5V29.1667H33.643V30.5H6.36035Z" fill="white"/>
</svg>
