<svg width="45" height="45" viewBox="0 0 45 45" fill="none" xmlns="http://www.w3.org/2000/svg">
<rect y="5" width="40" height="40" rx="20" fill="#747474"/>
<path d="M15.6931 27.872H17.0264V25.2053C17.0264 24.656 17.222 24.1849 17.6131 23.792C18.006 23.4009 18.4771 23.2053 19.0264 23.2053H21.6931V24.948L24.1024 22.5387L21.6917 20.128V21.872H19.0251C18.1024 21.872 17.3162 22.1964 16.6664 22.8453C16.0166 23.4942 15.6922 24.2809 15.6931 25.2053V27.872ZM10.1544 32.3333C9.54018 32.3333 9.02773 32.1276 8.61706 31.716C8.2064 31.3044 8.00062 30.792 7.99973 30.1787V17.1533C7.99973 16.54 8.20551 16.0276 8.61706 15.616C9.02862 15.2044 9.54062 14.9991 10.1531 15H29.8464C30.4597 15 30.9717 15.2053 31.3824 15.616C31.7931 16.0267 31.9988 16.5391 31.9997 17.1533V30.18C31.9997 30.7933 31.794 31.3053 31.3824 31.716C30.9708 32.1267 30.4584 32.3324 29.8451 32.3333H10.1544ZM6.3584 35V33.6667H33.6411V35H6.3584Z" fill="white"/>
<path d="M35 0C37.6522 0 40.1957 1.05357 42.0711 2.92893C43.9464 4.8043 45 7.34784 45 10C45 12.6522 43.9464 15.1957 42.0711 17.0711C40.1957 18.9464 37.6522 20 35 20C32.3478 20 29.8043 18.9464 27.9289 17.0711C26.0536 15.1957 25 12.6522 25 10C25 7.34784 26.0536 4.8043 27.9289 2.92893C29.8043 1.05357 32.3478 0 35 0ZM35 4.28571C34.8186 4.28555 34.6392 4.32322 34.4732 4.39632C34.3072 4.46941 34.1583 4.57632 34.036 4.71022C33.9136 4.84413 33.8206 5.00207 33.7627 5.17397C33.7049 5.34587 33.6835 5.52795 33.7 5.70857L34.2214 11.4314C34.2416 11.6238 34.3324 11.8019 34.4762 11.9314C34.6199 12.0608 34.8065 12.1325 35 12.1325C35.1935 12.1325 35.3801 12.0608 35.5238 11.9314C35.6676 11.8019 35.7584 11.6238 35.7786 11.4314L36.2986 5.70857C36.3151 5.52807 36.2937 5.34611 36.236 5.17431C36.1782 5.00251 36.0853 4.84463 35.9631 4.71075C35.8409 4.57687 35.6922 4.46993 35.5263 4.39675C35.3605 4.32357 35.1813 4.28575 35 4.28571ZM35 15.7143C35.3031 15.7143 35.5938 15.5939 35.8081 15.3796C36.0224 15.1652 36.1429 14.8745 36.1429 14.5714C36.1429 14.2683 36.0224 13.9776 35.8081 13.7633C35.5938 13.549 35.3031 13.4286 35 13.4286C34.6969 13.4286 34.4062 13.549 34.1919 13.7633C33.9776 13.9776 33.8571 14.2683 33.8571 14.5714C33.8571 14.8745 33.9776 15.1652 34.1919 15.3796C34.4062 15.5939 34.6969 15.7143 35 15.7143Z" fill="#D6615A"/>
</svg>
