<svg width="24" height="24" viewBox="0 0 24 24" fill="none" xmlns="http://www.w3.org/2000/svg">
<g clip-path="url(#clip0_8107_3187)">
<path fill-rule="evenodd" clip-rule="evenodd" d="M16.8093 3.01001C17.5745 3.00997 18.3108 3.30233 18.8676 3.82729C19.4243 4.35225 19.7594 5.07012 19.8043 5.83401L19.8093 6.01001V10.36L20.4033 10.096C21.0173 9.82301 21.7253 10.246 21.8033 10.894L21.8093 11.01V19.01C21.8095 19.5146 21.6189 20.0006 21.2758 20.3706C20.9327 20.7405 20.4625 20.9672 19.9593 21.005L19.8093 21.01H3.80933C3.30475 21.0102 2.81876 20.8196 2.44878 20.4765C2.0788 20.1334 1.85217 19.6632 1.81433 19.16L1.80933 19.01V11.01C1.80933 10.338 2.48433 9.86301 3.10633 10.055L3.21633 10.096L3.80933 10.36V6.01001C3.80928 5.2448 4.10165 4.50849 4.62661 3.95175C5.15157 3.395 5.86943 3.0599 6.63333 3.01501L6.80933 3.01001H16.8093ZM19.8093 12.549L12.6213 15.743C12.3657 15.8566 12.0891 15.9153 11.8093 15.9153C11.5296 15.9153 11.253 15.8566 10.9973 15.743L3.80933 12.55V19.01H19.8093V12.549ZM16.8093 5.01001H6.80933C6.54411 5.01001 6.28976 5.11537 6.10222 5.3029C5.91468 5.49044 5.80933 5.74479 5.80933 6.01001V11.249L11.8093 13.916L17.8093 11.249V6.01001C17.8093 5.74479 17.704 5.49044 17.5164 5.3029C17.3289 5.11537 17.0745 5.01001 16.8093 5.01001ZM10.0894 8.9514C9.90402 8.77644 10.3442 8.95169 10.0894 8.9514C10.0744 8.69696 10.2747 9.12637 10.0894 8.9514C10.2529 8.75595 10.1043 9.20585 10.0894 8.9514C9.92577 9.14686 10.3425 8.9749 10.0894 9.005C9.83448 9.00472 10.2747 9.17997 10.0894 9.005C9.90402 8.83004 10.1043 9.25945 10.0894 9.005C10.0744 8.75056 9.92577 9.14686 10.0894 8.9514C10.2529 8.75595 9.83626 9.03511 10.0894 9.005V8.9514Z" fill="#228276"/>
<path d="M13.7143 9.28571H12.2857V10.7143C12.2857 10.8714 12.1571 11 12 11C11.8429 11 11.7143 10.8714 11.7143 10.7143V9.28571H10.2857C10.1286 9.28571 10 9.15714 10 9C10 8.84286 10.1286 8.71429 10.2857 8.71429H11.7143V7.28571C11.7143 7.12857 11.8429 7 12 7C12.1571 7 12.2857 7.12857 12.2857 7.28571V8.71429H13.7143C13.8714 8.71429 14 8.84286 14 9C14 9.15714 13.8714 9.28571 13.7143 9.28571Z" fill="#228276"/>
</g>
<defs>
<clipPath id="clip0_8107_3187">
<rect width="24" height="24" fill="white"/>
</clipPath>
</defs>
</svg>
