<svg width="24" height="24" viewBox="0 0 24 24" fill="none" xmlns="http://www.w3.org/2000/svg">
<g clip-path="url(#clip0_485_31)">
<mask id="mask0_485_31" style="mask-type:luminance" maskUnits="userSpaceOnUse" x="0" y="0" width="24" height="24">
<path d="M24 0H0V24H24V0Z" fill="white"/>
</mask>
<g mask="url(#mask0_485_31)">
<path fill-rule="evenodd" clip-rule="evenodd" d="M16.8093 3.01001C17.5745 3.00997 18.3108 3.30233 18.8676 3.82729C19.4243 4.35225 19.7594 5.07012 19.8043 5.83401L19.8093 6.01001V10.36L20.4033 10.096C21.0173 9.82301 21.7253 10.246 21.8033 10.894L21.8093 11.01V19.01C21.8095 19.5146 21.6189 20.0006 21.2758 20.3706C20.9327 20.7405 20.4625 20.9672 19.9593 21.005L19.8093 21.01H3.80933C3.30475 21.0102 2.81876 20.8196 2.44878 20.4765C2.0788 20.1334 1.85217 19.6632 1.81433 19.16L1.80933 19.01V11.01C1.80933 10.338 2.48433 9.86301 3.10633 10.055L3.21633 10.096L3.80933 10.36V6.01001C3.80928 5.2448 4.10165 4.50849 4.62661 3.95175C5.15157 3.395 5.86943 3.0599 6.63333 3.01501L6.80933 3.01001H16.8093ZM19.8093 12.549L12.6213 15.743C12.3657 15.8566 12.0891 15.9153 11.8093 15.9153C11.5296 15.9153 11.253 15.8566 10.9973 15.743L3.80933 12.55V19.01H19.8093V12.549ZM16.8093 5.01001H6.80933C6.54411 5.01001 6.28976 5.11537 6.10222 5.3029C5.91468 5.49044 5.80933 5.74479 5.80933 6.01001V11.249L11.8093 13.916L17.8093 11.249V6.01001C17.8093 5.74479 17.704 5.49044 17.5164 5.3029C17.3289 5.11537 17.0745 5.01001 16.8093 5.01001ZM10.0894 8.9514C10.3442 8.95169 9.90402 8.77644 10.0894 8.9514C10.2747 9.12637 10.0744 8.69696 10.0894 8.9514C10.2529 8.75595 10.1043 9.20585 10.0894 8.9514C9.92577 9.14686 10.3425 8.9749 10.0894 9.005C10.2747 9.17997 9.83448 9.00472 10.0894 9.005C10.1043 9.25945 9.90402 8.83004 10.0894 9.005C10.0744 8.75056 9.92577 9.14686 10.0894 8.9514C10.2529 8.75595 9.83626 9.03511 10.0894 9.005V8.9514Z" fill="#333333" fill-opacity="0.25"/>
</g>
<path d="M12.3104 10.4687L9.41875 7.57711C9.09375 7.25211 8.56875 7.25211 8.24375 7.57711C7.91875 7.90211 7.91875 8.42711 8.24375 8.75211L11.7271 12.2354C12.0521 12.5604 12.5771 12.5604 12.9021 12.2354L21.7188 3.41875C22.0438 3.09375 22.0438 2.56875 21.7188 2.24375C21.3938 1.91875 20.8688 1.91875 20.5438 2.24375L12.3104 10.4687Z" fill="#333333" fill-opacity="0.25"/>
</g>
<defs>
<clipPath id="clip0_485_31">
<rect width="24" height="24" fill="white"/>
</clipPath>
</defs>
</svg>
