<svg width="6" height="12" viewBox="0 0 6 12" fill="none" xmlns="http://www.w3.org/2000/svg">
<g id="Frame 814" clip-path="url(#clip0_2737_5326)">
<path id="Vector" d="M5.74494 9.47826L3.58197 11.7391C3.49878 11.8261 3.40866 11.8913 3.3116 11.9348C3.21455 11.9783 3.11056 12 2.99964 12C2.88872 12 2.78473 11.9783 2.68767 11.9348C2.59061 11.8913 2.50049 11.8261 2.4173 11.7391L0.254335 9.47826C-0.00910259 9.2029 -0.0678908 8.88754 0.0779707 8.53218C0.223832 8.17681 0.483665 7.99942 0.85747 8H5.1418C5.51616 8 5.77627 8.17768 5.92213 8.53304C6.068 8.88841 6.00893 9.20348 5.74494 9.47826Z" fill="#333333" fill-opacity="0.75"/>
<path id="Vector_2" d="M0.255062 2.52174L2.41803 0.26087C2.50122 0.173913 2.59134 0.108696 2.6884 0.065218C2.78545 0.0217398 2.88944 0 3.00036 0C3.11128 0 3.21527 0.0217398 3.31233 0.065218C3.40939 0.108696 3.49951 0.173913 3.5827 0.26087L5.74566 2.52174C6.0091 2.7971 6.06789 3.11246 5.92203 3.46782C5.77617 3.82319 5.51633 4.00058 5.14253 4H0.858196C0.483837 4 0.223727 3.82232 0.0778651 3.46696C-0.067996 3.11159 -0.00893116 2.79652 0.255062 2.52174Z" fill="#228276" fill-opacity="0.75"/>
</g>
<defs>
<clipPath id="clip0_2737_5326">
<rect width="6" height="12" fill="white"/>
</clipPath>
</defs>
</svg>
