<svg width="30" height="30" viewBox="0 0 30 30" fill="none" xmlns="http://www.w3.org/2000/svg">
<circle cx="15" cy="15" r="15" fill="#228276"/>
<g clip-path="url(#clip0_2064_8932)">
<path d="M14.9998 6.8183C18.006 6.8183 20.4543 9.51148 20.4543 12.8183V19.8605C20.4549 20.7339 20.1432 21.5725 19.5866 22.1953C19.3136 22.5071 18.9862 22.7551 18.6242 22.9246C18.2621 23.0941 17.8726 23.1816 17.4791 23.1819C16.3368 23.1819 15.3971 22.6494 14.6862 21.5994C14.5473 21.3949 14.3902 21.0969 14.2083 20.7523C13.7335 19.8533 13.0836 18.6226 12.2505 17.9998C11.4519 17.4028 10.7868 16.6518 10.329 15.8275C9.80837 14.8958 9.54525 13.8833 9.54525 12.8183C9.54525 9.51148 11.992 6.8183 14.9998 6.8183ZM12.0246 13.091C12.1561 13.091 12.2822 13.0336 12.3752 12.9313C12.4682 12.829 12.5205 12.6902 12.5205 12.5456C12.5205 11.1922 13.6328 10.091 14.9998 10.091C16.3668 10.091 17.4791 11.1922 17.4791 12.5456V13.5826C16.6365 13.3153 15.6692 13.3535 15.487 13.3638C15.2149 13.3666 14.9487 13.4515 14.7174 13.6092C14.4861 13.767 14.2985 13.9914 14.1752 14.2583C14.0518 14.5251 13.9974 14.824 14.0177 15.1225C14.0381 15.421 14.1325 15.7077 14.2907 15.9513C14.3 15.9652 14.3096 15.9789 14.3201 15.9922C14.8331 16.6399 15.4359 17.5426 15.5121 17.8672C15.5477 18.0043 15.6308 18.1207 15.7435 18.1913C15.8562 18.2619 15.9896 18.2811 16.115 18.2448C16.2405 18.2085 16.348 18.1196 16.4145 17.9971C16.481 17.8746 16.5013 17.7284 16.471 17.5897C16.3002 16.8758 15.3265 15.6056 15.0869 15.3005C15.0376 15.2182 15.0094 15.1228 15.0054 15.0243C15.0015 14.9259 15.0218 14.8281 15.0643 14.7414C15.1068 14.6546 15.1699 14.5821 15.2468 14.5317C15.3237 14.4812 15.4117 14.4546 15.5012 14.4547H15.5285C16.043 14.4243 16.9507 14.4819 17.4791 14.738V16.6365C17.4791 16.7811 17.5314 16.9199 17.6244 17.0222C17.7174 17.1245 17.8435 17.1819 17.975 17.1819C18.1065 17.1819 18.2326 17.1245 18.3256 17.0222C18.4186 16.9199 18.4709 16.7811 18.4709 16.6365V12.5456C18.4709 10.5905 16.9138 9.00012 14.9998 9.00012C13.0857 9.00012 11.5287 10.5905 11.5287 12.5456C11.5287 12.6902 11.581 12.829 11.674 12.9313C11.767 13.0336 11.8931 13.091 12.0246 13.091Z" fill="white"/>
</g>
<defs>
<clipPath id="clip0_2064_8932">
<rect width="16.3636" height="16.3636" fill="white" transform="matrix(-1 0 0 1 23.1816 6.8183)"/>
</clipPath>
</defs>
</svg>
