<svg width="30" height="30" viewBox="0 0 30 30" fill="none" xmlns="http://www.w3.org/2000/svg">
<circle cx="15" cy="15" r="15" fill="#BBBBBB"/>
<g clip-path="url(#clip0_2064_8940)">
<path d="M15.0002 6.8183C11.994 6.8183 9.54566 9.51148 9.54566 12.8183V19.8605C9.54507 20.7339 9.85676 21.5725 10.4134 22.1953C10.6864 22.5071 11.0138 22.7551 11.3758 22.9246C11.7379 23.0941 12.1274 23.1816 12.5209 23.1819C13.6632 23.1819 14.6029 22.6494 15.3138 21.5994C15.4527 21.3949 15.6098 21.0969 15.7917 20.7523C16.2665 19.8533 16.9164 18.6226 17.7495 17.9998C18.5481 17.4028 19.2132 16.6518 19.671 15.8275C20.1916 14.8958 20.4548 13.8833 20.4548 12.8183C20.4548 9.51148 18.008 6.8183 15.0002 6.8183ZM17.9754 13.091C17.8439 13.091 17.7178 13.0336 17.6248 12.9313C17.5318 12.829 17.4795 12.6902 17.4795 12.5456C17.4795 11.1922 16.3672 10.091 15.0002 10.091C13.6332 10.091 12.5209 11.1922 12.5209 12.5456V13.5826C13.3635 13.3153 14.3308 13.3535 14.513 13.3638C14.7851 13.3666 15.0513 13.4515 15.2826 13.6092C15.5139 13.767 15.7015 13.9914 15.8248 14.2583C15.9482 14.5251 16.0026 14.824 15.9823 15.1225C15.9619 15.421 15.8675 15.7077 15.7093 15.9513C15.7 15.9652 15.6904 15.9789 15.6799 15.9922C15.1669 16.6399 14.5641 17.5426 14.4879 17.8672C14.4523 18.0043 14.3692 18.1207 14.2565 18.1913C14.1438 18.2619 14.0104 18.2811 13.885 18.2448C13.7595 18.2085 13.652 18.1196 13.5855 17.9971C13.519 17.8746 13.4987 17.7284 13.529 17.5897C13.6998 16.8758 14.6735 15.6056 14.9131 15.3005C14.9624 15.2182 14.9906 15.1228 14.9946 15.0243C14.9985 14.9259 14.9782 14.8281 14.9357 14.7414C14.8932 14.6546 14.8301 14.5821 14.7532 14.5317C14.6763 14.4812 14.5883 14.4546 14.4988 14.4547H14.4715C13.957 14.4243 13.0493 14.4819 12.5209 14.738V16.6365C12.5209 16.7811 12.4686 16.9199 12.3756 17.0222C12.2826 17.1245 12.1565 17.1819 12.025 17.1819C11.8935 17.1819 11.7674 17.1245 11.6744 17.0222C11.5814 16.9199 11.5291 16.7811 11.5291 16.6365V12.5456C11.5291 10.5905 13.0862 9.00012 15.0002 9.00012C16.9143 9.00012 18.4713 10.5905 18.4713 12.5456C18.4713 12.6902 18.419 12.829 18.326 12.9313C18.233 13.0336 18.1069 13.091 17.9754 13.091Z" fill="white"/>
</g>
<defs>
<clipPath id="clip0_2064_8940">
<rect width="16.3636" height="16.3636" fill="white" transform="translate(6.81836 6.8183)"/>
</clipPath>
</defs>
</svg>
