<svg width="28" height="28" viewBox="0 0 28 28" fill="none" xmlns="http://www.w3.org/2000/svg">
<path fill-rule="evenodd" clip-rule="evenodd" d="M25.6667 13.9997C25.6667 20.4327 20.4331 25.6663 14.0001 25.6663C7.56708 25.6663 2.33342 20.4327 2.33342 13.9997C2.33342 7.56667 7.56708 2.33301 14.0001 2.33301C20.4331 2.33301 25.6667 7.56667 25.6667 13.9997ZM23.9167 13.9997C23.9167 8.53151 19.4682 4.08301 14.0001 4.08301C8.53192 4.08301 4.08342 8.53151 4.08342 13.9997C4.08342 19.4678 8.53192 23.9163 14.0001 23.9163C19.4682 23.9163 23.9167 19.4678 23.9167 13.9997ZM17.0026 14.62L12.9344 18.6695C12.5914 19.0102 12.0384 19.009 11.6978 18.6672C11.5274 18.4968 11.4423 18.2728 11.4423 18.05C11.4423 17.826 11.5274 17.6008 11.7001 17.4305L15.1453 13.9993L11.7001 10.5705C11.3571 10.2298 11.3571 9.67566 11.6978 9.33266C12.0384 8.99082 12.5914 8.98849 12.9344 9.33032L17.0026 13.3798C17.3328 13.7077 17.3328 14.291 17.0026 14.62Z" fill="#228276"/>
</svg>
